{
.appVersion = "3133";
.formatVersion = 3;
DisplayStrings = (
"Hg/g.ss02"
);
axes = (
{
name = Weight;
tag = wght;
},
{
name = Monospace;
tag = MONO;
}
);
classes = (
{
automatic = 1;

glyphs = (
{
color = 6;
glyphname = A;
kernLeft = A;
kernRight = A;
lastChange = "2022-07-21 12:37:17 +0000";
layers = (
{
anchors = (
{
name = bottom;
pos = (619,0);
},
{
name = ogonek;
pos = (1099,0);
},
{
name = top;
pos = (619,1238);
}
);
layerId = "5521DC30-183F-421A-91F3-644B5E24AFE6";
shapes = (
{
closed = 1;
nodes = (
(355,-19,o),
(408,44,o),
(436,169,cs),
(454,250,l),
(784,250,l),
(802,169,ls),
(830,44,o),
(883,-19,o),
(1010,-19,cs),
(1114,-19,o),
(1182,42,o),
(1182,146,cs),
(1182,167,o),
(1180,189,o),
(1173,212,cs),
(939,1026,ls),
(904,1148,o),
(803,1238,o),
(687,1238,cs),
(551,1238,ls),
(435,1238,o),
(334,1148,o),
(299,1026,cs),
(65,212,ls),
(58,189,o),
(56,167,o),
(56,146,cs),
(56,42,o),
(124,-19,o),
(228,-19,cs)
);
},
{
closed = 1;
nodes = (
(598,886,ls),
(606,921,o),
(613,951,o),
(619,976,c),
(625,951,o),
(632,921,o),
(640,886,c),
(723,517,l),
(515,517,l)
);
}
);
width = 1238;
},
{
anchors = (
{
name = bottom;
pos = (617,0);
},
{
name = ogonek;
pos = (1103,0);
},
{
name = top;
pos = (619,1248);
}
);
layerId = "BE68D89F-AB3F-4BDF-B332-ED50D7C47704";
shapes = (
{
closed = 1;
nodes = (
(179,-19,o),
(187,-5,o),
(199,28,cs),
(330,389,l),
(904,389,l),
(1035,28,ls),
(1047,-5,o),
(1053,-19,o),
(1075,-19,cs),
(1091,-19,o),
(1104,-12,o),
(1104,9,cs),
(1104,18,o),
(1102,30,o),
(1096,46,cs),
(676,1201,ls),
(665,1232,o),
(648,1248,o),
(619,1248,cs),
(614,1248,ls),
(587,1248,o),
(569,1232,o),
(558,1201,cs),
(138,46,ls),
(132,30,o),
(130,18,o),
(130,9,cs),
(130,-11,o),
(143,-19,o),
(157,-19,cs)
);
},
{
closed = 1;
nodes = (
(610,1161,ls),
(613,1170,o),
(616,1180,o),
(617,1187,c),
(619,1180,o),
(622,1170,o),
(625,1161,cs),
(882,450,l),
(352,450,l)
);
}
);
width = 1238;
},
{
anchors = (
{
name = bottom;
pos = (542,0);
},
{
name = ogonek;
pos = (1028,0);
},
{
name = top;
pos = (544,1248);
}
);
layerId = "8A001557-9052-48C4-99E5-0FAF857062F1";
shapes = (
{
closed = 1;
nodes = (
(104,-19,o),
(112,-5,o),
(124,28,cs),
(255,389,l),
(829,389,l),
(960,28,ls),
(972,-5,o),
(978,-19,o),
(1000,-19,cs),
(1016,-19,o),
(1029,-12,o),
(1029,9,cs),
(1029,18,o),
(1027,30,o),
(1021,46,cs),
(601,1201,ls),
(590,1232,o),
(573,1248,o),
(544,1248,cs),
(539,1248,ls),
(512,1248,o),
(494,1232,o),
(483,1201,cs),
(63,46,ls),
(57,30,o),
(55,18,o),
(55,9,cs),
(55,-11,o),
(68,-19,o),
(82,-19,cs)
);
},
{
closed = 1;
nodes = (
(535,1161,ls),
(538,1170,o),
(541,1182,o),
(542,1189,c),
(543,1182,o),
(547,1170,o),
(550,1161,cs),
(807,450,l),
(277,450,l)
);
}
);
width = 1084;
},
{
anchors = (
{
name = bottom;
pos = (591,0);
},
{
name = ogonek;
pos = (1071,0);
},
{
name = top;
pos = (591,1238);
}
);
layerId = "324E61BF-7061-45AA-9F81-5D4ECCAA9032";
shapes = (
{
closed = 1;
nodes = (
(327,-19,o),
(376,44,o),
(408,169,cs),
(429,250,l),
(753,250,l),
(774,169,ls),
(806,44,o),
(855,-19,o),
(982,-19,cs),
(1086,-19,o),
(1154,42,o),
(1154,146,cs),
(1154,167,o),
(1152,189,o),
(1145,212,cs),
(881,1036,ls),
(842,1158,o),
(755,1238,o),
(639,1238,cs),
(543,1238,ls),
(427,1238,o),
(340,1158,o),
(301,1036,cs),
(37,212,ls),
(30,189,o),
(28,167,o),
(28,146,cs),
(28,42,o),
(96,-19,o),
(200,-19,cs)
);
},
{
closed = 1;
nodes = (
(578,826,ls),
(583,846,o),
(588,867,o),
(591,885,c),
(594,867,o),
(599,846,o),
(604,826,cs),
(684,517,l),
(498,517,l)
);
}
);
width = 1182;
}
);
unicode = 65;
},
{
color = 6;
glyphname = AE;
kernLeft = A;
kernRight = E;
lastChange = "2022-07-21 12:26:04 +0000";
layers = (
{
anchors = (
{
name = bottom;
pos = (619,0);
},
{
name = top;
pos = (623,1238);
}
);
layerId = "5521DC30-183F-421A-91F3-644B5E24AFE6";
shapes = (
{
closed = 1;
nodes = (
(1044,-1,ls),
(1180,-1,o),
(1225,41,o),
(1225,118,cs),
(1225,195,o),
(1180,238,o),
(1044,238,cs),
(960,238,l),
(960,490,l),
(1077,490,ls),
(1151,490,o),
(1194,546,o),
(1194,608,cs),
(1194,670,o),
(1151,727,o),
(1077,727,cs),
(960,727,l),
(960,999,l),
(1044,999,ls),
(1180,999,o),
(1225,1042,o),
(1225,1119,cs),
(1225,1195,o),
(1180,1238,o),
(1044,1238,cs),
(541,1238,ls),
(441,1238,o),
(377,1184,o),
(343,1073,cs),
(75,200,ls),
(63,162,o),
(58,130,o),
(58,102,cs),
(58,9,o),
(124,-19,o),
(211,-19,cs),
(334,-19,o),
(388,37,o),
(417,151,cs),
(442,250,l),
(623,250,l),
(623,193,ls),
(623,67,o),
(696,-1,o),
(832,-1,cs)
);
},
{
closed = 1;
nodes = (
(620,957,ls),
(621,961,o),
(622,964,o),
(623,968,c),
(623,517,l),
(509,517,l)
);
}
);
width = 1238;
},
{
anchors = (
{
name = bottom;
pos = (619,0);
},
{
name = top;
pos = (619,1238);
}
);
layerId = "BE68D89F-AB3F-4BDF-B332-ED50D7C47704";
shapes = (
{
closed = 1;
nodes = (
(1093,-1,ls),
(1130,-1,o),
(1146,10,o),
(1146,27,cs),
(1146,45,o),
(1130,55,o),
(1093,55,cs),
(687,55,l),
(687,579,l),
(1029,579,ls),
(1066,579,o),
(1081,590,o),
(1081,608,cs),
(1081,626,o),
(1066,636,o),
(1029,636,cs),
(687,636,l),
(687,1182,l),
(1093,1182,ls),
(1130,1182,o),
(1146,1192,o),
(1146,1210,cs),
(1146,1228,o),
(1130,1238,o),
(1093,1238,cs),
(607,1238,ls),
(585,1238,o),
(570,1224,o),
(557,1195,cs),
(55,42,ls),
(48,25,o),
(45,12,o),
(45,3,cs),
(45,-15,o),
(57,-19,o),
(70,-19,cs),
(93,-19,o),
(102,-5,o),
(114,24,cs),
(252,342,l),
(624,342,l),
(624,51,ls),
(624,17,o),
(644,-1,o),
(681,-1,cs)
);
},
{
closed = 1;
nodes = (
(616,1177,ls),
(618,1181,o),
(620,1182,o),
(624,1182,c),
(624,399,l),
(277,399,l)
);
}
);
width = 1238;
},
{
anchors = (
{
name = bottom;
pos = (679,0);
},
{
name = top;
pos = (679,1238);
}
);
layerId = "8A001557-9052-48C4-99E5-0FAF857062F1";
shapes = (
{
closed = 1;
nodes = (
(1233,-1,ls),
(1270,-1,o),
(1286,10,o),
(1286,27,cs),
(1286,45,o),
(1270,55,o),
(1233,55,cs),
(747,55,l),
(747,579,l),
(1169,579,ls),
(1206,579,o),
(1221,590,o),
(1221,608,cs),
(1221,626,o),
(1206,636,o),
(1169,636,cs),
(747,636,l),
(747,1182,l),
(1233,1182,ls),
(1270,1182,o),
(1286,1192,o),
(1286,1210,cs),
(1286,1228,o),
(1270,1238,o),
(1233,1238,cs),
(667,1238,ls),
(645,1238,o),
(631,1224,o),
(617,1195,cs),
(55,42,ls),
(47,25,o),
(45,12,o),
(45,3,cs),
(45,-15,o),
(57,-19,o),
(70,-19,cs),
(93,-19,o),
(100,-5,o),
(114,24,cs),
(269,342,l),
(684,342,l),
(684,51,ls),
(684,17,o),
(704,-1,o),
(741,-1,cs)
);
},
{
closed = 1;
nodes = (
(676,1177,ls),
(677,1180,o),
(679,1182,o),
(684,1182,c),
(684,399,l),
(297,399,l)
);
}
);
width = 1441;
},
{
anchors = (
{
name = bottom;
pos = (639,0);
},
{
name = top;
pos = (643,1238);
}
);
layerId = "324E61BF-7061-45AA-9F81-5D4ECCAA9032";
shapes = (
{
closed = 1;
nodes = (
(1200,-1,ls),
(1316,-1,o),
(1361,41,o),
(1361,118,cs),
(1361,195,o),
(1316,238,o),
(1200,238,cs),
(980,238,l),
(980,490,l),
(1233,490,ls),
(1287,490,o),
(1330,546,o),
(1330,608,cs),
(1330,670,o),
(1287,727,o),
(1233,727,cs),
(980,727,l),
(980,999,l),
(1200,999,ls),
(1316,999,o),
(1361,1042,o),
(1361,1119,cs),
(1361,1195,o),
(1316,1238,o),
(1200,1238,cs),
(561,1238,ls),
(461,1238,o),
(404,1183,o),
(363,1073,cs),
(35,200,ls),
(21,162,o),
(18,130,o),
(18,102,cs),
(18,9,o),
(104,-19,o),
(171,-19,cs),
(294,-19,o),
(340,37,o),
(377,151,cs),
(409,250,l),
(643,250,l),
(643,193,ls),
(643,67,o),
(716,-1,o),
(852,-1,cs)
);
},
{
closed = 1;
nodes = (
(638,973,ls),
(640,978,o),
(641,979,o),
(643,979,c),
(643,517,l),
(495,517,l)
);
}
);
width = 1419;
}
);
unicode = 198;
},
{
color = 6;
glyphname = B;
kernLeft = H;
kernRight = B;
lastChange = "2022-07-21 12:26:04 +0000";
layers = (
{
anchors = (
{
name = bottom;
pos = (582,0);
},
{
name = top;
pos = (573,1238);
}
);
layerId = "5521DC30-183F-421A-91F3-644B5E24AFE6";
shapes = (
{
closed = 1;
nodes = (
(905,658,o),
(1118,687,o),
(1118,935,cs),
(1118,1172,o),
(885,1238,o),
(651,1238,cs),
(318,1238,ls),
(182,1238,o),
(109,1165,o),
(109,1029,cs),
(109,210,ls),
(109,73,o),
(182,0,o),
(318,0,cs),
(710,0,ls),
(975,0,o),
(1166,117,o),
(1166,353,cs),
(1166,626,o),
(906,658,o),
(865,658,c)
);
},
{
closed = 1;
nodes = (
(580,971,ls),
(662,971,o),
(745,961,o),
(745,864,cs),
(745,767,o),
(656,752,o),
(580,752,cs),
(490,752,l),
(490,971,l)
);
},
{
closed = 1;
nodes = (
(490,267,l),
(490,515,l),
(592,515,ls),
(691,515,o),
(779,497,o),
(779,393,cs),
(779,290,o),
(691,267,o),
(592,267,cs)
);
}
);
width = 1238;
},
{
anchors = (
{
name = bottom;
pos = (599,0);
},
{
name = top;
pos = (594,1238);
}
);
layerId = "BE68D89F-AB3F-4BDF-B332-ED50D7C47704";
shapes = (
{
closed = 1;
nodes = (
(850,642,o),
(1017,710,o),
(1017,935,cs),
(1017,1191,o),
(829,1238,o),
(589,1238,cs),
(314,1238,ls),
(277,1238,o),
(257,1218,o),
(257,1181,cs),
(257,57,ls),
(257,20,o),
(277,0,o),
(314,0,cs),
(635,0,ls),
(918,0,o),
(1055,113,o),
(1055,340,cs),
(1055,574,o),
(858,642,o),
(804,642,c)
);
},
{
closed = 1;
nodes = (
(619,1177,ls),
(810,1177,o),
(952,1128,o),
(952,935,cs),
(952,779,o),
(854,670,o),
(672,670,cs),
(320,670,l),
(320,1177,l)
);
},
{
closed = 1;
nodes = (
(320,61,l),
(320,609,l),
(678,609,ls),
(854,609,o),
(990,522,o),
(990,340,cs),
(990,163,o),
(888,61,o),
(622,61,cs)
);
}
);
width = 1238;
},
{
anchors = (
{
name = bottom;
pos = (517,0);
},
{
name = top;
pos = (512,1238);
}
);
layerId = "8A001557-9052-48C4-99E5-0FAF857062F1";
shapes = (
{
closed = 1;
nodes = (
(768,642,o),
(935,710,o),
(935,935,cs),
(935,1191,o),
(747,1238,o),
(507,1238,cs),
(232,1238,ls),
(195,1238,o),
(175,1218,o),
(175,1181,cs),
(175,57,ls),
(175,20,o),
(195,0,o),
(232,0,cs),
(553,0,ls),
(836,0,o),
(973,113,o),
(973,340,cs),
(973,574,o),
(776,642,o),
(722,642,c)
);
},
{
closed = 1;
nodes = (
(537,1177,ls),
(728,1177,o),
(870,1128,o),
(870,935,cs),
(870,779,o),
(772,670,o),
(590,670,cs),
(238,670,l),
(238,1177,l)
);
},
{
closed = 1;
nodes = (
(238,61,l),
(238,609,l),
(596,609,ls),
(772,609,o),
(908,522,o),
(908,340,cs),
(908,163,o),
(806,61,o),
(540,61,cs)
);
}
);
width = 1148;
},
{
anchors = (
{
name = bottom;
pos = (541,0);
},
{
name = top;
pos = (532,1238);
}
);
layerId = "324E61BF-7061-45AA-9F81-5D4ECCAA9032";
shapes = (
{
closed = 1;
nodes = (
(864,658,o),
(1077,687,o),
(1077,935,cs),
(1077,1172,o),
(844,1238,o),
(610,1238,cs),
(277,1238,ls),
(141,1238,o),
(68,1165,o),
(68,1029,cs),
(68,210,ls),
(68,73,o),
(141,0,o),
(277,0,cs),
(669,0,ls),
(934,0,o),
(1125,117,o),
(1125,353,cs),
(1125,626,o),
(865,658,o),
(824,658,c)
);
},
{
closed = 1;
nodes = (
(539,971,ls),
(621,971,o),
(704,961,o),
(704,864,cs),
(704,767,o),
(615,752,o),
(539,752,cs),
(449,752,l),
(449,971,l)
);
},
{
closed = 1;
nodes = (
(449,267,l),
(449,515,l),
(551,515,ls),
(650,515,o),
(738,497,o),
(738,393,cs),
(738,290,o),
(650,267,o),
(551,267,cs)
);
}
);
width = 1193;
}
);
unicode = 66;
},
{
color = 6;
glyphname = C;
kernLeft = O;
kernRight = C;
lastChange = "2022-07-21 12:26:04 +0000";
layers = (
{
anchors = (
{
name = bottom;
pos = (742,0);
},
{
name = top;
pos = (701,1238);
}
);
layerId = "5521DC30-183F-421A-91F3-644B5E24AFE6";
shapes = (
{
closed = 1;
nodes = (
(926,-21,o),
(1164,104,o),
(1164,300,cs),
(1164,395,o),
(1090,461,o),
(1001,461,cs),
(894,461,o),
(865,404,o),
(839,349,cs),
(814,295,o),
(789,246,o),
(701,246,cs),
(581,246,o),
(469,336,o),
(469,614,cs),
(469,892,o),
(581,983,o),
(701,983,cs),
(789,983,o),
(814,933,o),
(839,880,cs),
(865,825,o),
(894,768,o),
(1001,768,cs),
(1090,768,o),
(1164,833,o),
(1164,929,cs),
(1164,1124,o),
(929,1250,o),
(701,1250,cs),
(430,1250,o),
(84,1125,o),
(84,614,cs),
(84,104,o),
(430,-21,o),
(701,-21,cs)
);
}
);
width = 1238;
},
{
anchors = (
{
name = bottom;
pos = (713,0);
},
{
name = top;
pos = (649,1238);
}
);
layerId = "BE68D89F-AB3F-4BDF-B332-ED50D7C47704";
shapes = (
{
closed = 1;
nodes = (
(964,-19,o),
(1090,197,o),
(1090,296,cs),
(1090,316,o),
(1077,326,o),
(1064,326,cs),
(1045,326,o),
(1036,320,o),
(1029,290,cs),
(1008,197,o),
(900,44,o),
(684,44,cs),
(463,44,o),
(240,238,o),
(240,615,cs),
(240,992,o),
(463,1187,o),
(684,1187,cs),
(900,1187,o),
(1008,1033,o),
(1029,940,cs),
(1036,910,o),
(1045,905,o),
(1064,905,cs),
(1077,905,o),
(1090,914,o),
(1090,934,cs),
(1090,1033,o),
(964,1250,o),
(682,1250,cs),
(410,1250,o),
(171,1034,o),
(171,615,cs),
(171,196,o),
(410,-19,o),
(682,-19,cs)
);
}
);
width = 1238;
},
{
anchors = (
{
name = bottom;
pos = (684,0);
},
{
name = top;
pos = (613,1238);
}
);
layerId = "8A001557-9052-48C4-99E5-0FAF857062F1";
shapes = (
{
closed = 1;
nodes = (
(928,-19,o),
(1054,197,o),
(1054,296,cs),
(1054,316,o),
(1041,326,o),
(1028,326,cs),
(1009,326,o),
(1000,320,o),
(993,290,cs),
(972,197,o),
(864,44,o),
(648,44,cs),
(427,44,o),
(204,238,o),
(204,615,cs),
(204,992,o),
(427,1187,o),
(648,1187,cs),
(864,1187,o),
(972,1033,o),
(993,940,cs),
(1000,910,o),
(1009,905,o),
(1028,905,cs),
(1041,905,o),
(1054,914,o),
(1054,934,cs),
(1054,1033,o),
(928,1250,o),
(646,1250,cs),
(374,1250,o),
(135,1034,o),
(135,615,cs),
(135,196,o),
(374,-19,o),
(646,-19,cs)
);
}
);
width = 1189;
},
{
anchors = (
{
name = bottom;
pos = (717,0);
},
{
name = top;
pos = (665,1238);
}
);
layerId = "324E61BF-7061-45AA-9F81-5D4ECCAA9032";
shapes = (
{
closed = 1;
nodes = (
(890,-21,o),
(1128,104,o),
(1128,300,cs),
(1128,395,o),
(1054,461,o),
(965,461,cs),
(858,461,o),
(829,404,o),
(803,349,cs),
(778,295,o),
(753,246,o),
(665,246,cs),
(545,246,o),
(433,336,o),
(433,614,cs),
(433,892,o),
(545,983,o),
(665,983,cs),
(753,983,o),
(778,933,o),
(803,880,cs),
(829,825,o),
(858,768,o),
(965,768,cs),
(1054,768,o),
(1128,833,o),
(1128,929,cs),
(1128,1124,o),
(893,1250,o),
(665,1250,cs),
(394,1250,o),
(48,1125,o),
(48,614,cs),
(48,104,o),
(394,-21,o),
(665,-21,cs)
);
}
);
width = 1176;
}
);
unicode = 67;
},
{
color = 6;
glyphname = Ccedilla;
kernLeft = O;
kernRight = C;
lastChange = "2022-07-21 12:26:04 +0000";
layers = (
{
anchors = (
{
name = bottom;
pos = (701,-476);
},
{
name = top;
pos = (701,1238);
}
);
layerId = "5521DC30-183F-421A-91F3-644B5E24AFE6";
shapes = (
{
closed = 1;
nodes = (
(845,-473,o),
(1034,-404,o),
(1034,-264,cs),
(1034,-156,o),
(925,-110,o),
(834,-110,cs),
(782,-110,o),
(735,-120,o),
(697,-151,c),
(743,-20,l),
(954,-5,o),
(1164,116,o),
(1164,300,cs),
(1164,395,o),
(1090,461,o),
(1001,461,cs),
(894,461,o),
(865,404,o),
(839,349,cs),
(814,295,o),
(789,246,o),
(701,246,cs),
(581,246,o),
(469,336,o),
(469,614,cs),
(469,892,o),
(581,983,o),
(701,983,cs),
(789,983,o),
(814,933,o),
(839,880,cs),
(865,825,o),
(894,768,o),
(1001,768,cs),
(1090,768,o),
(1164,833,o),
(1164,929,cs),
(1164,1124,o),
(929,1250,o),
(701,1250,cs),
(430,1250,o),
(84,1125,o),
(84,614,cs),
(84,193,o),
(320,35,o),
(554,-8,c),
(505,-139,ls),
(499,-154,o),
(495,-170,o),
(495,-185,cs),
(495,-228,o),
(521,-264,o),
(580,-264,cs),
(605,-264,o),
(630,-259,o),
(656,-251,cs),
(680,-244,o),
(706,-240,o),
(731,-240,cs),
(760,-240,o),
(777,-250,o),
(777,-270,cs),
(777,-300,o),
(735,-315,o),
(668,-315,cs),
(631,-315,o),
(602,-314,o),
(576,-307,cs),
(554,-301,o),
(533,-297,o),
(514,-297,cs),
(477,-297,o),
(441,-322,o),
(441,-369,cs),
(441,-403,o),
(462,-432,o),
(509,-453,cs),
(540,-467,o),
(584,-473,o),
(642,-473,cs)
);
}
);
width = 1238;
},
{
anchors = (
{
name = bottom;
pos = (696,-410);
},
{
name = top;
pos = (649,1238);
}
);
layerId = "BE68D89F-AB3F-4BDF-B332-ED50D7C47704";
shapes = (
{
closed = 1;
nodes = (
(801,-416,o),
(924,-353,o),
(924,-222,cs),
(924,-144,o),
(862,-112,o),
(795,-112,cs),
(749,-112,o),
(702,-128,o),
(672,-145,c),
(709,-18,l),
(972,-5,o),
(1090,200,o),
(1090,296,cs),
(1090,316,o),
(1077,326,o),
(1064,326,cs),
(1045,326,o),
(1036,320,o),
(1029,290,cs),
(1008,197,o),
(900,44,o),
(684,44,cs),
(463,44,o),
(240,238,o),
(240,615,cs),
(240,992,o),
(463,1187,o),
(684,1187,cs),
(900,1187,o),
(1008,1033,o),
(1029,940,cs),
(1036,910,o),
(1045,905,o),
(1064,905,cs),
(1077,905,o),
(1090,914,o),
(1090,934,cs),
(1090,1033,o),
(964,1250,o),
(682,1250,cs),
(410,1250,o),
(171,1034,o),
(171,615,cs),
(171,213,o),
(391,-1,o),
(650,-18,c),
(611,-140,ls),
(607,-152,o),
(603,-166,o),
(603,-174,cs),
(603,-193,o),
(614,-199,o),
(630,-199,cs),
(648,-199,o),
(664,-194,o),
(682,-187,cs),
(706,-177,o),
(735,-169,o),
(780,-169,cs),
(821,-169,o),
(854,-188,o),
(854,-236,cs),
(854,-314,o),
(765,-355,o),
(659,-355,cs),
(638,-355,o),
(607,-353,o),
(593,-350,cs),
(583,-348,o),
(575,-347,o),
(566,-347,cs),
(542,-347,o),
(530,-356,o),
(530,-375,cs),
(530,-390,o),
(547,-403,o),
(581,-410,cs),
(606,-415,o),
(632,-416,o),
(656,-416,cs)
);
}
);
width = 1238;
},
{
anchors = (
{
name = bottom;
pos = (696,-410);
},
{
name = top;
pos = (613,1238);
}
);
layerId = "8A001557-9052-48C4-99E5-0FAF857062F1";
shapes = (
{
closed = 1;
nodes = (
(747,-416,o),
(870,-353,o),
(870,-222,cs),
(870,-144,o),
(808,-112,o),
(741,-112,cs),
(695,-112,o),
(648,-128,o),
(618,-145,c),
(655,-19,l),
(931,-14,o),
(1054,198,o),
(1054,296,cs),
(1054,316,o),
(1041,326,o),
(1028,326,cs),
(1009,326,o),
(1000,320,o),
(993,290,cs),
(972,197,o),
(864,44,o),
(648,44,cs),
(427,44,o),
(204,238,o),
(204,615,cs),
(204,992,o),
(427,1187,o),
(648,1187,cs),
(864,1187,o),
(972,1033,o),
(993,940,cs),
(1000,910,o),
(1009,905,o),
(1028,905,cs),
(1041,905,o),
(1054,914,o),
(1054,934,cs),
(1054,1033,o),
(928,1250,o),
(646,1250,cs),
(374,1250,o),
(135,1034,o),
(135,615,cs),
(135,222,o),
(345,8,o),
(596,-17,c),
(557,-140,ls),
(553,-152,o),
(549,-166,o),
(549,-174,cs),
(549,-193,o),
(560,-199,o),
(576,-199,cs),
(594,-199,o),
(610,-194,o),
(628,-187,cs),
(652,-177,o),
(681,-169,o),
(726,-169,cs),
(767,-169,o),
(800,-188,o),
(800,-236,cs),
(800,-314,o),
(711,-355,o),
(605,-355,cs),
(584,-355,o),
(553,-353,o),
(539,-350,cs),
(529,-348,o),
(521,-347,o),
(512,-347,cs),
(488,-347,o),
(476,-356,o),
(476,-375,cs),
(476,-390,o),
(493,-403,o),
(527,-410,cs),
(552,-415,o),
(578,-416,o),
(602,-416,cs)
);
}
);
width = 1139;
},
{
anchors = (
{
name = bottom;
pos = (701,-476);
},
{
name = top;
pos = (665,1238);
}
);
layerId = "324E61BF-7061-45AA-9F81-5D4ECCAA9032";
shapes = (
{
closed = 1;
nodes = (
(821,-473,o),
(1010,-404,o),
(1010,-264,cs),
(1010,-156,o),
(901,-110,o),
(810,-110,cs),
(758,-110,o),
(711,-120,o),
(673,-151,c),
(719,-19,l),
(926,-1,o),
(1128,120,o),
(1128,300,cs),
(1128,395,o),
(1054,461,o),
(965,461,cs),
(858,461,o),
(829,404,o),
(803,349,cs),
(778,295,o),
(753,246,o),
(665,246,cs),
(545,246,o),
(433,336,o),
(433,614,cs),
(433,892,o),
(545,983,o),
(665,983,cs),
(753,983,o),
(778,933,o),
(803,880,cs),
(829,825,o),
(858,768,o),
(965,768,cs),
(1054,768,o),
(1128,833,o),
(1128,929,cs),
(1128,1124,o),
(893,1250,o),
(665,1250,cs),
(394,1250,o),
(48,1125,o),
(48,614,cs),
(48,186,o),
(291,29,o),
(529,-10,c),
(481,-139,ls),
(475,-154,o),
(471,-170,o),
(471,-185,cs),
(471,-228,o),
(497,-264,o),
(556,-264,cs),
(581,-264,o),
(606,-259,o),
(632,-251,cs),
(656,-244,o),
(682,-240,o),
(707,-240,cs),
(736,-240,o),
(753,-250,o),
(753,-270,cs),
(753,-300,o),
(711,-315,o),
(644,-315,cs),
(607,-315,o),
(578,-314,o),
(552,-307,cs),
(530,-301,o),
(509,-297,o),
(490,-297,cs),
(453,-297,o),
(417,-322,o),
(417,-369,cs),
(417,-403,o),
(438,-432,o),
(485,-453,cs),
(516,-467,o),
(560,-473,o),
(618,-473,cs)
);
}
);
width = 1160;
}
);
unicode = 199;
},
{
color = 6;
glyphname = D;
kernLeft = H;
kernRight = O;
lastChange = "2022-07-21 12:26:04 +0000";
layers = (
{
anchors = (
{
name = bottom;
pos = (590,0);
},
{
name = center;
pos = (299,653);
},
{
name = top;
pos = (595,1238);
}
);
layerId = "5521DC30-183F-421A-91F3-644B5E24AFE6";
shapes = (
{
closed = 1;
nodes = (
(299,1238,ls),
(163,1238,o),
(90,1165,o),
(90,1029,cs),
(90,210,ls),
(90,73,o),
(163,0,o),
(299,0,cs),
(537,0,ls),
(733,0,o),
(1177,38,o),
(1177,619,cs),
(1177,1200,o),
(733,1238,o),
(537,1238,cs)
);
},
{
closed = 1;
nodes = (
(470,267,l),
(470,971,l),
(537,971,ls),
(707,971,o),
(792,869,o),
(792,619,cs),
(792,370,o),
(707,267,o),
(537,267,cs)
);
}
);
width = 1238;
},
{
anchors = (
{
name = bottom;
pos = (562,0);
},
{
name = center;
pos = (309,667);
},
{
name = top;
pos = (564,1238);
}
);
layerId = "BE68D89F-AB3F-4BDF-B332-ED50D7C47704";
shapes = (
{
closed = 1;
nodes = (
(263,1238,ls),
(226,1238,o),
(206,1218,o),
(206,1181,cs),
(206,57,ls),
(206,20,o),
(226,0,o),
(263,0,cs),
(526,0,ls),
(745,0,o),
(1070,124,o),
(1070,619,cs),
(1070,1114,o),
(745,1238,o),
(526,1238,cs)
);
},
{
closed = 1;
nodes = (
(269,61,l),
(269,1177,l),
(520,1177,ls),
(739,1177,o),
(1007,1030,o),
(1007,619,cs),
(1007,208,o),
(739,61,o),
(520,61,cs)
);
}
);
width = 1238;
},
{
anchors = (
{
name = bottom;
pos = (531,0);
},
{
name = center;
pos = (278,667);
},
{
name = top;
pos = (533,1238);
}
);
layerId = "8A001557-9052-48C4-99E5-0FAF857062F1";
shapes = (
{
closed = 1;
nodes = (
(232,1238,ls),
(195,1238,o),
(175,1218,o),
(175,1181,cs),
(175,57,ls),
(175,20,o),
(195,0,o),
(232,0,cs),
(495,0,ls),
(714,0,o),
(1039,124,o),
(1039,619,cs),
(1039,1114,o),
(714,1238,o),
(495,1238,cs)
);
},
{
closed = 1;
nodes = (
(238,61,l),
(238,1177,l),
(489,1177,ls),
(708,1177,o),
(976,1030,o),
(976,619,cs),
(976,208,o),
(708,61,o),
(489,61,cs)
);
}
);
width = 1174;
},
{
anchors = (
{
name = bottom;
pos = (568,0);
},
{
name = center;
pos = (277,653);
},
{
name = top;
pos = (573,1238);
}
);
layerId = "324E61BF-7061-45AA-9F81-5D4ECCAA9032";
shapes = (
{
closed = 1;
nodes = (
(277,1238,ls),
(141,1238,o),
(68,1165,o),
(68,1029,cs),
(68,210,ls),
(68,73,o),
(141,0,o),
(277,0,cs),
(515,0,ls),
(711,0,o),
(1155,38,o),
(1155,619,cs),
(1155,1200,o),
(711,1238,o),
(515,1238,cs)
);
},
{
closed = 1;
nodes = (
(448,267,l),
(448,971,l),
(515,971,ls),
(685,971,o),
(770,869,o),
(770,619,cs),
(770,370,o),
(685,267,o),
(515,267,cs)
);
}
);
width = 1203;
}
);
unicode = 68;
},
{
color = 3;
glyphname = Eth;
kernLeft = H;
kernRight = O;
lastChange = "2022-07-21 12:26:04 +0000";
layers = (
{
layerId = "5521DC30-183F-421A-91F3-644B5E24AFE6";
shapes = (
{
ref = D;
},
{
closed = 1;
nodes = (
(480,505,ls),
(616,505,o),
(690,545,o),
(690,619,cs),
(690,693,o),
(616,733,o),
(480,733,cs),
(175,733,ls),
(39,733,o),
(-34,693,o),
(-34,619,cs),
(-34,545,o),
(39,505,o),
(175,505,cs)
);
}
);
width = 1238;
},
{
layerId = "BE68D89F-AB3F-4BDF-B332-ED50D7C47704";
shapes = (
{
ref = D;
},
{
closed = 1;
nodes = (
(547,589,ls),
(584,589,o),
(604,600,o),
(604,619,cs),
(604,638,o),
(584,650,o),
(547,650,cs),
(90,650,ls),
(52,650,o),
(32,638,o),
(32,619,cs),
(32,600,o),
(52,589,o),
(90,589,cs)
);
}
);
width = 1238;
},
{
layerId = "8A001557-9052-48C4-99E5-0FAF857062F1";
shapes = (
{
ref = D;
},
{
closed = 1;
nodes = (
(572,589,ls),
(609,589,o),
(629,600,o),
(629,619,cs),
(629,638,o),
(609,650,o),
(572,650,cs),
(115,650,ls),
(77,650,o),
(57,638,o),
(57,619,cs),
(57,600,o),
(77,589,o),
(115,589,cs)
);
}
);
width = 1174;
},
{
layerId = "324E61BF-7061-45AA-9F81-5D4ECCAA9032";
shapes = (
{
ref = D;
},
{
closed = 1;
nodes = (
(488,505,ls),
(624,505,o),
(698,545,o),
(698,619,cs),
(698,693,o),
(624,733,o),
(488,733,cs),
(183,733,ls),
(47,733,o),
(-26,693,o),
(-26,619,cs),
(-26,545,o),
(47,505,o),
(183,505,cs)
);
}
);
width = 1203;
}
);
unicode = 208;
},
{
color = 6;
glyphname = E;
kernLeft = H;
kernRight = E;
lastChange = "2022-07-21 12:26:04 +0000";
layers = (
{
anchors = (
{
name = bottom;
pos = (629,0);
},
{
name = ogonek;
pos = (869,0);
},
{
name = top;
pos = (629,1238);
},
{
name = topleft;
pos = (152,1238);
}
);
layerId = "5521DC30-183F-421A-91F3-644B5E24AFE6";
shapes = (
{
closed = 1;
nodes = (
(1105,1191,o),
(1041,1238,o),
(905,1238,cs),
(364,1238,ls),
(228,1238,o),
(154,1165,o),
(154,1029,cs),
(154,210,ls),
(154,73,o),
(228,0,o),
(364,0,cs),
(905,0,ls),
(1041,0,o),
(1105,47,o),
(1105,133,cs),
(1105,220,o),
(1041,267,o),
(905,267,cs),
(535,267,l),
(535,484,l),
(821,484,ls),
(957,484,o),
(1002,530,o),
(1002,617,cs),
(1002,704,o),
(957,750,o),
(821,750,cs),
(535,750,l),
(535,971,l),
(905,971,ls),
(1041,971,o),
(1105,1018,o),
(1105,1105,cs)
);
}
);
width = 1238;
},
{
anchors = (
{
name = bottom;
pos = (648,0);
},
{
name = ogonek;
pos = (958,0);
},
{
name = top;
pos = (648,1238);
},
{
name = topleft;
pos = (240,1238);
}
);
layerId = "BE68D89F-AB3F-4BDF-B332-ED50D7C47704";
shapes = (
{
closed = 1;
nodes = (
(1006,1228,o),
(986,1238,o),
(949,1238,cs),
(331,1238,ls),
(294,1238,o),
(274,1218,o),
(274,1181,cs),
(274,57,ls),
(274,20,o),
(294,0,o),
(331,0,cs),
(949,0,ls),
(986,0,o),
(1006,11,o),
(1006,30,cs),
(1006,50,o),
(986,61,o),
(949,61,cs),
(337,61,l),
(337,596,l),
(855,596,ls),
(892,596,o),
(912,608,o),
(912,627,cs),
(912,646,o),
(892,657,o),
(855,657,cs),
(337,657,l),
(337,1177,l),
(949,1177,ls),
(986,1177,o),
(1006,1189,o),
(1006,1208,cs)
);
}
);
width = 1238;
},
{
anchors = (
{
name = bottom;
pos = (549,0);
},
{
name = ogonek;
pos = (859,0);
},
{
name = top;
pos = (549,1238);
},
{
name = topleft;
pos = (141,1238);
}
);
layerId = "8A001557-9052-48C4-99E5-0FAF857062F1";
shapes = (
{
closed = 1;
nodes = (
(907,1228,o),
(887,1238,o),
(850,1238,cs),
(232,1238,ls),
(195,1238,o),
(175,1218,o),
(175,1181,cs),
(175,57,ls),
(175,20,o),
(195,0,o),
(232,0,cs),
(850,0,ls),
(887,0,o),
(907,11,o),
(907,30,cs),
(907,50,o),
(887,61,o),
(850,61,cs),
(238,61,l),
(238,596,l),
(756,596,ls),
(793,596,o),
(813,608,o),
(813,627,cs),
(813,646,o),
(793,657,o),
(756,657,cs),
(238,657,l),
(238,1177,l),
(850,1177,ls),
(887,1177,o),
(907,1189,o),
(907,1208,cs)
);
}
);
width = 1062;
},
{
anchors = (
{
name = bottom;
pos = (553,0);
},
{
name = ogonek;
pos = (829,0);
},
{
name = top;
pos = (553,1238);
},
{
name = topleft;
pos = (76,1238);
}
);
layerId = "324E61BF-7061-45AA-9F81-5D4ECCAA9032";
shapes = (
{
closed = 1;
nodes = (
(1029,1191,o),
(965,1238,o),
(829,1238,cs),
(288,1238,ls),
(152,1238,o),
(78,1165,o),
(78,1029,cs),
(78,210,ls),
(78,73,o),
(152,0,o),
(288,0,cs),
(829,0,ls),
(965,0,o),
(1029,47,o),
(1029,133,cs),
(1029,220,o),
(965,267,o),
(829,267,cs),
(459,267,l),
(459,484,l),
(745,484,ls),
(881,484,o),
(926,530,o),
(926,617,cs),
(926,704,o),
(881,750,o),
(745,750,cs),
(459,750,l),
(459,971,l),
(829,971,ls),
(965,971,o),
(1029,1018,o),
(1029,1105,cs)
);
}
);
width = 1087;
}
);
unicode = 69;
},
{
color = 6;
glyphname = Schwa;
lastChange = "2022-07-21 12:26:04 +0000";
layers = (
{
anchors = (
{
name = bottom;
pos = (600,0);
},
{
name = top;
pos = (600,1238);
}
);
layerId = "BE68D89F-AB3F-4BDF-B332-ED50D7C47704";
shapes = (
{
closed = 1;
nodes = (
(807,-21,o),
(1038,144,o),
(1038,603,cs),
(1038,1054,o),
(826,1248,o),
(603,1248,cs),
(389,1248,o),
(251,1095,o),
(195,1003,cs),
(184,985,o),
(175,964,o),
(175,951,cs),
(175,934,o),
(186,923,o),
(203,923,cs),
(219,923,o),
(239,937,o),
(252,960,cs),
(298,1042,o),
(413,1185,o),
(603,1185,cs),
(795,1185,o),
(971,1002,o),
(971,603,cs),
(971,196,o),
(782,42,o),
(605,42,cs),
(385,42,o),
(250,217,o),
(250,589,c),
(222,565,l),
(992,565,l),
(992,628,l),
(239,628,ls),
(203,628,o),
(181,609,o),
(181,571,cs),
(181,194,o),
(351,-21,o),
(601,-21,cs)
);
}
);
width = 1238;
},
{
anchors = (
{
name = bottom;
pos = (600,0);
},
{
name = top;
pos = (600,1238);
}
);
layerId = "5521DC30-183F-421A-91F3-644B5E24AFE6";
shapes = (
{
closed = 1;
nodes = (
(901,-21,o),
(1120,180,o),
(1120,616,cs),
(1120,1069,o),
(884,1235,o),
(606,1235,cs),
(406,1235,o),
(284,1179,o),
(210,1109,cs),
(157,1059,o),
(133,1021,o),
(133,959,cs),
(133,857,o),
(180,821,o),
(262,821,cs),
(341,821,o),
(387,854,o),
(425,889,cs),
(470,930,o),
(516,968,o),
(585,968,cs),
(700,968,o),
(758,894,o),
(758,616,cs),
(758,347,o),
(699,245,o),
(600,245,cs),
(502,245,o),
(459,350,o),
(459,568,c),
(421,519,l),
(771,519,l),
(771,711,l),
(302,711,ls),
(177,711,o),
(111,657,o),
(111,537,cs),
(111,150,o),
(327,-21,o),
(611,-21,cs)
);
}
);
width = 1238;
},
{
anchors = (
{
name = bottom;
pos = (560,0);
},
{
name = top;
pos = (560,1238);
}
);
layerId = "8A001557-9052-48C4-99E5-0FAF857062F1";
shapes = (
{
closed = 1;
nodes = (
(767,-21,o),
(998,144,o),
(998,603,cs),
(998,1054,o),
(786,1248,o),
(563,1248,cs),
(349,1248,o),
(211,1095,o),
(155,1003,cs),
(144,985,o),
(135,964,o),
(135,951,cs),
(135,934,o),
(146,923,o),
(163,923,cs),
(179,923,o),
(199,937,o),
(212,960,cs),
(258,1042,o),
(373,1185,o),
(563,1185,cs),
(755,1185,o),
(931,1002,o),
(931,603,cs),
(931,196,o),
(742,42,o),
(565,42,cs),
(345,42,o),
(210,217,o),
(210,589,c),
(182,565,l),
(952,565,l),
(952,628,l),
(199,628,ls),
(163,628,o),
(141,609,o),
(141,571,cs),
(141,194,o),
(311,-21,o),
(561,-21,cs)
);
}
);
width = 1133;
},
{
anchors = (
{
name = bottom;
pos = (537,0);
},
{
name = top;
pos = (537,1238);
}
);
layerId = "324E61BF-7061-45AA-9F81-5D4ECCAA9032";
shapes = (
{
closed = 1;
nodes = (
(838,-21,o),
(1057,180,o),
(1057,616,cs),
(1057,1069,o),
(821,1235,o),
(543,1235,cs),
(343,1235,o),
(221,1179,o),
(147,1109,cs),
(94,1059,o),
(70,1021,o),
(70,959,cs),
(70,857,o),
(117,821,o),
(199,821,cs),
(278,821,o),
(324,854,o),
(362,889,cs),
(407,930,o),
(453,968,o),
(522,968,cs),
(637,968,o),
(695,894,o),
(695,616,cs),
(695,347,o),
(636,245,o),
(537,245,cs),
(439,245,o),
(396,350,o),
(396,568,c),
(358,519,l),
(708,519,l),
(708,711,l),
(239,711,ls),
(114,711,o),
(48,657,o),
(48,537,cs),
(48,150,o),
(264,-21,o),
(548,-21,cs)
);
}
);
width = 1105;
}
);
unicode = 399;
},
{
color = 6;
glyphname = F;
kernLeft = H;
kernRight = F;
lastChange = "2022-07-21 12:26:04 +0000";
layers = (
{
anchors = (
{
name = bottom;
pos = (570,0);
},
{
name = top;
pos = (630,1238);
}
);
layerId = "5521DC30-183F-421A-91F3-644B5E24AFE6";
shapes = (
{
closed = 1;
nodes = (
(1120,1191,o),
(1047,1238,o),
(910,1238,cs),
(413,1238,ls),
(277,1238,o),
(204,1165,o),
(204,1029,cs),
(204,190,ls),
(204,54,o),
(270,-19,o),
(394,-19,cs),
(518,-19,o),
(585,54,o),
(585,190,cs),
(585,381,l),
(874,381,ls),
(991,381,o),
(1046,428,o),
(1046,514,cs),
(1046,601,o),
(991,648,o),
(874,648,cs),
(585,648,l),
(585,971,l),
(910,971,ls),
(1047,971,o),
(1120,1018,o),
(1120,1105,cs)
);
}
);
width = 1238;
},
{
anchors = (
{
name = bottom;
pos = (619,0);
},
{
name = top;
pos = (682,1238);
}
);
layerId = "BE68D89F-AB3F-4BDF-B332-ED50D7C47704";
shapes = (
{
closed = 1;
nodes = (
(1048,1228,o),
(1028,1238,o),
(990,1238,cs),
(373,1238,ls),
(336,1238,o),
(316,1218,o),
(316,1181,cs),
(316,48,ls),
(316,10,o),
(328,-10,o),
(348,-10,cs),
(368,-10,o),
(379,10,o),
(379,48,cs),
(379,520,l),
(895,520,ls),
(932,520,o),
(952,531,o),
(952,550,cs),
(952,570,o),
(932,581,o),
(895,581,cs),
(379,581,l),
(379,1177,l),
(990,1177,ls),
(1028,1177,o),
(1048,1189,o),
(1048,1208,cs)
);
}
);
width = 1238;
},
{
anchors = (
{
name = bottom;
pos = (478,0);
},
{
name = top;
pos = (541,1238);
}
);
layerId = "8A001557-9052-48C4-99E5-0FAF857062F1";
shapes = (
{
closed = 1;
nodes = (
(907,1228,o),
(887,1238,o),
(849,1238,cs),
(232,1238,ls),
(195,1238,o),
(175,1218,o),
(175,1181,cs),
(175,48,ls),
(175,10,o),
(187,-10,o),
(207,-10,cs),
(227,-10,o),
(238,10,o),
(238,48,cs),
(238,520,l),
(754,520,ls),
(791,520,o),
(811,531,o),
(811,550,cs),
(811,570,o),
(791,581,o),
(754,581,cs),
(238,581,l),
(238,1177,l),
(849,1177,ls),
(887,1177,o),
(907,1189,o),
(907,1208,cs)
);
}
);
width = 1042;
},
{
anchors = (
{
name = bottom;
pos = (444,0);
},
{
name = top;
pos = (504,1238);
}
);
layerId = "324E61BF-7061-45AA-9F81-5D4ECCAA9032";
shapes = (
{
closed = 1;
nodes = (
(974,1191,o),
(901,1238,o),
(784,1238,cs),
(287,1238,ls),
(151,1238,o),
(78,1165,o),
(78,1029,cs),
(78,190,ls),
(78,54,o),
(144,-19,o),
(268,-19,cs),
(392,-19,o),
(459,54,o),
(459,190,cs),
(459,381,l),
(718,381,ls),
(835,381,o),
(890,428,o),
(890,514,cs),
(890,601,o),
(835,648,o),
(718,648,cs),
(459,648,l),
(459,971,l),
(784,971,ls),
(901,971,o),
(974,1018,o),
(974,1105,cs)
);
}
);
width = 1032;
}
);
unicode = 70;
},
{
color = 6;
glyphname = G;
kernLeft = O;
kernRight = G;
lastChange = "2022-07-21 12:26:04 +0000";
layers = (
{
anchors = (
{
name = bottom;
pos = (661,-21);
},
{
name = top;
pos = (648,1238);
}
);
layerId = "5521DC30-183F-421A-91F3-644B5E24AFE6";
shapes = (
{
closed = 1;
nodes = (
(945,-21,o),
(1185,164,o),
(1185,493,cs),
(1185,616,o),
(1131,682,o),
(995,682,cs),
(746,682,ls),
(649,682,o),
(588,646,o),
(588,556,cs),
(588,466,o),
(653,429,o),
(750,429,cs),
(812,429,l),
(809,336,o),
(761,250,o),
(653,250,cs),
(523,250,o),
(411,326,o),
(411,615,cs),
(411,886,o),
(533,979,o),
(657,979,cs),
(719,979,o),
(773,926,o),
(807,890,cs),
(843,852,o),
(898,824,o),
(955,824,cs),
(1037,824,o),
(1117,888,o),
(1117,975,cs),
(1117,1028,o),
(1089,1085,o),
(1028,1135,cs),
(928,1218,o),
(797,1250,o),
(655,1250,cs),
(335,1250,o),
(30,1076,o),
(30,615,cs),
(30,152,o),
(309,-21,o),
(629,-21,cs)
);
}
);
width = 1238;
},
{
anchors = (
{
name = bottom;
pos = (652,-21);
},
{
name = top;
pos = (639,1238);
}
);
layerId = "BE68D89F-AB3F-4BDF-B332-ED50D7C47704";
shapes = (
{
closed = 1;
nodes = (
(896,-21,o),
(1085,142,o),
(1085,524,cs),
(1085,561,o),
(1065,581,o),
(1028,581,cs),
(690,581,ls),
(653,581,o),
(637,570,o),
(637,550,cs),
(637,530,o),
(653,520,o),
(690,520,cs),
(1020,520,l),
(1012,172,o),
(863,42,o),
(652,42,cs),
(442,42,o),
(220,219,o),
(220,615,cs),
(220,1011,o),
(442,1187,o),
(662,1187,cs),
(797,1187,o),
(868,1146,o),
(922,1081,cs),
(940,1060,o),
(957,1047,o),
(972,1047,cs),
(985,1047,o),
(1001,1057,o),
(1001,1075,cs),
(1001,1088,o),
(994,1102,o),
(980,1119,cs),
(916,1193,o),
(824,1250,o),
(662,1250,cs),
(420,1250,o),
(153,1067,o),
(153,615,cs),
(153,164,o),
(410,-21,o),
(652,-21,cs)
);
}
);
width = 1238;
},
{
anchors = (
{
name = bottom;
pos = (634,-21);
},
{
name = top;
pos = (641,1238);
}
);
layerId = "8A001557-9052-48C4-99E5-0FAF857062F1";
shapes = (
{
closed = 1;
nodes = (
(878,-21,o),
(1067,142,o),
(1067,524,cs),
(1067,561,o),
(1047,581,o),
(1010,581,cs),
(672,581,ls),
(635,581,o),
(619,570,o),
(619,550,cs),
(619,530,o),
(635,520,o),
(672,520,cs),
(1002,520,l),
(994,172,o),
(845,42,o),
(634,42,cs),
(424,42,o),
(202,219,o),
(202,615,cs),
(202,1011,o),
(424,1187,o),
(644,1187,cs),
(779,1187,o),
(850,1146,o),
(904,1081,cs),
(922,1060,o),
(939,1047,o),
(954,1047,cs),
(967,1047,o),
(983,1057,o),
(983,1075,cs),
(983,1088,o),
(976,1102,o),
(962,1119,cs),
(898,1193,o),
(806,1250,o),
(644,1250,cs),
(402,1250,o),
(135,1067,o),
(135,615,cs),
(135,164,o),
(392,-21,o),
(634,-21,cs)
);
}
);
width = 1202;
},
{
anchors = (
{
name = bottom;
pos = (677,-21);
},
{
name = top;
pos = (664,1238);
}
);
layerId = "324E61BF-7061-45AA-9F81-5D4ECCAA9032";
shapes = (
{
closed = 1;
nodes = (
(963,-21,o),
(1203,164,o),
(1203,493,cs),
(1203,616,o),
(1149,682,o),
(1013,682,cs),
(764,682,ls),
(667,682,o),
(606,646,o),
(606,556,cs),
(606,466,o),
(671,429,o),
(768,429,cs),
(830,429,l),
(827,336,o),
(779,250,o),
(671,250,cs),
(541,250,o),
(429,326,o),
(429,615,cs),
(429,886,o),
(551,979,o),
(675,979,cs),
(737,979,o),
(791,926,o),
(825,890,cs),
(861,852,o),
(916,824,o),
(973,824,cs),
(1055,824,o),
(1135,888,o),
(1135,975,cs),
(1135,1028,o),
(1107,1085,o),
(1046,1135,cs),
(946,1218,o),
(815,1250,o),
(673,1250,cs),
(353,1250,o),
(48,1076,o),
(48,615,cs),
(48,152,o),
(327,-21,o),
(647,-21,cs)
);
}
);
width = 1251;
}
);
unicode = 71;
},
{
color = 6;
glyphname = H;
kernLeft = H;
kernRight = H;
lastChange = "2022-07-21 12:26:04 +0000";
layers = (
{
anchors = (
{
name = bottom;
pos = (617,0);
},
{
name = center;
pos = (608,952);
},
{
name = top;
pos = (617,1238);
},
{
name = topleft;
pos = (93,1238);
}
);
layerId = "5521DC30-183F-421A-91F3-644B5E24AFE6";
shapes = (
{
closed = 1;
nodes = (
(774,756,l),
(462,756,l),
(462,1038,ls),
(462,1174,o),
(395,1248,o),
(271,1248,cs),
(148,1248,o),
(81,1174,o),
(81,1038,cs),
(81,190,ls),
(81,54,o),
(148,-19,o),
(271,-19,cs),
(395,-19,o),
(462,54,o),
(462,190,cs),
(462,490,l),
(774,490,l),
(774,190,ls),
(774,54,o),
(841,-19,o),
(965,-19,cs),
(1089,-19,o),
(1155,54,o),
(1155,190,cs),
(1155,1038,ls),
(1155,1174,o),
(1089,1248,o),
(965,1248,cs),
(841,1248,o),
(774,1174,o),
(774,1038,cs)
);
}
);
width = 1238;
},
{
anchors = (
{
name = bottom;
pos = (614,0);
},
{
name = center;
pos = (614,952);
},
{
name = top;
pos = (614,1238);
},
{
name = topleft;
pos = (247,1238);
}
);
layerId = "BE68D89F-AB3F-4BDF-B332-ED50D7C47704";
shapes = (
{
closed = 1;
nodes = (
(964,676,l),
(270,676,l),
(270,1190,ls),
(270,1228,o),
(259,1248,o),
(239,1248,cs),
(219,1248,o),
(208,1228,o),
(208,1190,cs),
(208,48,ls),
(208,10,o),
(219,-10,o),
(239,-10,cs),
(259,-10,o),
(270,10,o),
(270,48,cs),
(270,615,l),
(964,615,l),
(964,48,ls),
(964,10,o),
(975,-10,o),
(995,-10,cs),
(1015,-10,o),
(1027,10,o),
(1027,48,cs),
(1027,1190,ls),
(1027,1228,o),
(1015,1248,o),
(995,1248,cs),
(975,1248,o),
(964,1228,o),
(964,1190,cs)
);
}
);
width = 1238;
},
{
anchors = (
{
name = bottom;
pos = (581,0);
},
{
name = center;
pos = (581,952);
},
{
name = top;
pos = (581,1238);
},
{
name = topleft;
pos = (214,1238);
}
);
layerId = "8A001557-9052-48C4-99E5-0FAF857062F1";
shapes = (
{
closed = 1;
nodes = (
(931,676,l),
(237,676,l),
(237,1190,ls),
(237,1228,o),
(226,1248,o),
(206,1248,cs),
(186,1248,o),
(175,1228,o),
(175,1190,cs),
(175,48,ls),
(175,10,o),
(186,-10,o),
(206,-10,cs),
(226,-10,o),
(237,10,o),
(237,48,cs),
(237,615,l),
(931,615,l),
(931,48,ls),
(931,10,o),
(942,-10,o),
(962,-10,cs),
(982,-10,o),
(994,10,o),
(994,48,cs),
(994,1190,ls),
(994,1228,o),
(982,1248,o),
(962,1248,cs),
(942,1248,o),
(931,1228,o),
(931,1190,cs)
);
}
);
width = 1169;
},
{
anchors = (
{
name = bottom;
pos = (614,0);
},
{
name = center;
pos = (605,952);
},
{
name = top;
pos = (614,1238);
},
{
name = topleft;
pos = (90,1238);
}
);
layerId = "324E61BF-7061-45AA-9F81-5D4ECCAA9032";
shapes = (
{
closed = 1;
nodes = (
(751,756,l),
(459,756,l),
(459,1038,ls),
(459,1174,o),
(392,1248,o),
(268,1248,cs),
(145,1248,o),
(78,1174,o),
(78,1038,cs),
(78,190,ls),
(78,54,o),
(145,-19,o),
(268,-19,cs),
(392,-19,o),
(459,54,o),
(459,190,cs),
(459,490,l),
(751,490,l),
(751,190,ls),
(751,54,o),
(818,-19,o),
(942,-19,cs),
(1066,-19,o),
(1132,54,o),
(1132,190,cs),
(1132,1038,ls),
(1132,1174,o),
(1066,1248,o),
(942,1248,cs),
(818,1248,o),
(751,1174,o),
(751,1038,cs)
);
}
);
width = 1210;
}
);
unicode = 72;
},
{
color = 3;
glyphname = Hbar;
kernLeft = H;
kernRight = H;
lastChange = "2022-07-21 12:26:04 +0000";
layers = (
{
layerId = "5521DC30-183F-421A-91F3-644B5E24AFE6";
shapes = (
{
ref = H;
},
{
closed = 1;
nodes = (
(-10,910,o),
(35,870,o),
(171,870,cs),
(1063,870,ls),
(1199,870,o),
(1243,910,o),
(1243,984,cs),
(1243,1057,o),
(1199,1097,o),
(1063,1097,cs),
(171,1097,ls),
(35,1097,o),
(-10,1057,o),
(-10,984,cs)
);
}
);
width = 1238;
},
{
layerId = "BE68D89F-AB3F-4BDF-B332-ED50D7C47704";
shapes = (
{
ref = H;
},
{
closed = 1;
nodes = (
(124,974,o),
(144,964,o),
(182,964,cs),
(1045,964,ls),
(1083,964,o),
(1103,975,o),
(1103,994,cs),
(1103,1013,o),
(1083,1025,o),
(1045,1025,cs),
(182,1025,ls),
(144,1025,o),
(124,1013,o),
(124,994,cs)
);
}
);
width = 1238;
},
{
layerId = "8A001557-9052-48C4-99E5-0FAF857062F1";
shapes = (
{
ref = H;
},
{
closed = 1;
nodes = (
(99,974,o),
(119,964,o),
(157,964,cs),
(1020,964,ls),
(1058,964,o),
(1078,975,o),
(1078,994,cs),
(1078,1013,o),
(1058,1025,o),
(1020,1025,cs),
(157,1025,ls),
(119,1025,o),
(99,1013,o),
(99,994,cs)
);
}
);
width = 1169;
},
{
layerId = "324E61BF-7061-45AA-9F81-5D4ECCAA9032";
shapes = (
{
ref = H;
},
{
closed = 1;
nodes = (
(-21,910,o),
(24,870,o),
(160,870,cs),
(1052,870,ls),
(1188,870,o),
(1232,910,o),
(1232,984,cs),
(1232,1057,o),
(1188,1097,o),
(1052,1097,cs),
(160,1097,ls),
(24,1097,o),
(-21,1057,o),
(-21,984,cs)
);
}
);
width = 1210;
}
);
unicode = 294;
},
{
color = 6;
glyphname = I;
kernLeft = I;
kernRight = I;
lastChange = "2022-07-21 12:26:04 +0000";
layers = (
{
anchors = (
{
name = bottom;
pos = (620,0);
},
{
name = ogonek;
pos = (882,0);
},
{
name = top;
pos = (620,1238);
},
{
name = topleft;
pos = (162,1238);
}
);
layerId = "5521DC30-183F-421A-91F3-644B5E24AFE6";
shapes = (
{
closed = 1;
nodes = (
(920,0,ls),
(1047,0,o),
(1110,47,o),
(1110,133,cs),
(1110,220,o),
(1047,267,o),
(920,267,cs),
(798,267,l),
(798,971,l),
(920,971,ls),
(1047,971,o),
(1110,1018,o),
(1110,1105,cs),
(1110,1191,o),
(1047,1238,o),
(920,1238,cs),
(314,1238,ls),
(188,1238,o),
(124,1191,o),
(124,1105,cs),
(124,1018,o),
(188,971,o),
(314,971,cs),
(436,971,l),
(436,267,l),
(314,267,ls),
(188,267,o),
(124,220,o),
(124,133,cs),
(124,47,o),
(188,0,o),
(314,0,cs)
);
}
);
width = 1238;
},
{
anchors = (
{
name = bottom;
pos = (617,0);
},
{
name = ogonek;
pos = (895,0);
},
{
name = top;
pos = (614,1238);
},
{
name = topleft;
pos = (280,1246);
}
);
layerId = "BE68D89F-AB3F-4BDF-B332-ED50D7C47704";
shapes = (
{
closed = 1;
nodes = (
(924,0,ls),
(961,0,o),
(977,11,o),
(977,30,cs),
(977,50,o),
(961,61,o),
(924,61,cs),
(646,61,l),
(646,1177,l),
(924,1177,ls),
(961,1177,o),
(977,1189,o),
(977,1208,cs),
(977,1227,o),
(961,1238,o),
(924,1238,cs),
(295,1238,ls),
(258,1238,o),
(242,1227,o),
(242,1208,cs),
(242,1189,o),
(258,1177,o),
(295,1177,cs),
(583,1177,l),
(583,61,l),
(295,61,ls),
(258,61,o),
(242,50,o),
(242,30,cs),
(242,11,o),
(258,0,o),
(295,0,cs)
);
}
);
width = 1238;
},
{
anchors = (
{
name = bottom;
pos = (470,0);
},
{
name = ogonek;
pos = (711,0);
},
{
name = top;
pos = (467,1238);
},
{
name = topleft;
pos = (133,1246);
}
);
layerId = "8A001557-9052-48C4-99E5-0FAF857062F1";
shapes = (
{
closed = 1;
nodes = (
(717,0,ls),
(754,0,o),
(770,11,o),
(770,30,cs),
(770,50,o),
(754,61,o),
(717,61,cs),
(499,61,l),
(499,1177,l),
(717,1177,ls),
(754,1177,o),
(770,1189,o),
(770,1208,cs),
(770,1227,o),
(754,1238,o),
(717,1238,cs),
(208,1238,ls),
(171,1238,o),
(155,1227,o),
(155,1208,cs),
(155,1189,o),
(171,1177,o),
(208,1177,cs),
(436,1177,l),
(436,61,l),
(208,61,ls),
(171,61,o),
(155,50,o),
(155,30,cs),
(155,11,o),
(171,0,o),
(208,0,cs)
);
}
);
width = 925;
},
{
anchors = (
{
name = bottom;
pos = (514,0);
},
{
name = ogonek;
pos = (776,0);
},
{
name = top;
pos = (514,1238);
},
{
name = topleft;
pos = (56,1238);
}
);
layerId = "324E61BF-7061-45AA-9F81-5D4ECCAA9032";
shapes = (
{
closed = 1;
nodes = (
(794,0,ls),
(901,0,o),
(964,47,o),
(964,133,cs),
(964,220,o),
(901,267,o),
(794,267,cs),
(692,267,l),
(692,971,l),
(794,971,ls),
(901,971,o),
(964,1018,o),
(964,1105,cs),
(964,1191,o),
(901,1238,o),
(794,1238,cs),
(228,1238,ls),
(122,1238,o),
(58,1191,o),
(58,1105,cs),
(58,1018,o),
(122,971,o),
(228,971,cs),
(330,971,l),
(330,267,l),
(228,267,ls),
(122,267,o),
(58,220,o),
(58,133,cs),
(58,47,o),
(122,0,o),
(228,0,cs)
);
}
);
width = 1022;
}
);
unicode = 73;
},
{
color = 6;
glyphname = I.ss01;
kernLeft = I.ss01;
kernRight = I.ss01;
lastChange = "2022-07-21 12:26:04 +0000";
layers = (
{
anchors = (
{
name = bottom;
pos = (613,0);
},
{
name = ogonek;
pos = (714,10);
},
{
name = top;
pos = (619,1238);
},
{
name = topleft;
pos = (432,1238);
}
);
layerId = "5521DC30-183F-421A-91F3-644B5E24AFE6";
shapes = (
{
closed = 1;
nodes = (
(728,-19,o),
(790,54,o),
(790,190,cs),
(790,1040,ls),
(790,1177,o),
(728,1250,o),
(611,1250,cs),
(495,1250,o),
(432,1177,o),
(432,1040,cs),
(432,190,ls),
(432,54,o),
(495,-19,o),
(611,-19,cs)
);
}
);
width = 1238;
},
{
anchors = (
{
name = bottom;
pos = (620,0);
},
{
name = ogonek;
pos = (644,10);
},
{
name = top;
pos = (638,1238);
},
{
name = topleft;
pos = (588,1239);
}
);
layerId = "BE68D89F-AB3F-4BDF-B332-ED50D7C47704";
shapes = (
{
closed = 1;
nodes = (
(639,-10,o),
(650,10,o),
(650,48,cs),
(650,1192,ls),
(650,1229,o),
(639,1249,o),
(619,1249,cs),
(599,1249,o),
(588,1229,o),
(588,1192,cs),
(588,48,ls),
(588,10,o),
(599,-10,o),
(619,-10,cs)
);
}
);
width = 1238;
},
{
anchors = (
{
name = bottom;
pos = (207,0);
},
{
name = ogonek;
pos = (231,10);
},
{
name = top;
pos = (225,1238);
},
{
name = topleft;
pos = (175,1239);
}
);
layerId = "8A001557-9052-48C4-99E5-0FAF857062F1";
shapes = (
{
closed = 1;
nodes = (
(226,-10,o),
(237,10,o),
(237,48,cs),
(237,1192,ls),
(237,1229,o),
(226,1249,o),
(206,1249,cs),
(186,1249,o),
(175,1229,o),
(175,1192,cs),
(175,48,ls),
(175,10,o),
(186,-10,o),
(206,-10,cs)
);
}
);
width = 412;
},
{
anchors = (
{
name = bottom;
pos = (259,0);
},
{
name = ogonek;
pos = (360,10);
},
{
name = top;
pos = (265,1238);
},
{
name = topleft;
pos = (78,1238);
}
);
layerId = "324E61BF-7061-45AA-9F81-5D4ECCAA9032";
shapes = (
{
closed = 1;
nodes = (
(374,-19,o),
(436,54,o),
(436,190,cs),
(436,1040,ls),
(436,1177,o),
(374,1250,o),
(257,1250,cs),
(141,1250,o),
(78,1177,o),
(78,1040,cs),
(78,190,ls),
(78,54,o),
(141,-19,o),
(257,-19,cs)
);
}
);
width = 514;
}
);
},
{
color = 6;
glyphname = J;
kernLeft = J;
kernRight = J;
lastChange = "2022-07-21 12:26:04 +0000";
layers = (
{
anchors = (
{
name = bottom;
pos = (657,0);
},
{
name = top;
pos = (895,1238);
}
);
layerId = "5521DC30-183F-421A-91F3-644B5E24AFE6";
shapes = (
{
closed = 1;
nodes = (
(867,-21,o),
(1086,103,o),
(1086,517,cs),
(1086,1029,ls),
(1086,1165,o),
(1019,1238,o),
(895,1238,cs),
(771,1238,o),
(705,1165,o),
(705,1029,cs),
(705,541,ls),
(705,310,o),
(662,246,o),
(567,246,cs),
(507,246,o),
(468,271,o),
(447,349,cs),
(413,474,o),
(364,541,o),
(238,541,cs),
(136,541,o),
(64,483,o),
(64,380,cs),
(64,99,o),
(289,-21,o),
(568,-21,cs)
);
}
);
width = 1238;
},
{
anchors = (
{
name = bottom;
pos = (638,0);
},
{
name = top;
pos = (870,1238);
}
);
layerId = "BE68D89F-AB3F-4BDF-B332-ED50D7C47704";
shapes = (
{
closed = 1;
nodes = (
(727,-21,o),
(892,137,o),
(892,493,cs),
(892,1181,ls),
(892,1218,o),
(881,1238,o),
(861,1238,cs),
(841,1238,o),
(830,1218,o),
(830,1181,cs),
(830,497,ls),
(830,202,o),
(710,42,o),
(485,42,cs),
(277,42,o),
(140,181,o),
(140,440,cs),
(140,477,o),
(127,497,o),
(107,497,cs),
(87,497,o),
(77,476,o),
(77,438,cs),
(77,120,o),
(258,-21,o),
(485,-21,cs)
);
}
);
width = 1238;
},
{
anchors = (
{
name = bottom;
pos = (526,0);
},
{
name = top;
pos = (758,1238);
}
);
layerId = "8A001557-9052-48C4-99E5-0FAF857062F1";
shapes = (
{
closed = 1;
nodes = (
(615,-21,o),
(780,97,o),
(780,493,cs),
(780,1181,ls),
(780,1218,o),
(769,1238,o),
(749,1238,cs),
(729,1238,o),
(718,1218,o),
(718,1181,cs),
(718,497,ls),
(718,162,o),
(598,42,o),
(433,42,cs),
(285,42,o),
(148,141,o),
(148,440,cs),
(148,477,o),
(135,497,o),
(115,497,cs),
(95,497,o),
(85,476,o),
(85,438,cs),
(85,80,o),
(266,-21,o),
(433,-21,cs)
);
}
);
width = 955;
},
{
anchors = (
{
name = bottom;
pos = (571,0);
},
{
name = top;
pos = (809,1238);
}
);
layerId = "324E61BF-7061-45AA-9F81-5D4ECCAA9032";
shapes = (
{
closed = 1;
nodes = (
(781,-21,o),
(1000,93,o),
(1000,507,cs),
(1000,1029,ls),
(1000,1165,o),
(933,1238,o),
(809,1238,cs),
(685,1238,o),
(619,1165,o),
(619,1029,cs),
(619,531,ls),
(619,300,o),
(576,246,o),
(521,246,cs),
(461,246,o),
(442,271,o),
(421,349,cs),
(387,474,o),
(338,541,o),
(212,541,cs),
(110,541,o),
(38,463,o),
(38,360,cs),
(38,99,o),
(263,-21,o),
(512,-21,cs)
);
}
);
width = 1068;
}
);
unicode = 74;
},
{
color = 6;
glyphname = K;
kernLeft = H;
kernRight = K;
lastChange = "2022-07-21 12:26:04 +0000";
layers = (
{
anchors = (
{
name = bottom;
pos = (582,0);
},
{
name = top;
pos = (581,1238);
}
);
layerId = "5521DC30-183F-421A-91F3-644B5E24AFE6";
shapes = (
{
closed = 1;
nodes = (
(415,-19,o),
(482,54,o),
(482,190,cs),
(482,483,l),
(738,118,ls),
(803,25,o),
(854,-19,o),
(962,-19,cs),
(1064,-19,o),
(1131,36,o),
(1131,119,cs),
(1131,172,o),
(1119,205,o),
(1082,253,cs),
(902,482,ls),
(833,570,o),
(794,613,o),
(777,626,c),
(794,638,o),
(834,679,o),
(894,753,cs),
(1083,985,ls),
(1118,1028,o),
(1134,1061,o),
(1134,1111,cs),
(1134,1196,o),
(1083,1248,o),
(977,1248,cs),
(868,1248,o),
(808,1192,o),
(739,1100,cs),
(482,755,l),
(482,1038,ls),
(482,1174,o),
(415,1248,o),
(291,1248,cs),
(168,1248,o),
(101,1174,o),
(101,1038,cs),
(101,190,ls),
(101,54,o),
(168,-19,o),
(291,-19,cs)
);
}
);
width = 1238;
},
{
anchors = (
{
name = bottom;
pos = (619,0);
},
{
name = top;
pos = (597,1238);
}
);
layerId = "BE68D89F-AB3F-4BDF-B332-ED50D7C47704";
shapes = (
{
closed = 1;
nodes = (
(352,-19,o),
(364,-4,o),
(364,33,cs),
(364,580,l),
(918,10,ls),
(938,-11,o),
(948,-19,o),
(964,-19,cs),
(985,-19,o),
(995,-9,o),
(995,5,cs),
(995,12,o),
(991,23,o),
(983,31,cs),
(466,563,ls),
(445,584,o),
(427,601,o),
(417,608,c),
(427,616,o),
(445,634,o),
(466,656,cs),
(983,1198,ls),
(990,1206,o),
(994,1215,o),
(994,1224,cs),
(994,1236,o),
(986,1248,o),
(968,1248,cs),
(950,1248,o),
(939,1239,o),
(919,1218,cs),
(364,641,l),
(364,1195,ls),
(364,1232,o),
(352,1248,o),
(332,1248,cs),
(312,1248,o),
(301,1232,o),
(301,1195,cs),
(301,33,ls),
(301,-4,o),
(312,-19,o),
(332,-19,cs)
);
}
);
width = 1238;
},
{
anchors = (
{
name = bottom;
pos = (503,0);
},
{
name = top;
pos = (481,1238);
}
);
layerId = "8A001557-9052-48C4-99E5-0FAF857062F1";
shapes = (
{
closed = 1;
nodes = (
(236,-19,o),
(248,-4,o),
(248,33,cs),
(248,580,l),
(802,10,ls),
(822,-11,o),
(832,-19,o),
(848,-19,cs),
(869,-19,o),
(879,-9,o),
(879,5,cs),
(879,12,o),
(875,23,o),
(867,31,cs),
(350,563,ls),
(329,584,o),
(311,601,o),
(301,608,c),
(311,616,o),
(329,634,o),
(350,656,cs),
(867,1198,ls),
(874,1206,o),
(878,1215,o),
(878,1224,cs),
(878,1236,o),
(870,1248,o),
(852,1248,cs),
(834,1248,o),
(823,1239,o),
(803,1218,cs),
(248,641,l),
(248,1195,ls),
(248,1232,o),
(236,1248,o),
(216,1248,cs),
(196,1248,o),
(185,1232,o),
(185,1195,cs),
(185,33,ls),
(185,-4,o),
(196,-19,o),
(216,-19,cs)
);
}
);
width = 1014;
},
{
anchors = (
{
name = bottom;
pos = (559,0);
},
{
name = top;
pos = (558,1238);
}
);
layerId = "324E61BF-7061-45AA-9F81-5D4ECCAA9032";
shapes = (
{
closed = 1;
nodes = (
(392,-19,o),
(459,54,o),
(459,190,cs),
(459,483,l),
(715,118,ls),
(780,25,o),
(831,-19,o),
(939,-19,cs),
(1041,-19,o),
(1108,36,o),
(1108,119,cs),
(1108,172,o),
(1096,205,o),
(1059,253,cs),
(879,482,ls),
(810,570,o),
(771,613,o),
(754,626,c),
(771,638,o),
(811,679,o),
(871,753,cs),
(1060,985,ls),
(1095,1028,o),
(1111,1061,o),
(1111,1111,cs),
(1111,1196,o),
(1060,1248,o),
(954,1248,cs),
(845,1248,o),
(785,1192,o),
(716,1100,cs),
(459,755,l),
(459,1038,ls),
(459,1174,o),
(392,1248,o),
(268,1248,cs),
(145,1248,o),
(78,1174,o),
(78,1038,cs),
(78,190,ls),
(78,54,o),
(145,-19,o),
(268,-19,cs)
);
}
);
width = 1159;
}
);
unicode = 75;
},
{
color = 6;
glyphname = L;
kernLeft = H;
kernRight = L;
lastChange = "2022-07-21 12:26:04 +0000";
layers = (
{
anchors = (
{
name = bottom;
pos = (697,0);
},
{
name = center;
pos = (440,676);
},
{
name = top;
pos = (434,1238);
},
{
name = topright;
pos = (749,952);
}
);
layerId = "5521DC30-183F-421A-91F3-644B5E24AFE6";
shapes = (
{
closed = 1;
nodes = (
(624,1038,ls),
(624,1174,o),
(558,1248,o),
(434,1248,cs),
(310,1248,o),
(243,1174,o),
(243,1038,cs),
(243,210,ls),
(243,73,o),
(317,0,o),
(453,0,cs),
(900,0,ls),
(1036,0,o),
(1110,47,o),
(1110,133,cs),
(1110,220,o),
(1036,267,o),
(900,267,cs),
(624,267,l)
);
}
);
width = 1238;
},
{
anchors = (
{
name = bottom;
pos = (700,0);
},
{
name = center;
pos = (387,634);
},
{
name = top;
pos = (370,1238);
},
{
name = topright;
pos = (697,952);
}
);
layerId = "BE68D89F-AB3F-4BDF-B332-ED50D7C47704";
shapes = (
{
closed = 1;
nodes = (
(402,1190,ls),
(402,1228,o),
(390,1248,o),
(370,1248,cs),
(350,1248,o),
(339,1228,o),
(339,1190,cs),
(339,57,ls),
(339,20,o),
(359,0,o),
(396,0,cs),
(994,0,ls),
(1031,0,o),
(1051,11,o),
(1051,30,cs),
(1051,50,o),
(1031,61,o),
(994,61,cs),
(402,61,l)
);
}
);
width = 1238;
},
{
anchors = (
{
name = bottom;
pos = (506,0);
},
{
name = center;
pos = (193,634);
},
{
name = top;
pos = (176,1238);
},
{
name = topright;
pos = (503,952);
}
);
layerId = "8A001557-9052-48C4-99E5-0FAF857062F1";
shapes = (
{
closed = 1;
nodes = (
(208,1190,ls),
(208,1228,o),
(196,1248,o),
(176,1248,cs),
(156,1248,o),
(145,1228,o),
(145,1190,cs),
(145,57,ls),
(145,20,o),
(165,0,o),
(202,0,cs),
(800,0,ls),
(837,0,o),
(857,11,o),
(857,30,cs),
(857,50,o),
(837,61,o),
(800,61,cs),
(208,61,l)
);
}
);
width = 912;
},
{
anchors = (
{
name = bottom;
pos = (522,0);
},
{
name = center;
pos = (265,676);
},
{
name = top;
pos = (259,1238);
},
{
name = topright;
pos = (574,952);
}
);
layerId = "324E61BF-7061-45AA-9F81-5D4ECCAA9032";
shapes = (
{
closed = 1;
nodes = (
(449,1038,ls),
(449,1174,o),
(383,1248,o),
(259,1248,cs),
(135,1248,o),
(68,1174,o),
(68,1038,cs),
(68,210,ls),
(68,73,o),
(142,0,o),
(278,0,cs),
(725,0,ls),
(841,0,o),
(915,47,o),
(915,133,cs),
(915,220,o),
(841,267,o),
(725,267,cs),
(449,267,l)
);
}
);
width = 953;
}
);
unicode = 76;
},
{
color = 3;
glyphname = Ldot;
lastChange = "2022-07-21 12:26:04 +0000";
layers = (
{
layerId = "BE68D89F-AB3F-4BDF-B332-ED50D7C47704";
shapes = (
{
closed = 1;
nodes = (
(1062,566,o),
(1100,604,o),
(1100,651,cs),
(1100,699,o),
(1062,737,o),
(1014,737,cs),
(967,737,o),
(929,699,o),
(929,651,cs),
(929,604,o),
(967,566,o),
(1014,566,cs)
);
},
{
ref = L;
}
);
width = 1238;
},
{
layerId = "5521DC30-183F-421A-91F3-644B5E24AFE6";
shapes = (
{
closed = 1;
nodes = (
(1181,488,o),
(1261,568,o),
(1261,670,cs),
(1261,773,o),
(1181,853,o),
(1080,853,cs),
(979,853,o),
(899,773,o),
(899,670,cs),
(899,568,o),
(979,488,o),
(1080,488,cs)
);
},
{
ref = L;
}
);
width = 1238;
},
{
layerId = "8A001557-9052-48C4-99E5-0FAF857062F1";
shapes = (
{
closed = 1;
nodes = (
(1087,566,o),
(1125,604,o),
(1125,651,cs),
(1125,699,o),
(1087,737,o),
(1039,737,cs),
(992,737,o),
(954,699,o),
(954,651,cs),
(954,604,o),
(992,566,o),
(1039,566,cs)
);
},
{
ref = L;
}
);
width = 1288;
},
{
layerId = "324E61BF-7061-45AA-9F81-5D4ECCAA9032";
shapes = (
{
closed = 1;
nodes = (
(1189,488,o),
(1269,568,o),
(1269,670,cs),
(1269,773,o),
(1189,853,o),
(1088,853,cs),
(987,853,o),
(907,773,o),
(907,670,cs),
(907,568,o),
(987,488,o),
(1088,488,cs)
);
},
{
ref = L;
}
);
width = 1254;
}
);
unicode = 319;
},
{
color = 3;
glyphname = Lslash;
kernLeft = H;
kernRight = L;
lastChange = "2022-07-21 12:26:04 +0000";
layers = (
{
layerId = "5521DC30-183F-421A-91F3-644B5E24AFE6";
shapes = (
{
closed = 1;
nodes = (
(269,315,o),
(319,335,o),
(376,376,cs),
(736,632,ls),
(812,686,o),
(850,742,o),
(850,795,cs),
(850,859,o),
(795,923,o),
(724,923,cs),
(680,923,o),
(630,903,o),
(572,862,cs),
(213,606,ls),
(137,552,o),
(99,495,o),
(99,442,cs),
(99,379,o),
(153,315,o),
(225,315,cs)
);
},
{
ref = L;
}
);
width = 1238;
},
{
layerId = "BE68D89F-AB3F-4BDF-B332-ED50D7C47704";
shapes = (
{
closed = 1;
nodes = (
(215,349,o),
(231,356,o),
(249,374,cs),
(543,669,ls),
(560,686,o),
(569,701,o),
(569,713,cs),
(569,728,o),
(558,738,o),
(545,738,cs),
(532,738,o),
(516,729,o),
(499,711,cs),
(206,417,ls),
(189,400,o),
(180,385,o),
(180,372,cs),
(180,359,o),
(190,349,o),
(203,349,cs)
);
},
{
ref = L;
}
);
width = 1238;
},
{
layerId = "8A001557-9052-48C4-99E5-0FAF857062F1";
shapes = (
{
closed = 1;
nodes = (
(240,349,o),
(256,356,o),
(274,374,cs),
(568,669,ls),
(585,686,o),
(594,701,o),
(594,713,cs),
(594,728,o),
(583,738,o),
(570,738,cs),
(557,738,o),
(541,729,o),
(524,711,cs),
(231,417,ls),
(214,400,o),
(205,385,o),
(205,372,cs),
(205,359,o),
(215,349,o),
(228,349,cs)
);
},
{
ref = L;
}
);
width = 1288;
},
{
layerId = "324E61BF-7061-45AA-9F81-5D4ECCAA9032";
shapes = (
{
closed = 1;
nodes = (
(277,315,o),
(327,335,o),
(384,376,cs),
(744,632,ls),
(820,686,o),
(858,742,o),
(858,795,cs),
(858,859,o),
(803,923,o),
(732,923,cs),
(688,923,o),
(638,903,o),
(580,862,cs),
(221,606,ls),
(145,552,o),
(107,495,o),
(107,442,cs),
(107,379,o),
(161,315,o),
(233,315,cs)
);
},
{
ref = L;
}
);
width = 1254;
}
);
unicode = 321;
},
{
color = 6;
glyphname = M;
kernLeft = M;
kernRight = M;
lastChange = "2022-07-21 12:26:04 +0000";
layers = (
{
anchors = (
{
name = bottom;
pos = (619,0);
},
{
name = top;
pos = (619,1238);
}
);
layerId = "5521DC30-183F-421A-91F3-644B5E24AFE6";
shapes = (
{
closed = 1;
nodes = (
(343,-10,o),
(395,62,o),
(395,198,cs),
(395,773,l),
(470,390,ls),
(495,260,o),
(525,203,o),
(616,203,cs),
(708,203,o),
(739,260,o),
(763,390,cs),
(834,769,l),
(834,198,ls),
(834,62,o),
(898,-10,o),
(1022,-10,cs),
(1133,-10,o),
(1199,55,o),
(1199,173,cs),
(1199,251,o),
(1150,941,o),
(1139,1055,cs),
(1126,1189,o),
(1036,1257,o),
(904,1257,cs),
(893,1257,ls),
(763,1257,o),
(682,1191,o),
(663,1061,cs),
(616,737,l),
(571,1061,ls),
(553,1191,o),
(471,1257,o),
(341,1257,cs),
(329,1257,ls),
(196,1257,o),
(105,1189,o),
(93,1055,cs),
(83,941,o),
(33,269,o),
(33,173,cs),
(33,55,o),
(108,-10,o),
(219,-10,cs)
);
}
);
width = 1238;
},
{
anchors = (
{
name = bottom;
pos = (629,0);
},
{
name = top;
pos = (629,1238);
}
);
layerId = "BE68D89F-AB3F-4BDF-B332-ED50D7C47704";
shapes = (
{
closed = 1;
nodes = (
(169,-10,o),
(177,5,o),
(181,40,cs),
(317,1172,l),
(574,356,ls),
(584,325,o),
(602,307,o),
(630,307,cs),
(657,307,o),
(675,325,o),
(685,356,cs),
(946,1164,l),
(1078,40,ls),
(1082,5,o),
(1092,-10,o),
(1114,-10,cs),
(1133,-10,o),
(1142,4,o),
(1142,34,cs),
(1142,65,o),
(1013,1134,o),
(1004,1203,cs),
(999,1238,o),
(983,1257,o),
(950,1257,cs),
(949,1257,ls),
(916,1257,o),
(897,1242,o),
(887,1209,cs),
(630,388,l),
(372,1209,ls),
(362,1241,o),
(344,1257,o),
(312,1257,cs),
(311,1257,ls),
(277,1257,o),
(260,1240,o),
(255,1203,cs),
(246,1134,o),
(117,75,o),
(117,34,cs),
(117,4,o),
(129,-10,o),
(148,-10,cs)
);
}
);
width = 1238;
},
{
anchors = (
{
name = bottom;
pos = (624,0);
},
{
name = top;
pos = (624,1238);
}
);
associatedMasterId = "BE68D89F-AB3F-4BDF-B332-ED50D7C47704";
attr = {
coordinates = (
500,
1
);
};
layerId = "1C91F966-6A21-47CE-942E-9D1D0A5D64E5";
name = "{500}";
shapes = (
{
closed = 1;
nodes = (
(256,-10,o),
(286,33,o),
(293,119,cs),
(351,850,l),
(494,211,ls),
(512,130,o),
(564,93,o),
(624,93,cs),
(683,93,o),
(735,130,o),
(753,211,cs),
(897,847,l),
(952,119,ls),
(959,33,o),
(996,-10,o),
(1069,-10,cs),
(1134,-10,o),
(1171,30,o),
(1171,104,cs),
(1171,182,o),
(1070,1038,o),
(1058,1130,cs),
(1047,1213,o),
(996,1257,o),
(914,1257,cs),
(908,1257,ls),
(826,1257,o),
(777,1216,o),
(761,1135,cs),
(624,455,l),
(487,1135,ls),
(471,1215,o),
(422,1257,o),
(340,1257,cs),
(334,1257,ls),
(251,1257,o),
(201,1214,o),
(190,1130,cs),
(178,1038,o),
(76,196,o),
(76,104,cs),
(76,30,o),
(119,-10,o),
(184,-10,cs)
);
}
);
width = 1238;
},
{
anchors = (
{
name = bottom;
pos = (697,0);
},
{
name = top;
pos = (697,1238);
}
);
layerId = "8A001557-9052-48C4-99E5-0FAF857062F1";
shapes = (
{
closed = 1;
nodes = (
(237,-10,o),
(249,5,o),
(249,40,cs),
(249,1178,l),
(642,316,ls),
(656,285,o),
(670,267,o),
(698,267,cs),
(725,267,o),
(739,285,o),
(753,316,cs),
(1146,1164,l),
(1146,40,ls),
(1146,5,o),
(1160,-10,o),
(1182,-10,cs),
(1201,-10,o),
(1210,4,o),
(1210,34,cs),
(1210,102,o),
(1210,1152,o),
(1210,1203,cs),
(1210,1238,o),
(1190,1257,o),
(1157,1257,cs),
(1156,1257,ls),
(1123,1257,o),
(1107,1241,o),
(1093,1209,cs),
(698,340,l),
(302,1209,ls),
(288,1240,o),
(272,1257,o),
(240,1257,cs),
(239,1257,ls),
(205,1257,o),
(185,1240,o),
(185,1203,cs),
(185,1152,o),
(185,102,o),
(185,34,cs),
(185,4,o),
(197,-10,o),
(216,-10,cs)
);
}
);
width = 1395;
},
{
anchors = (
{
name = bottom;
pos = (679,0);
},
{
name = top;
pos = (679,1238);
}
);
associatedMasterId = "8A001557-9052-48C4-99E5-0FAF857062F1";
attr = {
coordinates = (
500,
0
);
};
layerId = "EB57ACAF-99DD-40C1-97DF-280875CC7AB5";
name = "{500}";
shapes = (
{
closed = 1;
nodes = (
(291,-10,o),
(323,34,o),
(323,119,cs),
(323,843,l),
(557,308,ls),
(591,231,o),
(610,190,o),
(678,190,cs),
(746,190,o),
(765,231,o),
(799,308,cs),
(1031,836,l),
(1031,119,ls),
(1031,34,o),
(1070,-10,o),
(1143,-10,cs),
(1208,-10,o),
(1246,30,o),
(1246,104,cs),
(1246,190,o),
(1246,995,o),
(1246,1094,cs),
(1246,1199,o),
(1179,1257,o),
(1097,1257,cs),
(1091,1257,ls),
(1009,1257,o),
(953,1198,o),
(919,1120,cs),
(678,568,l),
(438,1120,ls),
(404,1198,o),
(348,1257,o),
(267,1257,cs),
(260,1257,ls),
(177,1257,o),
(110,1200,o),
(110,1094,cs),
(110,995,o),
(110,190,o),
(110,104,cs),
(110,30,o),
(154,-10,o),
(219,-10,cs)
);
}
);
width = 1356;
},
{
anchors = (
{
name = bottom;
pos = (724,0);
},
{
name = top;
pos = (724,1238);
}
);
layerId = "324E61BF-7061-45AA-9F81-5D4ECCAA9032";
shapes = (
{
closed = 1;
nodes = (
(388,-10,o),
(440,62,o),
(440,198,cs),
(440,668,l),
(555,320,ls),
(597,194,o),
(630,133,o),
(721,133,cs),
(813,133,o),
(847,194,o),
(888,320,cs),
(999,663,l),
(999,198,ls),
(999,62,o),
(1063,-10,o),
(1187,-10,cs),
(1298,-10,o),
(1364,55,o),
(1364,173,cs),
(1364,295,o),
(1364,866,o),
(1364,1005,cs),
(1364,1180,o),
(1241,1257,o),
(1109,1257,cs),
(1098,1257,ls),
(968,1257,o),
(865,1154,o),
(828,1021,cs),
(721,639,l),
(616,1021,ls),
(581,1149,o),
(476,1257,o),
(346,1257,cs),
(334,1257,ls),
(201,1257,o),
(78,1180,o),
(78,1005,cs),
(78,866,o),
(78,295,o),
(78,173,cs),
(78,55,o),
(153,-10,o),
(264,-10,cs)
);
}
);
width = 1442;
}
);
unicode = 77;
},
{
color = 6;
glyphname = M.ss04;
kernLeft = M;
kernRight = M;
lastChange = "2022-07-21 12:26:04 +0000";
layers = (
{
anchors = (
{
name = bottom;
pos = (619,0);
},
{
name = top;
pos = (619,1238);
}
);
layerId = "5521DC30-183F-421A-91F3-644B5E24AFE6";
shapes = (
{
closed = 1;
nodes = (
(343,-10,o),
(395,62,o),
(395,198,cs),
(395,874,l),
(355,874,l),
(470,320,ls),
(497,190,o),
(525,133,o),
(616,133,cs),
(708,133,o),
(737,190,o),
(763,320,cs),
(874,875,l),
(834,875,l),
(834,198,ls),
(834,62,o),
(898,-10,o),
(1022,-10,cs),
(1133,-10,o),
(1199,55,o),
(1199,173,c),
(1199,1026,l),
(1199,1160,o),
(1103,1257,o),
(970,1257,cs),
(942,1257,ls),
(811,1257,o),
(726,1191,o),
(701,1061,cs),
(593,508,l),
(638,508,l),
(533,1061,ls),
(508,1191,o),
(420,1257,o),
(290,1257,cs),
(262,1257,ls),
(130,1257,o),
(33,1160,o),
(33,1026,c),
(33,173,l),
(33,55,o),
(108,-10,o),
(219,-10,cs)
);
}
);
width = 1238;
},
{
anchors = (
{
name = bottom;
pos = (619,0);
},
{
name = top;
pos = (619,1238);
}
);
layerId = "BE68D89F-AB3F-4BDF-B332-ED50D7C47704";
shapes = (
{
closed = 1;
nodes = (
(179,-10,o),
(191,5,o),
(191,40,cs),
(191,1202,l),
(182,1202,l),
(566,275,ls),
(579,244,o),
(593,227,o),
(621,227,cs),
(649,227,o),
(663,244,o),
(676,275,cs),
(1069,1203,l),
(1050,1203,l),
(1050,40,ls),
(1050,5,o),
(1065,-10,o),
(1087,-10,cs),
(1106,-10,o),
(1114,4,o),
(1114,34,c),
(1114,1203,l),
(1114,1238,o),
(1094,1257,o),
(1062,1257,cs),
(1061,1257,ls),
(1028,1257,o),
(1010,1241,o),
(997,1209,cs),
(613,283,l),
(629,283,l),
(247,1209,ls),
(233,1240,o),
(218,1257,o),
(186,1257,cs),
(185,1257,ls),
(151,1257,o),
(128,1240,o),
(128,1203,c),
(128,34,l),
(128,4,o),
(139,-10,o),
(158,-10,cs)
);
}
);
width = 1238;
},
{
anchors = (
{
name = bottom;
pos = (624,0);
},
{
name = top;
pos = (624,1238);
}
);
associatedMasterId = "BE68D89F-AB3F-4BDF-B332-ED50D7C47704";
attr = {
coordinates = (
500,
1
);
};
layerId = "7E9FDAEC-8B6A-4F61-B095-E059BC5DFB60";
name = "{500}";
shapes = (
{
closed = 1;
nodes = (
(261,-10,o),
(293,33,o),
(293,119,cs),
(293,1038,l),
(240,1038,l),
(499,203,ls),
(523,124,o),
(559,85,o),
(619,85,cs),
(678,85,o),
(714,124,o),
(739,203,cs),
(1000,1039,l),
(943,1039,l),
(943,119,ls),
(943,33,o),
(982,-10,o),
(1054,-10,cs),
(1120,-10,o),
(1157,30,o),
(1157,104,c),
(1157,1114,l),
(1157,1199,o),
(1089,1257,o),
(1006,1257,cs),
(1002,1257,ls),
(920,1257,o),
(854,1214,o),
(830,1135,cs),
(604,395,l),
(633,395,l),
(410,1135,ls),
(386,1214,o),
(319,1257,o),
(238,1257,cs),
(234,1257,ls),
(151,1257,o),
(81,1200,o),
(81,1114,c),
(81,104,l),
(81,30,o),
(124,-10,o),
(189,-10,cs)
);
}
);
width = 1238;
},
{
anchors = (
{
name = bottom;
pos = (566,0);
},
{
name = top;
pos = (566,1238);
}
);
layerId = "8A001557-9052-48C4-99E5-0FAF857062F1";
shapes = (
{
closed = 1;
nodes = (
(126,-10,o),
(138,5,o),
(138,40,cs),
(138,1202,l),
(129,1202,l),
(513,275,ls),
(526,244,o),
(540,227,o),
(568,227,cs),
(596,227,o),
(610,244,o),
(623,275,cs),
(1016,1203,l),
(997,1203,l),
(997,40,ls),
(997,5,o),
(1012,-10,o),
(1034,-10,cs),
(1053,-10,o),
(1061,4,o),
(1061,34,c),
(1061,1203,l),
(1061,1238,o),
(1041,1257,o),
(1009,1257,cs),
(1008,1257,ls),
(975,1257,o),
(957,1241,o),
(944,1209,cs),
(560,283,l),
(576,283,l),
(194,1209,ls),
(180,1240,o),
(165,1257,o),
(133,1257,cs),
(132,1257,ls),
(98,1257,o),
(75,1240,o),
(75,1203,c),
(75,34,l),
(75,4,o),
(86,-10,o),
(105,-10,cs)
);
}
);
width = 1136;
},
{
anchors = (
{
name = bottom;
pos = (624,0);
},
{
name = top;
pos = (624,1238);
}
);
associatedMasterId = "8A001557-9052-48C4-99E5-0FAF857062F1";
attr = {
coordinates = (
500,
0
);
};
layerId = "D014DA92-EEDC-466A-AE6C-E150DF4DF2F8";
name = "{500}";
shapes = (
{
closed = 1;
nodes = (
(261,-10,o),
(293,33,o),
(293,119,cs),
(293,1038,l),
(240,1038,l),
(499,203,ls),
(523,124,o),
(559,85,o),
(619,85,cs),
(678,85,o),
(714,124,o),
(739,203,cs),
(1000,1039,l),
(943,1039,l),
(943,119,ls),
(943,33,o),
(982,-10,o),
(1054,-10,cs),
(1120,-10,o),
(1157,30,o),
(1157,104,c),
(1157,1114,l),
(1157,1199,o),
(1089,1257,o),
(1006,1257,cs),
(1002,1257,ls),
(920,1257,o),
(854,1214,o),
(830,1135,cs),
(604,395,l),
(633,395,l),
(410,1135,ls),
(386,1214,o),
(319,1257,o),
(238,1257,cs),
(234,1257,ls),
(151,1257,o),
(81,1200,o),
(81,1114,c),
(81,104,l),
(81,30,o),
(124,-10,o),
(189,-10,cs)
);
}
);
width = 1238;
},
{
anchors = (
{
name = bottom;
pos = (614,0);
},
{
name = top;
pos = (614,1238);
}
);
layerId = "324E61BF-7061-45AA-9F81-5D4ECCAA9032";
shapes = (
{
closed = 1;
nodes = (
(338,-10,o),
(390,62,o),
(390,198,cs),
(390,874,l),
(350,874,l),
(465,320,ls),
(492,190,o),
(520,133,o),
(611,133,cs),
(703,133,o),
(732,190,o),
(758,320,cs),
(869,875,l),
(829,875,l),
(829,198,ls),
(829,62,o),
(893,-10,o),
(1017,-10,cs),
(1128,-10,o),
(1194,55,o),
(1194,173,c),
(1194,1026,l),
(1194,1160,o),
(1098,1257,o),
(965,1257,cs),
(937,1257,ls),
(806,1257,o),
(721,1191,o),
(696,1061,cs),
(588,508,l),
(633,508,l),
(528,1061,ls),
(503,1191,o),
(415,1257,o),
(285,1257,cs),
(257,1257,ls),
(125,1257,o),
(28,1160,o),
(28,1026,c),
(28,173,l),
(28,55,o),
(103,-10,o),
(214,-10,cs)
);
}
);
width = 1222;
}
);
},
{
color = 6;
glyphname = N;
kernLeft = H;
kernRight = H;
lastChange = "2022-07-21 12:26:04 +0000";
layers = (
{
anchors = (
{
name = bottom;
pos = (614,0);
},
{
name = top;
pos = (612,1238);
}
);
layerId = "5521DC30-183F-421A-91F3-644B5E24AFE6";
shapes = (
{
closed = 1;
nodes = (
(384,0,o),
(436,73,o),
(436,210,cs),
(436,766,l),
(640,185,ls),
(683,63,o),
(782,0,o),
(909,0,cs),
(911,0,ls),
(1047,0,o),
(1130,73,o),
(1130,210,cs),
(1130,1029,ls),
(1130,1165,o),
(1064,1238,o),
(960,1238,cs),
(846,1238,o),
(789,1165,o),
(789,1029,cs),
(789,558,l),
(631,1053,ls),
(592,1176,o),
(479,1238,o),
(352,1238,cs),
(343,1238,ls),
(207,1238,o),
(103,1155,o),
(103,1009,cs),
(103,210,ls),
(103,73,o),
(156,0,o),
(270,0,cs)
);
}
);
width = 1238;
},
{
anchors = (
{
name = bottom;
pos = (615,0);
},
{
name = top;
pos = (612,1238);
}
);
layerId = "BE68D89F-AB3F-4BDF-B332-ED50D7C47704";
shapes = (
{
closed = 1;
nodes = (
(242,-19,o),
(253,-4,o),
(253,33,cs),
(253,1146,l),
(939,21,ls),
(956,-7,o),
(967,-19,o),
(993,-19,cs),
(995,-19,ls),
(1029,-19,o),
(1038,2,o),
(1038,38,cs),
(1038,1195,ls),
(1038,1232,o),
(1027,1248,o),
(1007,1248,cs),
(987,1248,o),
(975,1232,o),
(975,1195,cs),
(975,90,l),
(290,1208,ls),
(273,1235,o),
(262,1248,o),
(236,1248,cs),
(235,1248,ls),
(202,1248,o),
(190,1227,o),
(190,1190,cs),
(190,33,ls),
(190,-4,o),
(202,-19,o),
(222,-19,cs)
);
}
);
width = 1238;
},
{
anchors = (
{
name = bottom;
pos = (620,0);
},
{
name = top;
pos = (617,1238);
}
);
associatedMasterId = "BE68D89F-AB3F-4BDF-B332-ED50D7C47704";
attr = {
coordinates = (
500,
1
);
};
layerId = "B50747A9-A0AD-4DD3-990A-FF776ED8EE76";
name = "{500}";
shapes = (
{
closed = 1;
nodes = (
(321,-10,o),
(355,35,o),
(355,122,cs),
(355,901,l),
(775,103,ls),
(812,32,o),
(864,-10,o),
(941,-10,cs),
(948,-10,ls),
(1033,-10,o),
(1094,38,o),
(1094,124,cs),
(1094,1112,ls),
(1094,1199,o),
(1055,1243,o),
(988,1243,cs),
(916,1243,o),
(882,1199,o),
(882,1112,cs),
(882,331,l),
(465,1130,ls),
(428,1202,o),
(371,1243,o),
(295,1243,cs),
(289,1243,ls),
(204,1243,o),
(143,1196,o),
(143,1110,cs),
(143,122,ls),
(143,35,o),
(177,-10,o),
(249,-10,cs)
);
}
);
width = 1238;
},
{
anchors = (
{
name = bottom;
pos = (600,0);
},
{
name = top;
pos = (597,1238);
}
);
layerId = "8A001557-9052-48C4-99E5-0FAF857062F1";
shapes = (
{
closed = 1;
nodes = (
(227,-19,o),
(238,-4,o),
(238,33,cs),
(238,1146,l),
(924,21,ls),
(941,-7,o),
(952,-19,o),
(978,-19,cs),
(980,-19,ls),
(1014,-19,o),
(1023,2,o),
(1023,38,cs),
(1023,1195,ls),
(1023,1232,o),
(1012,1248,o),
(992,1248,cs),
(972,1248,o),
(960,1232,o),
(960,1195,cs),
(960,90,l),
(275,1208,ls),
(258,1235,o),
(247,1248,o),
(221,1248,cs),
(220,1248,ls),
(187,1248,o),
(175,1227,o),
(175,1190,cs),
(175,33,ls),
(175,-4,o),
(187,-19,o),
(207,-19,cs)
);
}
);
width = 1198;
},
{
anchors = (
{
name = bottom;
pos = (573,0);
},
{
name = top;
pos = (571,1238);
}
);
associatedMasterId = "8A001557-9052-48C4-99E5-0FAF857062F1";
attr = {
coordinates = (
500,
0
);
};
layerId = "B536951D-BBB3-4C40-8819-EBA021328024";
name = "{500}";
shapes = (
{
closed = 1;
nodes = (
(272,-9,o),
(303,35,o),
(303,122,cs),
(303,930,l),
(748,103,ls),
(787,31,o),
(833,-9,o),
(910,-9,cs),
(912,-9,ls),
(997,-9,o),
(1043,38,o),
(1043,124,cs),
(1043,1112,ls),
(1043,1199,o),
(1004,1243,o),
(942,1243,cs),
(875,1243,o),
(841,1199,o),
(841,1112,cs),
(841,332,l),
(419,1131,ls),
(381,1203,o),
(329,1243,o),
(253,1243,cs),
(248,1243,ls),
(163,1243,o),
(105,1196,o),
(105,1110,cs),
(105,122,ls),
(105,35,o),
(138,-9,o),
(205,-9,cs)
);
}
);
width = 1148;
},
{
anchors = (
{
name = bottom;
pos = (599,0);
},
{
name = top;
pos = (597,1238);
}
);
layerId = "324E61BF-7061-45AA-9F81-5D4ECCAA9032";
shapes = (
{
closed = 1;
nodes = (
(359,0,o),
(411,73,o),
(411,210,cs),
(411,740,l),
(635,185,ls),
(683,65,o),
(778,0,o),
(905,0,cs),
(907,0,ls),
(1043,0,o),
(1135,73,o),
(1135,210,cs),
(1135,1029,ls),
(1135,1165,o),
(1069,1238,o),
(965,1238,cs),
(851,1238,o),
(794,1165,o),
(794,1029,cs),
(794,530,l),
(606,1043,ls),
(562,1164,o),
(464,1238,o),
(337,1238,cs),
(328,1238,ls),
(192,1238,o),
(78,1145,o),
(78,1009,cs),
(78,210,ls),
(78,73,o),
(131,0,o),
(245,0,cs)
);
}
);
width = 1213;
}
);
unicode = 78;
},
{
color = 6;
glyphname = Eng;
kernLeft = Eng;
kernRight = Eng;
lastChange = "2022-07-21 12:26:04 +0000";
layers = (
{
layerId = "5521DC30-183F-421A-91F3-644B5E24AFE6";
shapes = (
{
closed = 1;
nodes = (
(775,659,l),
(541,1100,ls),
(486,1203,o),
(439,1250,o),
(322,1250,cs),
(317,1250,ls),
(203,1250,o),
(114,1176,o),
(114,1040,cs),
(114,210,ls),
(114,73,o),
(177,0,o),
(292,0,cs),
(407,0,o),
(470,73,o),
(470,210,cs),
(470,590,l),
(828,0,l),
(828,-38,o),
(788,-82,o),
(695,-82,cs),
(672,-82,o),
(651,-80,o),
(631,-78,cs),
(613,-76,o),
(596,-75,o),
(579,-75,cs),
(502,-75,o),
(458,-138,o),
(458,-215,cs),
(458,-281,o),
(491,-320,o),
(541,-341,cs),
(586,-360,o),
(645,-366,o),
(708,-366,cs),
(929,-366,o),
(1131,-274,o),
(1131,-25,cs),
(1131,1040,ls),
(1131,1176,o),
(1068,1250,o),
(953,1250,cs),
(838,1250,o),
(775,1176,o),
(775,1040,cs)
);
}
);
width = 1238;
},
{
layerId = "BE68D89F-AB3F-4BDF-B332-ED50D7C47704";
shapes = (
{
closed = 1;
nodes = (
(962,141,l),
(339,1210,ls),
(323,1237,o),
(314,1251,o),
(285,1251,cs),
(283,1251,ls),
(249,1251,o),
(231,1230,o),
(231,1194,cs),
(231,33,ls),
(231,-4,o),
(243,-19,o),
(263,-19,cs),
(283,-19,o),
(294,-4,o),
(294,33,cs),
(294,1160,l),
(962,0,l),
(962,-259,o),
(854,-303,o),
(686,-303,cs),
(636,-303,o),
(578,-295,o),
(535,-288,cs),
(523,-286,o),
(514,-285,o),
(505,-285,cs),
(485,-285,o),
(469,-296,o),
(469,-315,cs),
(469,-334,o),
(478,-344,o),
(510,-351,cs),
(558,-362,o),
(633,-366,o),
(700,-366,cs),
(920,-366,o),
(1025,-238,o),
(1025,-13,cs),
(1025,1200,ls),
(1025,1237,o),
(1014,1251,o),
(994,1251,cs),
(974,1251,o),
(962,1237,o),
(962,1200,cs)
);
}
);
width = 1238;
},
{
layerId = "8A001557-9052-48C4-99E5-0FAF857062F1";
shapes = (
{
closed = 1;
nodes = (
(906,141,l),
(283,1210,ls),
(267,1237,o),
(258,1251,o),
(229,1251,cs),
(227,1251,ls),
(193,1251,o),
(175,1230,o),
(175,1194,cs),
(175,33,ls),
(175,-4,o),
(187,-19,o),
(207,-19,cs),
(227,-19,o),
(238,-4,o),
(238,33,cs),
(238,1160,l),
(906,0,l),
(906,-259,o),
(798,-303,o),
(630,-303,cs),
(580,-303,o),
(522,-295,o),
(479,-288,cs),
(467,-286,o),
(458,-285,o),
(449,-285,cs),
(429,-285,o),
(413,-296,o),
(413,-315,cs),
(413,-334,o),
(422,-344,o),
(454,-351,cs),
(502,-362,o),
(577,-366,o),
(644,-366,cs),
(864,-366,o),
(969,-238,o),
(969,-13,cs),
(969,1200,ls),
(969,1237,o),
(958,1251,o),
(938,1251,cs),
(918,1251,o),
(906,1237,o),
(906,1200,cs)
);
}
);
width = 1144;
},
{
layerId = "324E61BF-7061-45AA-9F81-5D4ECCAA9032";
shapes = (
{
closed = 1;
nodes = (
(739,659,l),
(505,1100,ls),
(450,1203,o),
(403,1250,o),
(286,1250,cs),
(281,1250,ls),
(167,1250,o),
(78,1176,o),
(78,1040,cs),
(78,210,ls),
(78,73,o),
(141,0,o),
(256,0,cs),
(371,0,o),
(434,73,o),
(434,210,cs),
(434,590,l),
(792,0,l),
(792,-38,o),
(752,-82,o),
(659,-82,cs),
(636,-82,o),
(615,-80,o),
(595,-78,cs),
(577,-76,o),
(560,-75,o),
(543,-75,cs),
(466,-75,o),
(422,-138,o),
(422,-215,cs),
(422,-281,o),
(455,-320,o),
(505,-341,cs),
(550,-360,o),
(609,-366,o),
(672,-366,cs),
(893,-366,o),
(1095,-274,o),
(1095,-25,cs),
(1095,1040,ls),
(1095,1176,o),
(1032,1250,o),
(917,1250,cs),
(802,1250,o),
(739,1176,o),
(739,1040,cs)
);
}
);
width = 1173;
}
);
unicode = 330;
},
{
color = 6;
glyphname = O;
kernLeft = O;
kernRight = O;
lastChange = "2022-07-21 12:26:04 +0000";
layers = (
{
anchors = (
{
name = bottom;
pos = (609,0);
},
{
name = center;
pos = (624,619);
},
{
name = ogonek;
pos = (957,76);
},
{
name = top;
pos = (620,1250);
},
{
name = topleft;
pos = (49,1250);
},
{
name = topright;
pos = (897,1176);
}
);
layerId = "5521DC30-183F-421A-91F3-644B5E24AFE6";
shapes = (
{
closed = 1;
nodes = (
(900,-21,o),
(1197,139,o),
(1197,615,cs),
(1197,1090,o),
(900,1250,o),
(620,1250,cs),
(338,1250,o),
(41,1090,o),
(41,615,cs),
(41,139,o),
(338,-21,o),
(620,-21,cs)
);
},
{
closed = 1;
nodes = (
(492,246,o),
(427,377,o),
(427,615,cs),
(427,851,o),
(492,983,o),
(620,983,cs),
(746,983,o),
(811,851,o),
(811,615,cs),
(811,377,o),
(746,246,o),
(620,246,cs)
);
}
);
width = 1238;
},
{
anchors = (
{
name = bottom;
pos = (611,0);
},
{
name = center;
pos = (624,619);
},
{
name = ogonek;
pos = (899,76);
},
{
name = top;
pos = (619,1238);
},
{
name = topleft;
pos = (86,1238);
},
{
name = topright;
pos = (862,1175);
}
);
layerId = "BE68D89F-AB3F-4BDF-B332-ED50D7C47704";
shapes = (
{
closed = 1;
nodes = (
(859,-21,o),
(1122,162,o),
(1122,615,cs),
(1122,1067,o),
(859,1250,o),
(619,1250,cs),
(377,1250,o),
(114,1067,o),
(114,615,cs),
(114,162,o),
(377,-21,o),
(619,-21,cs)
);
},
{
closed = 1;
nodes = (
(404,42,o),
(181,217,o),
(181,615,cs),
(181,1011,o),
(404,1187,o),
(619,1187,cs),
(832,1187,o),
(1055,1011,o),
(1055,615,cs),
(1055,217,o),
(832,42,o),
(619,42,cs)
);
}
);
width = 1238;
},
{
anchors = (
{
name = bottom;
pos = (632,0);
},
{
name = center;
pos = (645,619);
},
{
name = ogonek;
pos = (919,76);
},
{
name = top;
pos = (640,1238);
},
{
name = topleft;
pos = (107,1238);
},
{
name = topright;
pos = (883,1175);
}
);
layerId = "8A001557-9052-48C4-99E5-0FAF857062F1";
shapes = (
{
closed = 1;
nodes = (
(880,-21,o),
(1143,162,o),
(1143,615,cs),
(1143,1067,o),
(880,1250,o),
(640,1250,cs),
(398,1250,o),
(135,1067,o),
(135,615,cs),
(135,162,o),
(398,-21,o),
(640,-21,cs)
);
},
{
closed = 1;
nodes = (
(425,42,o),
(202,217,o),
(202,615,cs),
(202,1011,o),
(425,1187,o),
(640,1187,cs),
(853,1187,o),
(1076,1011,o),
(1076,615,cs),
(1076,217,o),
(853,42,o),
(640,42,cs)
);
}
);
width = 1278;
},
{
anchors = (
{
name = bottom;
pos = (616,0);
},
{
name = center;
pos = (631,619);
},
{
name = ogonek;
pos = (965,76);
},
{
name = top;
pos = (627,1250);
},
{
name = topleft;
pos = (56,1250);
},
{
name = topright;
pos = (904,1176);
}
);
layerId = "324E61BF-7061-45AA-9F81-5D4ECCAA9032";
shapes = (
{
closed = 1;
nodes = (
(907,-21,o),
(1204,139,o),
(1204,615,cs),
(1204,1090,o),
(907,1250,o),
(627,1250,cs),
(345,1250,o),
(48,1090,o),
(48,615,cs),
(48,139,o),
(345,-21,o),
(627,-21,cs)
);
},
{
closed = 1;
nodes = (
(499,246,o),
(434,377,o),
(434,615,cs),
(434,851,o),
(499,983,o),
(627,983,cs),
(753,983,o),
(818,851,o),
(818,615,cs),
(818,377,o),
(753,246,o),
(627,246,cs)
);
}
);
width = 1252;
}
);
unicode = 79;
},
{
color = 6;
glyphname = Ohorn;
lastChange = "2022-07-21 12:26:04 +0000";
layers = (
{
anchors = (
{
name = bottom;
pos = (611,0);
},
{
name = center;
pos = (624,619);
},
{
name = ogonek;
pos = (758,0);
},
{
name = top;
pos = (619,1238);
},
{
name = topleft;
pos = (86,1238);
},
{
name = topright;
pos = (862,1175);
}
);
layerId = "BE68D89F-AB3F-4BDF-B332-ED50D7C47704";
shapes = (
{
closed = 1;
nodes = (
(864,-21,o),
(1136,162,o),
(1136,615,cs),
(1136,851,o),
(1062,1014,o),
(956,1116,c),
(1101,1142,o),
(1189,1308,o),
(1189,1431,cs),
(1189,1463,o),
(1180,1487,o),
(1155,1487,cs),
(1131,1487,o),
(1122,1467,o),
(1116,1433,cs),
(1097,1313,o),
(1048,1183,o),
(881,1175,c),
(800,1226,o),
(710,1250,o),
(624,1250,cs),
(382,1250,o),
(110,1067,o),
(110,615,cs),
(110,162,o),
(382,-21,o),
(624,-21,cs)
);
},
{
closed = 1;
nodes = (
(176,1011,o),
(409,1187,o),
(624,1187,cs),
(837,1187,o),
(1070,1011,o),
(1070,615,cs),
(1070,217,o),
(837,42,o),
(624,42,cs),
(409,42,o),
(176,217,o),
(176,615,cs)
);
}
);
width = 1238;
},
{
anchors = (
{
name = bottom;
pos = (609,0);
},
{
name = center;
pos = (624,619);
},
{
name = ogonek;
pos = (787,0);
},
{
name = top;
pos = (620,1250);
},
{
name = topleft;
pos = (49,1250);
},
{
name = topright;
pos = (897,1176);
}
);
layerId = "5521DC30-183F-421A-91F3-644B5E24AFE6";
shapes = (
{
closed = 1;
nodes = (
(906,-21,o),
(1203,139,o),
(1203,615,cs),
(1203,796,o),
(1160,932,o),
(1090,1030,c),
(1229,1070,o),
(1324,1210,o),
(1324,1346,cs),
(1324,1453,o),
(1276,1488,o),
(1187,1488,cs),
(1106,1488,o),
(1065,1431,o),
(1050,1356,cs),
(1029,1249,o),
(997,1197,o),
(920,1181,c),
(829,1229,o),
(726,1250,o),
(626,1250,cs),
(344,1250,o),
(47,1090,o),
(47,615,cs),
(47,139,o),
(344,-21,o),
(626,-21,cs)
);
},
{
closed = 1;
nodes = (
(433,851,o),
(498,983,o),
(626,983,cs),
(752,983,o),
(817,851,o),
(817,615,cs),
(817,377,o),
(752,246,o),
(626,246,cs),
(498,246,o),
(433,377,o),
(433,615,cs)
);
}
);
width = 1238;
},
{
anchors = (
{
name = bottom;
pos = (636,0);
},
{
name = center;
pos = (649,619);
},
{
name = ogonek;
pos = (783,0);
},
{
name = top;
pos = (644,1238);
},
{
name = topleft;
pos = (111,1238);
},
{
name = topright;
pos = (887,1175);
}
);
layerId = "8A001557-9052-48C4-99E5-0FAF857062F1";
shapes = (
{
closed = 1;
nodes = (
(884,-21,o),
(1156,162,o),
(1156,615,cs),
(1156,851,o),
(1082,1014,o),
(976,1116,c),
(1121,1142,o),
(1209,1308,o),
(1209,1431,cs),
(1209,1463,o),
(1200,1487,o),
(1175,1487,cs),
(1151,1487,o),
(1142,1467,o),
(1136,1433,cs),
(1117,1313,o),
(1068,1183,o),
(901,1175,c),
(820,1226,o),
(730,1250,o),
(644,1250,cs),
(402,1250,o),
(130,1067,o),
(130,615,cs),
(130,162,o),
(402,-21,o),
(644,-21,cs)
);
},
{
closed = 1;
nodes = (
(196,1011,o),
(429,1187,o),
(644,1187,cs),
(857,1187,o),
(1090,1011,o),
(1090,615,cs),
(1090,217,o),
(857,42,o),
(644,42,cs),
(429,42,o),
(196,217,o),
(196,615,cs)
);
}
);
width = 1288;
},
{
anchors = (
{
name = bottom;
pos = (617,0);
},
{
name = center;
pos = (632,619);
},
{
name = ogonek;
pos = (795,0);
},
{
name = top;
pos = (628,1250);
},
{
name = topleft;
pos = (57,1250);
},
{
name = topright;
pos = (905,1176);
}
);
layerId = "324E61BF-7061-45AA-9F81-5D4ECCAA9032";
shapes = (
{
closed = 1;
nodes = (
(908,-21,o),
(1205,139,o),
(1205,615,cs),
(1205,796,o),
(1162,932,o),
(1092,1030,c),
(1231,1070,o),
(1326,1210,o),
(1326,1346,cs),
(1326,1453,o),
(1278,1488,o),
(1189,1488,cs),
(1108,1488,o),
(1067,1431,o),
(1052,1356,cs),
(1031,1249,o),
(999,1197,o),
(922,1181,c),
(831,1229,o),
(728,1250,o),
(628,1250,cs),
(346,1250,o),
(49,1090,o),
(49,615,cs),
(49,139,o),
(346,-21,o),
(628,-21,cs)
);
},
{
closed = 1;
nodes = (
(435,851,o),
(500,983,o),
(628,983,cs),
(754,983,o),
(819,851,o),
(819,615,cs),
(819,377,o),
(754,246,o),
(628,246,cs),
(500,246,o),
(435,377,o),
(435,615,cs)
);
}
);
width = 1254;
}
);
unicode = 416;
},
{
color = 3;
glyphname = Oslash;
kernLeft = O;
kernRight = O;
lastChange = "2022-07-21 12:26:04 +0000";
layers = (
{
anchors = (
{
name = bottom;
pos = (619,0);
},
{
name = top;
pos = (619,1238);
}
);
layerId = "5521DC30-183F-421A-91F3-644B5E24AFE6";
shapes = (
{
ref = O;
},
{
closed = 1;
nodes = (
(957,1330,o),
(924,1290,o),
(861,1194,cs),
(164,139,ls),
(131,90,o),
(118,49,o),
(118,15,cs),
(118,-49,o),
(166,-82,o),
(216,-82,cs),
(280,-82,o),
(317,-42,o),
(380,53,cs),
(1082,1117,ls),
(1116,1169,o),
(1130,1210,o),
(1130,1243,cs),
(1130,1301,o),
(1086,1330,o),
(1037,1330,cs)
);
}
);
width = 1238;
},
{
anchors = (
{
name = bottom;
pos = (619,0);
},
{
name = top;
pos = (619,1238);
}
);
layerId = "BE68D89F-AB3F-4BDF-B332-ED50D7C47704";
shapes = (
{
ref = O;
},
{
closed = 1;
nodes = (
(1049,1302,o),
(1039,1291,o),
(1022,1266,cs),
(158,-10,ls),
(149,-24,o),
(145,-36,o),
(145,-46,cs),
(145,-63,o),
(156,-72,o),
(170,-72,cs),
(192,-72,o),
(200,-62,o),
(217,-36,cs),
(1082,1240,ls),
(1090,1253,o),
(1094,1264,o),
(1094,1273,cs),
(1094,1291,o),
(1080,1302,o),
(1066,1302,cs)
);
}
);
width = 1238;
},
{
anchors = (
{
name = bottom;
pos = (644,0);
},
{
name = top;
pos = (644,1238);
}
);
layerId = "8A001557-9052-48C4-99E5-0FAF857062F1";
shapes = (
{
ref = O;
},
{
closed = 1;
nodes = (
(1074,1302,o),
(1064,1291,o),
(1047,1266,cs),
(183,-10,ls),
(174,-24,o),
(170,-36,o),
(170,-46,cs),
(170,-63,o),
(181,-72,o),
(195,-72,cs),
(217,-72,o),
(225,-62,o),
(242,-36,cs),
(1107,1240,ls),
(1115,1253,o),
(1119,1264,o),
(1119,1273,cs),
(1119,1291,o),
(1105,1302,o),
(1091,1302,cs)
);
}
);
width = 1278;
},
{
anchors = (
{
name = bottom;
pos = (627,0);
},
{
name = top;
pos = (627,1238);
}
);
layerId = "324E61BF-7061-45AA-9F81-5D4ECCAA9032";
shapes = (
{
ref = O;
},
{
closed = 1;
nodes = (
(965,1330,o),
(932,1290,o),
(869,1194,cs),
(172,139,ls),
(139,90,o),
(126,49,o),
(126,15,cs),
(126,-49,o),
(174,-82,o),
(224,-82,cs),
(288,-82,o),
(325,-42,o),
(388,53,cs),
(1090,1117,ls),
(1124,1169,o),
(1138,1210,o),
(1138,1243,cs),
(1138,1301,o),
(1094,1330,o),
(1045,1330,cs)
);
}
);
width = 1252;
}
);
unicode = 216;
},
{
color = 6;
glyphname = OE;
kernLeft = O;
kernRight = E;
lastChange = "2022-07-21 12:26:04 +0000";
layers = (
{
anchors = (
{
name = bottom;
pos = (619,0);
},
{
name = top;
pos = (619,1238);
}
);
layerId = "5521DC30-183F-421A-91F3-644B5E24AFE6";
shapes = (
{
closed = 1;
nodes = (
(1251,1191,o),
(1178,1238,o),
(1042,1238,cs),
(768,1238,ls),
(722,1238,o),
(682,1232,o),
(652,1214,cs),
(642,1208,l),
(588,1237,o),
(526,1250,o),
(461,1250,cs),
(227,1250,o),
(-4,1090,o),
(-4,615,cs),
(-4,139,o),
(227,-21,o),
(461,-21,cs),
(530,-21,o),
(594,-7,o),
(651,25,c),
(657,22,ls),
(687,7,o),
(724,0,o),
(768,0,cs),
(1042,0,ls),
(1178,0,o),
(1251,47,o),
(1251,133,cs),
(1251,220,o),
(1178,267,o),
(1042,267,cs),
(910,267,l),
(910,474,l),
(1025,474,ls),
(1161,474,o),
(1234,521,o),
(1234,608,cs),
(1234,694,o),
(1161,741,o),
(1025,741,cs),
(910,741,l),
(910,971,l),
(1042,971,ls),
(1178,971,o),
(1251,1018,o),
(1251,1105,cs)
);
},
{
closed = 1;
nodes = (
(363,851,o),
(381,983,o),
(461,983,cs),
(539,983,o),
(557,851,o),
(557,615,cs),
(557,377,o),
(539,246,o),
(461,246,cs),
(381,246,o),
(363,377,o),
(363,615,cs)
);
}
);
width = 1238;
},
{
anchors = (
{
name = bottom;
pos = (619,0);
},
{
name = top;
pos = (619,1238);
}
);
layerId = "BE68D89F-AB3F-4BDF-B332-ED50D7C47704";
shapes = (
{
closed = 1;
nodes = (
(1159,1228,o),
(1139,1238,o),
(1102,1238,cs),
(713,1238,ls),
(676,1238,o),
(656,1218,o),
(656,1181,cs),
(656,1024,l),
(592,1186,o),
(489,1250,o),
(387,1250,cs),
(221,1250,o),
(53,1086,o),
(53,615,cs),
(53,143,o),
(221,-21,o),
(387,-21,cs),
(489,-21,o),
(592,43,o),
(656,206,c),
(656,57,ls),
(656,20,o),
(676,0,o),
(713,0,cs),
(1102,0,ls),
(1139,0,o),
(1159,11,o),
(1159,30,cs),
(1159,50,o),
(1139,61,o),
(1102,61,cs),
(719,61,l),
(719,577,l),
(1009,577,ls),
(1046,577,o),
(1066,589,o),
(1066,608,cs),
(1066,627,o),
(1046,638,o),
(1009,638,cs),
(719,638,l),
(719,1177,l),
(1102,1177,ls),
(1139,1177,o),
(1159,1189,o),
(1159,1208,cs)
);
},
{
closed = 1;
nodes = (
(120,1030,o),
(248,1187,o),
(387,1187,cs),
(524,1187,o),
(651,1030,o),
(651,615,cs),
(651,198,o),
(524,42,o),
(387,42,cs),
(248,42,o),
(120,198,o),
(120,615,cs)
);
}
);
width = 1238;
},
{
anchors = (
{
name = bottom;
pos = (1043,0);
},
{
name = top;
pos = (1043,1238);
}
);
layerId = "8A001557-9052-48C4-99E5-0FAF857062F1";
shapes = (
{
closed = 1;
nodes = (
(1763,1228,o),
(1743,1238,o),
(1706,1238,cs),
(1137,1238,ls),
(1100,1238,o),
(1080,1218,o),
(1080,1181,cs),
(1080,951,l),
(988,1160,o),
(808,1250,o),
(640,1250,cs),
(398,1250,o),
(135,1067,o),
(135,615,cs),
(135,162,o),
(398,-21,o),
(640,-21,cs),
(808,-21,o),
(988,69,o),
(1080,279,c),
(1080,57,ls),
(1080,20,o),
(1100,0,o),
(1137,0,cs),
(1706,0,ls),
(1743,0,o),
(1763,11,o),
(1763,30,cs),
(1763,50,o),
(1743,61,o),
(1706,61,cs),
(1143,61,l),
(1143,577,l),
(1613,577,ls),
(1650,577,o),
(1670,589,o),
(1670,608,cs),
(1670,627,o),
(1650,638,o),
(1613,638,cs),
(1143,638,l),
(1143,1177,l),
(1706,1177,ls),
(1743,1177,o),
(1763,1189,o),
(1763,1208,cs)
);
},
{
closed = 1;
nodes = (
(202,1011,o),
(425,1187,o),
(640,1187,cs),
(853,1187,o),
(1076,1011,o),
(1076,615,cs),
(1076,217,o),
(853,42,o),
(640,42,cs),
(425,42,o),
(202,217,o),
(202,615,cs)
);
}
);
width = 1918;
},
{
anchors = (
{
name = bottom;
pos = (886,0);
},
{
name = top;
pos = (886,1238);
}
);
layerId = "324E61BF-7061-45AA-9F81-5D4ECCAA9032";
shapes = (
{
closed = 1;
nodes = (
(1670,1191,o),
(1597,1238,o),
(1481,1238,cs),
(1035,1238,ls),
(980,1238,o),
(936,1227,o),
(903,1204,cs),
(888,1193,l),
(809,1233,o),
(719,1250,o),
(627,1250,cs),
(345,1250,o),
(48,1090,o),
(48,615,cs),
(48,139,o),
(345,-21,o),
(627,-21,cs),
(722,-21,o),
(814,-3,o),
(894,40,c),
(914,27,ls),
(945,7,o),
(986,0,o),
(1035,0,cs),
(1481,0,ls),
(1597,0,o),
(1670,47,o),
(1670,133,cs),
(1670,220,o),
(1597,267,o),
(1481,267,cs),
(1177,267,l),
(1177,474,l),
(1464,474,ls),
(1580,474,o),
(1653,521,o),
(1653,608,cs),
(1653,694,o),
(1580,741,o),
(1464,741,cs),
(1177,741,l),
(1177,971,l),
(1481,971,ls),
(1597,971,o),
(1670,1018,o),
(1670,1105,cs)
);
},
{
closed = 1;
nodes = (
(434,851,o),
(499,983,o),
(627,983,cs),
(753,983,o),
(818,851,o),
(818,615,cs),
(818,377,o),
(753,246,o),
(627,246,cs),
(499,246,o),
(434,377,o),
(434,615,cs)
);
}
);
width = 1728;
}
);
unicode = 338;
},
{
color = 6;
glyphname = P;
kernLeft = H;
kernRight = P;
lastChange = "2022-07-21 12:26:04 +0000";
layers = (
{
anchors = (
{
name = bottom;
pos = (533,0);
},
{
name = top;
pos = (650,1238);
}
);
layerId = "5521DC30-183F-421A-91F3-644B5E24AFE6";
shapes = (
{
closed = 1;
nodes = (
(619,971,ls),
(705,971,o),
(768,952,o),
(768,832,cs),
(768,712,o),
(705,688,o),
(619,688,cs),
(539,688,l),
(539,971,l)
);
},
{
closed = 1;
nodes = (
(830,421,o),
(1149,461,o),
(1149,832,cs),
(1149,1204,o),
(830,1238,o),
(680,1238,cs),
(368,1238,ls),
(231,1238,o),
(158,1165,o),
(158,1029,cs),
(158,210,ls),
(158,73,o),
(225,0,o),
(349,0,cs),
(472,0,o),
(539,73,o),
(539,210,cs),
(539,421,l),
(680,421,ls)
);
}
);
width = 1238;
},
{
anchors = (
{
name = bottom;
pos = (571,0);
},
{
name = top;
pos = (642,1238);
}
);
layerId = "BE68D89F-AB3F-4BDF-B332-ED50D7C47704";
shapes = (
{
closed = 1;
nodes = (
(619,1177,ls),
(743,1177,o),
(983,1168,o),
(983,865,cs),
(983,562,o),
(743,537,o),
(619,537,cs),
(331,537,l),
(331,1177,l)
);
},
{
closed = 1;
nodes = (
(775,476,o),
(1048,520,o),
(1048,865,cs),
(1048,1210,o),
(775,1238,o),
(623,1238,cs),
(326,1238,ls),
(289,1238,o),
(269,1218,o),
(269,1181,cs),
(269,57,ls),
(269,20,o),
(280,0,o),
(300,0,cs),
(320,0,o),
(331,20,o),
(331,57,cs),
(331,476,l),
(623,476,ls)
);
}
);
width = 1238;
},
{
anchors = (
{
name = bottom;
pos = (477,0);
},
{
name = top;
pos = (548,1238);
}
);
layerId = "8A001557-9052-48C4-99E5-0FAF857062F1";
shapes = (
{
closed = 1;
nodes = (
(525,1177,ls),
(649,1177,o),
(889,1168,o),
(889,865,cs),
(889,562,o),
(649,537,o),
(525,537,cs),
(237,537,l),
(237,1177,l)
);
},
{
closed = 1;
nodes = (
(681,476,o),
(954,520,o),
(954,865,cs),
(954,1210,o),
(681,1238,o),
(529,1238,cs),
(232,1238,ls),
(195,1238,o),
(175,1218,o),
(175,1181,cs),
(175,57,ls),
(175,20,o),
(186,0,o),
(206,0,cs),
(226,0,o),
(237,20,o),
(237,57,cs),
(237,476,l),
(529,476,ls)
);
}
);
width = 1089;
},
{
anchors = (
{
name = bottom;
pos = (453,0);
},
{
name = top;
pos = (570,1238);
}
);
layerId = "324E61BF-7061-45AA-9F81-5D4ECCAA9032";
shapes = (
{
closed = 1;
nodes = (
(539,971,ls),
(625,971,o),
(688,952,o),
(688,832,cs),
(688,712,o),
(625,688,o),
(539,688,cs),
(459,688,l),
(459,971,l)
);
},
{
closed = 1;
nodes = (
(750,421,o),
(1069,461,o),
(1069,832,cs),
(1069,1204,o),
(750,1238,o),
(600,1238,cs),
(288,1238,ls),
(151,1238,o),
(78,1165,o),
(78,1029,cs),
(78,210,ls),
(78,73,o),
(145,0,o),
(269,0,cs),
(392,0,o),
(459,73,o),
(459,210,cs),
(459,421,l),
(600,421,ls)
);
}
);
width = 1117;
}
);
unicode = 80;
},
{
color = 6;
glyphname = Thorn;
kernLeft = H;
kernRight = Thorn;
lastChange = "2022-07-21 12:26:04 +0000";
layers = (
{
anchors = (
{
name = bottom;
pos = (600,0);
},
{
name = top;
pos = (600,1333);
}
);
layerId = "5521DC30-183F-421A-91F3-644B5E24AFE6";
shapes = (
{
closed = 1;
nodes = (
(512,988,l),
(512,1038,ls),
(512,1174,o),
(447,1248,o),
(325,1248,cs),
(203,1248,o),
(137,1174,o),
(137,1038,cs),
(137,190,ls),
(137,54,o),
(203,-19,o),
(325,-19,cs),
(444,-19,o),
(512,54,o),
(512,160,c),
(512,207,l),
(638,207,ls),
(798,207,o),
(1131,223,o),
(1131,597,cs),
(1131,971,o),
(798,988,o),
(638,988,cs)
);
},
{
closed = 1;
nodes = (
(512,464,l),
(512,730,l),
(570,730,ls),
(675,730,o),
(764,714,o),
(764,597,cs),
(764,471,o),
(674,464,o),
(570,464,cs)
);
}
);
width = 1238;
},
{
anchors = (
{
name = bottom;
pos = (571,0);
},
{
name = top;
pos = (615,1238);
}
);
layerId = "BE68D89F-AB3F-4BDF-B332-ED50D7C47704";
shapes = (
{
closed = 1;
nodes = (
(350,959,l),
(350,1195,ls),
(350,1232,o),
(339,1248,o),
(319,1248,cs),
(299,1248,o),
(288,1232,o),
(288,1195,cs),
(288,33,ls),
(288,-4,o),
(299,-19,o),
(319,-19,cs),
(339,-19,o),
(350,-4,o),
(350,33,cs),
(350,273,l),
(575,273,ls),
(735,273,o),
(990,308,o),
(990,633,cs),
(990,940,o),
(735,959,o),
(575,959,cs)
);
},
{
closed = 1;
nodes = (
(350,334,l),
(350,898,l),
(600,898,ls),
(724,898,o),
(926,889,o),
(926,633,cs),
(926,359,o),
(724,334,o),
(600,334,cs)
);
}
);
width = 1238;
},
{
anchors = (
{
name = bottom;
pos = (458,0);
},
{
name = top;
pos = (502,1238);
}
);
layerId = "8A001557-9052-48C4-99E5-0FAF857062F1";
shapes = (
{
closed = 1;
nodes = (
(237,959,l),
(237,1195,ls),
(237,1232,o),
(226,1248,o),
(206,1248,cs),
(186,1248,o),
(175,1232,o),
(175,1195,cs),
(175,33,ls),
(175,-4,o),
(186,-19,o),
(206,-19,cs),
(226,-19,o),
(237,-4,o),
(237,33,cs),
(237,273,l),
(462,273,ls),
(622,273,o),
(877,308,o),
(877,633,cs),
(877,940,o),
(622,959,o),
(462,959,cs)
);
},
{
closed = 1;
nodes = (
(237,334,l),
(237,898,l),
(487,898,ls),
(611,898,o),
(813,889,o),
(813,633,cs),
(813,359,o),
(611,334,o),
(487,334,cs)
);
}
);
width = 1012;
},
{
anchors = (
{
name = bottom;
pos = (531,0);
},
{
name = top;
pos = (531,1333);
}
);
layerId = "324E61BF-7061-45AA-9F81-5D4ECCAA9032";
shapes = (
{
closed = 1;
nodes = (
(443,988,l),
(443,1038,ls),
(443,1174,o),
(378,1248,o),
(256,1248,cs),
(134,1248,o),
(68,1174,o),
(68,1038,cs),
(68,190,ls),
(68,54,o),
(134,-19,o),
(256,-19,cs),
(375,-19,o),
(443,54,o),
(443,160,c),
(443,207,l),
(569,207,ls),
(729,207,o),
(1062,223,o),
(1062,597,cs),
(1062,971,o),
(729,988,o),
(569,988,cs)
);
},
{
closed = 1;
nodes = (
(443,464,l),
(443,730,l),
(501,730,ls),
(606,730,o),
(695,714,o),
(695,597,cs),
(695,471,o),
(605,464,o),
(501,464,cs)
);
}
);
width = 1110;
}
);
unicode = 222;
},
{
color = 6;
glyphname = Q;
kernLeft = O;
kernRight = O;
lastChange = "2022-07-21 12:26:04 +0000";
layers = (
{
anchors = (
{
name = bottom;
pos = (619,0);
},
{
name = center;
pos = (624,619);
},
{
name = ogonek;
pos = (957,76);
},
{
name = top;
pos = (619,1238);
},
{
name = topleft;
pos = (49,1250);
},
{
name = topright;
pos = (897,1176);
}
);
layerId = "5521DC30-183F-421A-91F3-644B5E24AFE6";
shapes = (
{
closed = 1;
nodes = (
(1080,-310,o),
(1141,-261,o),
(1141,-183,cs),
(1141,-99,o),
(1093,-62,o),
(1030,-43,cs),
(979,-28,o),
(928,3,o),
(897,40,c),
(1066,124,o),
(1196,300,o),
(1196,615,cs),
(1196,1090,o),
(899,1250,o),
(619,1250,cs),
(337,1250,o),
(40,1090,o),
(40,615,cs),
(40,139,o),
(337,-21,o),
(618,-21,c),
(660,-160,o),
(849,-310,o),
(996,-310,cs)
);
},
{
closed = 1;
nodes = (
(426,851,o),
(491,983,o),
(619,983,cs),
(745,983,o),
(810,851,o),
(810,615,cs),
(810,377,o),
(745,246,o),
(619,246,cs),
(491,246,o),
(426,377,o),
(426,615,cs)
);
}
);
width = 1238;
},
{
anchors = (
{
name = bottom;
pos = (670,0);
},
{
name = center;
pos = (624,619);
},
{
name = ogonek;
pos = (899,76);
},
{
name = top;
pos = (619,1250);
},
{
name = topleft;
pos = (86,1238);
},
{
name = topright;
pos = (862,1175);
}
);
layerId = "BE68D89F-AB3F-4BDF-B332-ED50D7C47704";
shapes = (
{
closed = 1;
nodes = (
(989,-271,o),
(1010,-265,o),
(1010,-241,cs),
(1010,-225,o),
(998,-214,o),
(953,-207,cs),
(860,-192,o),
(718,-134,o),
(691,-16,c),
(909,18,o),
(1122,207,o),
(1122,615,cs),
(1122,1067,o),
(859,1250,o),
(619,1250,cs),
(377,1250,o),
(114,1067,o),
(114,615,cs),
(114,162,o),
(377,-21,o),
(619,-21,c),
(633,-161,o),
(826,-271,o),
(966,-271,cs)
);
},
{
closed = 1;
nodes = (
(181,1011,o),
(404,1187,o),
(619,1187,cs),
(832,1187,o),
(1055,1011,o),
(1055,615,cs),
(1055,217,o),
(832,42,o),
(619,42,cs),
(404,42,o),
(181,217,o),
(181,615,cs)
);
}
);
width = 1238;
},
{
anchors = (
{
name = bottom;
pos = (695,0);
},
{
name = center;
pos = (645,619);
},
{
name = ogonek;
pos = (919,76);
},
{
name = top;
pos = (644,1250);
},
{
name = topleft;
pos = (107,1238);
},
{
name = topright;
pos = (883,1175);
}
);
layerId = "8A001557-9052-48C4-99E5-0FAF857062F1";
shapes = (
{
closed = 1;
nodes = (
(1010,-271,o),
(1031,-265,o),
(1031,-241,cs),
(1031,-225,o),
(1019,-214,o),
(974,-207,cs),
(881,-192,o),
(739,-134,o),
(712,-16,c),
(930,18,o),
(1143,207,o),
(1143,615,cs),
(1143,1067,o),
(880,1250,o),
(640,1250,cs),
(398,1250,o),
(135,1067,o),
(135,615,cs),
(135,162,o),
(398,-21,o),
(640,-21,c),
(654,-161,o),
(847,-271,o),
(987,-271,cs)
);
},
{
closed = 1;
nodes = (
(202,1011,o),
(425,1187,o),
(640,1187,cs),
(853,1187,o),
(1076,1011,o),
(1076,615,cs),
(1076,217,o),
(853,42,o),
(640,42,cs),
(425,42,o),
(202,217,o),
(202,615,cs)
);
}
);
width = 1278;
},
{
anchors = (
{
name = bottom;
pos = (627,0);
},
{
name = center;
pos = (631,619);
},
{
name = ogonek;
pos = (965,76);
},
{
name = top;
pos = (627,1238);
},
{
name = topleft;
pos = (56,1250);
},
{
name = topright;
pos = (904,1176);
}
);
layerId = "324E61BF-7061-45AA-9F81-5D4ECCAA9032";
shapes = (
{
closed = 1;
nodes = (
(1088,-310,o),
(1149,-261,o),
(1149,-183,cs),
(1149,-99,o),
(1101,-62,o),
(1038,-43,cs),
(987,-28,o),
(936,3,o),
(905,40,c),
(1074,124,o),
(1204,300,o),
(1204,615,cs),
(1204,1090,o),
(907,1250,o),
(627,1250,cs),
(345,1250,o),
(48,1090,o),
(48,615,cs),
(48,139,o),
(345,-21,o),
(626,-21,c),
(668,-160,o),
(857,-310,o),
(1004,-310,cs)
);
},
{
closed = 1;
nodes = (
(434,851,o),
(499,983,o),
(627,983,cs),
(753,983,o),
(818,851,o),
(818,615,cs),
(818,377,o),
(753,246,o),
(627,246,cs),
(499,246,o),
(434,377,o),
(434,615,cs)
);
}
);
width = 1252;
}
);
unicode = 81;
},
{
color = 6;
glyphname = R;
kernLeft = H;
kernRight = R;
lastChange = "2022-07-21 12:26:04 +0000";
layers = (
{
anchors = (
{
name = bottom;
pos = (618,0);
},
{
name = top;
pos = (602,1238);
}
);
layerId = "5521DC30-183F-421A-91F3-644B5E24AFE6";
shapes = (
{
closed = 1;
nodes = (
(606,971,ls),
(709,971,o),
(750,931,o),
(750,846,cs),
(750,760,o),
(705,720,o),
(602,720,cs),
(482,720,l),
(482,971,l)
);
},
{
closed = 1;
nodes = (
(101,54,o),
(168,-19,o),
(291,-19,cs),
(415,-19,o),
(482,54,o),
(482,190,cs),
(482,453,l),
(633,453,l),
(738,168,ls),
(782,49,o),
(824,-19,o),
(960,-19,cs),
(1074,-19,o),
(1134,39,o),
(1134,126,cs),
(1134,158,o),
(1124,194,o),
(1108,232,cs),
(977,548,l),
(1063,610,o),
(1131,711,o),
(1131,867,cs),
(1131,1208,o),
(838,1238,o),
(678,1238,cs),
(310,1238,ls),
(174,1238,o),
(101,1165,o),
(101,1029,cs),
(101,190,ls)
);
}
);
width = 1238;
},
{
anchors = (
{
name = bottom;
pos = (600,0);
},
{
name = top;
pos = (617,1238);
}
);
layerId = "BE68D89F-AB3F-4BDF-B332-ED50D7C47704";
shapes = (
{
closed = 1;
nodes = (
(688,1177,ls),
(869,1177,o),
(994,1098,o),
(994,927,cs),
(994,756,o),
(878,658,o),
(707,658,cs),
(324,658,l),
(324,1177,l)
);
},
{
closed = 1;
nodes = (
(261,10,o),
(272,-10,o),
(292,-10,cs),
(312,-10,o),
(324,10,o),
(324,48,cs),
(324,597,l),
(702,597,l),
(959,35,ls),
(973,4,o),
(981,-10,o),
(1005,-10,cs),
(1020,-10,o),
(1034,0,o),
(1034,21,cs),
(1034,29,o),
(1033,37,o),
(1028,48,cs),
(776,601,l),
(931,621,o),
(1059,726,o),
(1059,927,cs),
(1059,1153,o),
(895,1238,o),
(688,1238,cs),
(318,1238,ls),
(281,1238,o),
(261,1218,o),
(261,1181,cs),
(261,48,ls)
);
}
);
width = 1238;
},
{
anchors = (
{
name = bottom;
pos = (514,0);
},
{
name = top;
pos = (531,1238);
}
);
layerId = "8A001557-9052-48C4-99E5-0FAF857062F1";
shapes = (
{
closed = 1;
nodes = (
(602,1177,ls),
(783,1177,o),
(908,1098,o),
(908,927,cs),
(908,756,o),
(792,658,o),
(621,658,cs),
(238,658,l),
(238,1177,l)
);
},
{
closed = 1;
nodes = (
(175,10,o),
(186,-10,o),
(206,-10,cs),
(226,-10,o),
(238,10,o),
(238,48,cs),
(238,597,l),
(616,597,l),
(873,35,ls),
(887,4,o),
(895,-10,o),
(919,-10,cs),
(934,-10,o),
(948,0,o),
(948,21,cs),
(948,29,o),
(947,37,o),
(942,48,cs),
(690,601,l),
(845,621,o),
(973,726,o),
(973,927,cs),
(973,1153,o),
(809,1238,o),
(602,1238,cs),
(232,1238,ls),
(195,1238,o),
(175,1218,o),
(175,1181,cs),
(175,48,ls)
);
}
);
width = 1108;
},
{
anchors = (
{
name = bottom;
pos = (595,0);
},
{
name = top;
pos = (579,1238);
}
);
layerId = "324E61BF-7061-45AA-9F81-5D4ECCAA9032";
shapes = (
{
closed = 1;
nodes = (
(583,971,ls),
(686,971,o),
(727,931,o),
(727,846,cs),
(727,760,o),
(682,720,o),
(579,720,cs),
(459,720,l),
(459,971,l)
);
},
{
closed = 1;
nodes = (
(78,54,o),
(145,-19,o),
(268,-19,cs),
(392,-19,o),
(459,54,o),
(459,190,cs),
(459,453,l),
(610,453,l),
(715,168,ls),
(759,49,o),
(801,-19,o),
(937,-19,cs),
(1051,-19,o),
(1111,39,o),
(1111,126,cs),
(1111,158,o),
(1101,194,o),
(1085,232,cs),
(954,548,l),
(1040,610,o),
(1108,711,o),
(1108,867,cs),
(1108,1208,o),
(815,1238,o),
(655,1238,cs),
(287,1238,ls),
(151,1238,o),
(78,1165,o),
(78,1029,cs),
(78,190,ls)
);
}
);
width = 1169;
}
);
unicode = 82;
},
{
color = 6;
glyphname = S;
kernLeft = S;
kernRight = S;
lastChange = "2022-07-21 12:26:04 +0000";
layers = (
{
anchors = (
{
name = bottom;
pos = (689,-2);
},
{
name = top;
pos = (625,1238);
}
);
layerId = "5521DC30-183F-421A-91F3-644B5E24AFE6";
shapes = (
{
closed = 1;
nodes = (
(953,-21,o),
(1173,135,o),
(1173,375,cs),
(1173,607,o),
(976,706,o),
(723,764,cs),
(559,802,o),
(482,843,o),
(482,897,cs),
(482,947,o),
(532,983,o),
(621,983,cs),
(703,983,o),
(757,955,o),
(792,921,cs),
(830,885,o),
(891,828,o),
(981,828,cs),
(1070,828,o),
(1130,883,o),
(1130,973,cs),
(1130,1049,o),
(1087,1108,o),
(1023,1152,cs),
(927,1217,o),
(780,1250,o),
(640,1250,cs),
(325,1250,o),
(96,1110,o),
(96,891,cs),
(96,696,o),
(228,542,o),
(554,472,cs),
(714,438,o),
(787,418,o),
(787,349,cs),
(787,285,o),
(723,246,o),
(627,246,cs),
(531,246,o),
(476,293,o),
(424,341,cs),
(372,389,o),
(315,433,o),
(226,433,cs),
(119,433,o),
(75,353,o),
(75,286,cs),
(75,210,o),
(113,144,o),
(184,92,cs),
(279,22,o),
(429,-21,o),
(619,-21,cs)
);
}
);
width = 1238;
},
{
anchors = (
{
name = bottom;
pos = (645,0);
},
{
name = top;
pos = (624,1250);
}
);
layerId = "BE68D89F-AB3F-4BDF-B332-ED50D7C47704";
shapes = (
{
closed = 1;
nodes = (
(858,-21,o),
(1071,96,o),
(1071,305,cs),
(1071,495,o),
(931,590,o),
(616,682,cs),
(383,750,o),
(266,819,o),
(266,962,cs),
(266,1103,o),
(444,1187,o),
(624,1187,cs),
(780,1187,o),
(898,1122,o),
(956,1035,cs),
(971,1012,o),
(986,999,o),
(1001,999,cs),
(1014,999,o),
(1031,1010,o),
(1031,1029,cs),
(1031,1041,o),
(1026,1054,o),
(1016,1069,cs),
(941,1180,o),
(800,1250,o),
(624,1250,cs),
(400,1250,o),
(198,1146,o),
(198,962,cs),
(198,777,o),
(338,691,o),
(616,614,cs),
(862,546,o),
(1003,461,o),
(1003,304,cs),
(1003,139,o),
(814,42,o),
(622,42,cs),
(437,42,o),
(311,110,o),
(242,206,cs),
(226,228,o),
(212,240,o),
(196,240,cs),
(181,240,o),
(161,229,o),
(161,208,cs),
(161,197,o),
(166,182,o),
(178,167,cs),
(260,59,o),
(411,-21,o),
(622,-21,cs)
);
}
);
width = 1238;
},
{
anchors = (
{
name = bottom;
pos = (633,0);
},
{
name = top;
pos = (608,1250);
}
);
layerId = "8A001557-9052-48C4-99E5-0FAF857062F1";
shapes = (
{
closed = 1;
nodes = (
(849,-21,o),
(1062,96,o),
(1062,305,cs),
(1062,495,o),
(922,590,o),
(607,682,cs),
(374,750,o),
(257,819,o),
(257,962,cs),
(257,1103,o),
(435,1187,o),
(615,1187,cs),
(771,1187,o),
(889,1122,o),
(947,1035,cs),
(962,1012,o),
(977,999,o),
(992,999,cs),
(1005,999,o),
(1022,1010,o),
(1022,1029,cs),
(1022,1041,o),
(1017,1054,o),
(1007,1069,cs),
(932,1180,o),
(791,1250,o),
(615,1250,cs),
(391,1250,o),
(189,1146,o),
(189,962,cs),
(189,777,o),
(329,691,o),
(607,614,cs),
(853,546,o),
(994,461,o),
(994,304,cs),
(994,139,o),
(805,42,o),
(613,42,cs),
(428,42,o),
(302,110,o),
(233,206,cs),
(217,228,o),
(203,240,o),
(187,240,cs),
(172,240,o),
(152,229,o),
(152,208,cs),
(152,197,o),
(157,182,o),
(169,167,cs),
(251,59,o),
(402,-21,o),
(613,-21,cs)
);
}
);
width = 1190;
},
{
anchors = (
{
name = bottom;
pos = (661,-2);
},
{
name = top;
pos = (598,1238);
}
);
layerId = "324E61BF-7061-45AA-9F81-5D4ECCAA9032";
shapes = (
{
closed = 1;
nodes = (
(926,-21,o),
(1146,135,o),
(1146,375,cs),
(1146,607,o),
(949,706,o),
(696,764,cs),
(532,802,o),
(460,843,o),
(460,897,cs),
(460,947,o),
(505,983,o),
(594,983,cs),
(676,983,o),
(730,955,o),
(765,921,cs),
(803,885,o),
(864,828,o),
(954,828,cs),
(1043,828,o),
(1103,883,o),
(1103,973,cs),
(1103,1049,o),
(1060,1108,o),
(996,1152,cs),
(900,1217,o),
(753,1250,o),
(613,1250,cs),
(298,1250,o),
(74,1110,o),
(74,891,cs),
(74,696,o),
(201,542,o),
(527,472,cs),
(687,438,o),
(760,418,o),
(760,349,cs),
(760,285,o),
(696,246,o),
(600,246,cs),
(504,246,o),
(449,293,o),
(397,341,cs),
(345,389,o),
(288,433,o),
(199,433,cs),
(92,433,o),
(48,353,o),
(48,286,cs),
(48,210,o),
(86,144,o),
(157,92,cs),
(252,22,o),
(402,-21,o),
(592,-21,cs)
);
}
);
width = 1194;
}
);
unicode = 83;
},
{
color = 6;
glyphname = Scedilla;
kernLeft = S;
kernRight = S;
lastChange = "2022-07-21 12:26:04 +0000";
layers = (
{
anchors = (
{
name = bottom;
pos = (631,-478);
},
{
name = top;
pos = (625,1238);
}
);
layerId = "5521DC30-183F-421A-91F3-644B5E24AFE6";
shapes = (
{
closed = 1;
nodes = (
(792,-475,o),
(981,-406,o),
(981,-266,cs),
(981,-158,o),
(872,-112,o),
(781,-112,cs),
(729,-112,o),
(682,-122,o),
(644,-153,c),
(691,-19,l),
(984,2,o),
(1173,153,o),
(1173,375,cs),
(1173,607,o),
(976,706,o),
(723,764,cs),
(559,802,o),
(482,843,o),
(482,897,cs),
(482,947,o),
(532,983,o),
(621,983,cs),
(703,983,o),
(757,955,o),
(792,921,cs),
(830,885,o),
(891,828,o),
(981,828,cs),
(1070,828,o),
(1130,883,o),
(1130,973,cs),
(1130,1049,o),
(1087,1108,o),
(1023,1152,cs),
(927,1217,o),
(780,1250,o),
(640,1250,cs),
(325,1250,o),
(96,1110,o),
(96,891,cs),
(96,696,o),
(228,542,o),
(554,472,cs),
(714,438,o),
(787,418,o),
(787,349,cs),
(787,285,o),
(723,246,o),
(627,246,cs),
(531,246,o),
(476,293,o),
(424,341,cs),
(372,389,o),
(315,433,o),
(226,433,cs),
(119,433,o),
(75,353,o),
(75,286,cs),
(75,210,o),
(113,144,o),
(184,92,cs),
(258,37,o),
(366,-1,o),
(499,-15,c),
(452,-141,ls),
(446,-156,o),
(442,-172,o),
(442,-187,cs),
(442,-230,o),
(468,-266,o),
(527,-266,cs),
(552,-266,o),
(577,-261,o),
(603,-253,cs),
(627,-246,o),
(653,-242,o),
(678,-242,cs),
(707,-242,o),
(724,-252,o),
(724,-272,cs),
(724,-302,o),
(682,-317,o),
(615,-317,cs),
(578,-317,o),
(549,-316,o),
(523,-309,cs),
(501,-303,o),
(480,-299,o),
(461,-299,cs),
(424,-299,o),
(388,-324,o),
(388,-371,cs),
(388,-405,o),
(409,-434,o),
(456,-455,cs),
(487,-469,o),
(531,-475,o),
(589,-475,cs)
);
}
);
width = 1238;
},
{
anchors = (
{
name = bottom;
pos = (636,-410);
},
{
name = top;
pos = (624,1250);
}
);
layerId = "BE68D89F-AB3F-4BDF-B332-ED50D7C47704";
shapes = (
{
closed = 1;
nodes = (
(733,-416,o),
(856,-353,o),
(856,-222,cs),
(856,-144,o),
(794,-112,o),
(727,-112,cs),
(681,-112,o),
(634,-128,o),
(604,-145,c),
(641,-21,l),
(869,-15,o),
(1071,102,o),
(1071,305,cs),
(1071,495,o),
(931,590,o),
(616,682,cs),
(383,750,o),
(266,819,o),
(266,962,cs),
(266,1103,o),
(444,1187,o),
(624,1187,cs),
(780,1187,o),
(898,1122,o),
(956,1035,cs),
(971,1012,o),
(986,999,o),
(1001,999,cs),
(1014,999,o),
(1031,1010,o),
(1031,1029,cs),
(1031,1041,o),
(1026,1054,o),
(1016,1069,cs),
(941,1180,o),
(800,1250,o),
(624,1250,cs),
(400,1250,o),
(198,1146,o),
(198,962,cs),
(198,777,o),
(338,691,o),
(616,614,cs),
(862,546,o),
(1003,461,o),
(1003,304,cs),
(1003,139,o),
(814,42,o),
(622,42,cs),
(437,42,o),
(311,110,o),
(242,206,cs),
(226,228,o),
(212,240,o),
(196,240,cs),
(181,240,o),
(161,229,o),
(161,208,cs),
(161,197,o),
(166,182,o),
(178,167,cs),
(255,66,o),
(391,-10,o),
(581,-20,c),
(543,-140,ls),
(539,-152,o),
(535,-166,o),
(535,-174,cs),
(535,-193,o),
(546,-199,o),
(562,-199,cs),
(580,-199,o),
(596,-194,o),
(614,-187,cs),
(638,-177,o),
(667,-169,o),
(712,-169,cs),
(753,-169,o),
(786,-188,o),
(786,-236,cs),
(786,-314,o),
(697,-355,o),
(591,-355,cs),
(570,-355,o),
(539,-353,o),
(525,-350,cs),
(515,-348,o),
(507,-347,o),
(498,-347,cs),
(474,-347,o),
(462,-356,o),
(462,-375,cs),
(462,-390,o),
(479,-403,o),
(513,-410,cs),
(538,-415,o),
(564,-416,o),
(588,-416,cs)
);
}
);
width = 1238;
},
{
anchors = (
{
name = bottom;
pos = (636,-410);
},
{
name = top;
pos = (608,1250);
}
);
layerId = "8A001557-9052-48C4-99E5-0FAF857062F1";
shapes = (
{
closed = 1;
nodes = (
(721,-416,o),
(844,-353,o),
(844,-222,cs),
(844,-144,o),
(782,-112,o),
(715,-112,cs),
(669,-112,o),
(622,-128,o),
(592,-145,c),
(629,-21,l),
(858,-16,o),
(1062,101,o),
(1062,305,cs),
(1062,495,o),
(922,590,o),
(607,682,cs),
(374,750,o),
(257,819,o),
(257,962,cs),
(257,1103,o),
(435,1187,o),
(615,1187,cs),
(771,1187,o),
(889,1122,o),
(947,1035,cs),
(962,1012,o),
(977,999,o),
(992,999,cs),
(1005,999,o),
(1022,1010,o),
(1022,1029,cs),
(1022,1041,o),
(1017,1054,o),
(1007,1069,cs),
(932,1180,o),
(791,1250,o),
(615,1250,cs),
(391,1250,o),
(189,1146,o),
(189,962,cs),
(189,777,o),
(329,691,o),
(607,614,cs),
(853,546,o),
(994,461,o),
(994,304,cs),
(994,139,o),
(805,42,o),
(613,42,cs),
(428,42,o),
(302,110,o),
(233,206,cs),
(217,228,o),
(203,240,o),
(187,240,cs),
(172,240,o),
(152,229,o),
(152,208,cs),
(152,197,o),
(157,182,o),
(169,167,cs),
(245,67,o),
(381,-9,o),
(569,-20,c),
(531,-140,ls),
(527,-152,o),
(523,-166,o),
(523,-174,cs),
(523,-193,o),
(534,-199,o),
(550,-199,cs),
(568,-199,o),
(584,-194,o),
(602,-187,cs),
(626,-177,o),
(655,-169,o),
(700,-169,cs),
(741,-169,o),
(774,-188,o),
(774,-236,cs),
(774,-314,o),
(685,-355,o),
(579,-355,cs),
(558,-355,o),
(527,-353,o),
(513,-350,cs),
(503,-348,o),
(495,-347,o),
(486,-347,cs),
(462,-347,o),
(450,-356,o),
(450,-375,cs),
(450,-390,o),
(467,-403,o),
(501,-410,cs),
(526,-415,o),
(552,-416,o),
(576,-416,cs)
);
}
);
width = 1190;
},
{
anchors = (
{
name = bottom;
pos = (631,-478);
},
{
name = top;
pos = (598,1238);
}
);
layerId = "324E61BF-7061-45AA-9F81-5D4ECCAA9032";
shapes = (
{
closed = 1;
nodes = (
(765,-475,o),
(954,-406,o),
(954,-266,cs),
(954,-158,o),
(845,-112,o),
(754,-112,cs),
(702,-112,o),
(655,-122,o),
(617,-153,c),
(664,-19,l),
(957,2,o),
(1146,153,o),
(1146,375,cs),
(1146,607,o),
(949,706,o),
(696,764,cs),
(532,802,o),
(460,843,o),
(460,897,cs),
(460,947,o),
(505,983,o),
(594,983,cs),
(676,983,o),
(730,955,o),
(765,921,cs),
(803,885,o),
(864,828,o),
(954,828,cs),
(1043,828,o),
(1103,883,o),
(1103,973,cs),
(1103,1049,o),
(1060,1108,o),
(996,1152,cs),
(900,1217,o),
(753,1250,o),
(613,1250,cs),
(298,1250,o),
(74,1110,o),
(74,891,cs),
(74,696,o),
(201,542,o),
(527,472,cs),
(687,438,o),
(760,418,o),
(760,349,cs),
(760,285,o),
(696,246,o),
(600,246,cs),
(504,246,o),
(449,293,o),
(397,341,cs),
(345,389,o),
(288,433,o),
(199,433,cs),
(92,433,o),
(48,353,o),
(48,286,cs),
(48,210,o),
(86,144,o),
(157,92,cs),
(231,37,o),
(339,-1,o),
(472,-15,c),
(425,-141,ls),
(419,-156,o),
(415,-172,o),
(415,-187,cs),
(415,-230,o),
(441,-266,o),
(500,-266,cs),
(525,-266,o),
(550,-261,o),
(576,-253,cs),
(600,-246,o),
(626,-242,o),
(651,-242,cs),
(680,-242,o),
(697,-252,o),
(697,-272,cs),
(697,-302,o),
(655,-317,o),
(588,-317,cs),
(551,-317,o),
(522,-316,o),
(496,-309,cs),
(474,-303,o),
(453,-299,o),
(434,-299,cs),
(397,-299,o),
(361,-324,o),
(361,-371,cs),
(361,-405,o),
(382,-434,o),
(429,-455,cs),
(460,-469,o),
(504,-475,o),
(562,-475,cs)
);
}
);
width = 1194;
}
);
unicode = 350;
},
{
color = 6;
glyphname = Germandbls;
lastChange = "2022-07-21 12:26:04 +0000";
layers = (
{
layerId = "BE68D89F-AB3F-4BDF-B332-ED50D7C47704";
shapes = (
{
closed = 1;
nodes = (
(711,766,o),
(742,795,o),
(775,830,cs),
(858,920,o),
(979,1024,o),
(979,1127,cs),
(979,1215,o),
(916,1238,o),
(841,1238,cs),
(508,1238,ls),
(302,1238,o),
(219,1166,o),
(219,901,cs),
(219,57,ls),
(219,20,o),
(230,0,o),
(250,0,cs),
(270,0,o),
(282,20,o),
(282,57,cs),
(282,890,ls),
(282,1154,o),
(352,1177,o),
(508,1177,cs),
(839,1177,ls),
(873,1177,o),
(912,1170,o),
(912,1120,cs),
(912,1045,o),
(813,961,o),
(731,875,cs),
(692,835,o),
(646,794,o),
(646,728,cs),
(646,665,o),
(695,622,o),
(757,592,cs),
(843,550,o),
(987,468,o),
(987,290,cs),
(987,88,o),
(796,42,o),
(644,42,cs),
(576,42,o),
(536,51,o),
(505,59,cs),
(483,65,o),
(462,69,o),
(441,69,cs),
(417,69,o),
(405,61,o),
(405,45,cs),
(405,-7,o),
(541,-21,o),
(644,-21,cs),
(874,-21,o),
(1055,80,o),
(1055,290,cs),
(1055,506,o),
(880,604,o),
(790,647,cs),
(745,669,o),
(711,696,o),
(711,730,cs)
);
}
);
width = 1238;
},
{
layerId = "5521DC30-183F-421A-91F3-644B5E24AFE6";
shapes = (
{
closed = 1;
nodes = (
(913,703,o),
(948,748,o),
(991,796,cs),
(1052,865,o),
(1112,937,o),
(1112,1041,cs),
(1112,1150,o),
(1054,1238,o),
(925,1238,cs),
(471,1238,ls),
(278,1238,o),
(57,1169,o),
(57,830,cs),
(57,210,ls),
(57,73,o),
(120,0,o),
(235,0,cs),
(350,0,o),
(413,73,o),
(413,210,cs),
(413,809,ls),
(413,941,o),
(468,975,o),
(564,975,cs),
(661,975,ls),
(706,975,o),
(718,965,o),
(718,938,cs),
(718,906,o),
(671,856,o),
(637,824,cs),
(590,779,o),
(550,739,o),
(550,642,cs),
(550,551,o),
(632,492,o),
(694,460,cs),
(744,434,o),
(855,375,o),
(855,326,cs),
(855,280,o),
(817,263,o),
(710,263,cs),
(688,263,o),
(667,264,o),
(647,267,cs),
(629,270,o),
(610,271,o),
(592,271,cs),
(548,271,o),
(470,250,o),
(470,143,cs),
(470,24,o),
(576,-21,o),
(710,-21,cs),
(959,-21,o),
(1187,80,o),
(1187,323,cs),
(1187,488,o),
(1086,555,o),
(999,603,cs),
(941,635,o),
(913,651,o),
(913,676,cs)
);
}
);
width = 1238;
},
{
layerId = "8A001557-9052-48C4-99E5-0FAF857062F1";
shapes = (
{
closed = 1;
nodes = (
(667,766,o),
(698,795,o),
(731,830,cs),
(814,920,o),
(935,1024,o),
(935,1127,cs),
(935,1215,o),
(872,1238,o),
(797,1238,cs),
(464,1238,ls),
(258,1238,o),
(175,1166,o),
(175,901,cs),
(175,57,ls),
(175,20,o),
(186,0,o),
(206,0,cs),
(226,0,o),
(238,20,o),
(238,57,cs),
(238,890,ls),
(238,1154,o),
(308,1177,o),
(464,1177,cs),
(795,1177,ls),
(829,1177,o),
(868,1170,o),
(868,1120,cs),
(868,1045,o),
(769,961,o),
(687,875,cs),
(648,835,o),
(602,794,o),
(602,728,cs),
(602,665,o),
(651,622,o),
(713,592,cs),
(799,550,o),
(943,468,o),
(943,290,cs),
(943,88,o),
(752,42,o),
(600,42,cs),
(532,42,o),
(492,51,o),
(461,59,cs),
(439,65,o),
(418,69,o),
(397,69,cs),
(373,69,o),
(361,61,o),
(361,45,cs),
(361,-7,o),
(497,-21,o),
(600,-21,cs),
(830,-21,o),
(1011,80,o),
(1011,290,cs),
(1011,506,o),
(836,604,o),
(746,647,cs),
(701,669,o),
(667,696,o),
(667,730,cs)
);
}
);
width = 1146;
},
{
layerId = "324E61BF-7061-45AA-9F81-5D4ECCAA9032";
shapes = (
{
closed = 1;
nodes = (
(924,703,o),
(959,748,o),
(1002,796,cs),
(1063,865,o),
(1123,937,o),
(1123,1041,cs),
(1123,1150,o),
(1065,1238,o),
(936,1238,cs),
(482,1238,ls),
(289,1238,o),
(68,1169,o),
(68,830,cs),
(68,210,ls),
(68,73,o),
(131,0,o),
(246,0,cs),
(361,0,o),
(424,73,o),
(424,210,cs),
(424,809,ls),
(424,941,o),
(479,975,o),
(575,975,cs),
(672,975,ls),
(717,975,o),
(729,965,o),
(729,938,cs),
(729,906,o),
(682,856,o),
(648,824,cs),
(601,779,o),
(561,739,o),
(561,642,cs),
(561,551,o),
(643,492,o),
(705,460,cs),
(755,434,o),
(866,375,o),
(866,326,cs),
(866,280,o),
(828,263,o),
(721,263,cs),
(699,263,o),
(678,264,o),
(658,267,cs),
(640,270,o),
(621,271,o),
(603,271,cs),
(559,271,o),
(481,250,o),
(481,143,cs),
(481,24,o),
(587,-21,o),
(721,-21,cs),
(970,-21,o),
(1198,80,o),
(1198,323,cs),
(1198,488,o),
(1097,555,o),
(1010,603,cs),
(952,635,o),
(924,651,o),
(924,676,cs)
);
}
);
width = 1246;
}
);
unicode = 7838;
},
{
color = 6;
glyphname = T;
kernLeft = T;
kernRight = T;
lastChange = "2022-07-21 12:26:04 +0000";
layers = (
{
anchors = (
{
name = bottom;
pos = (710,15);
},
{
name = center;
pos = (621,667);
},
{
name = top;
pos = (621,1238);
}
);
layerId = "5521DC30-183F-421A-91F3-644B5E24AFE6";
shapes = (
{
closed = 1;
nodes = (
(282,1238,ls),
(146,1238,o),
(72,1191,o),
(72,1105,cs),
(72,1018,o),
(146,971,o),
(282,971,cs),
(428,971,l),
(428,190,ls),
(428,54,o),
(494,-19,o),
(618,-19,cs),
(742,-19,o),
(809,54,o),
(809,190,cs),
(809,971,l),
(997,971,ls),
(1107,971,o),
(1166,1018,o),
(1166,1105,cs),
(1166,1191,o),
(1092,1238,o),
(956,1238,cs)
);
}
);
width = 1238;
},
{
anchors = (
{
name = bottom;
pos = (645,15);
},
{
name = center;
pos = (621,667);
},
{
name = top;
pos = (621,1238);
}
);
layerId = "BE68D89F-AB3F-4BDF-B332-ED50D7C47704";
shapes = (
{
closed = 1;
nodes = (
(217,1238,ls),
(180,1238,o),
(160,1227,o),
(160,1208,cs),
(160,1189,o),
(180,1177,o),
(217,1177,cs),
(587,1177,l),
(587,48,ls),
(587,10,o),
(598,-10,o),
(618,-10,cs),
(638,-10,o),
(650,10,o),
(650,48,cs),
(650,1177,l),
(1021,1177,ls),
(1058,1177,o),
(1078,1189,o),
(1078,1208,cs),
(1078,1227,o),
(1058,1238,o),
(1021,1238,cs)
);
}
);
width = 1238;
},
{
anchors = (
{
name = bottom;
pos = (560,15);
},
{
name = center;
pos = (536,667);
},
{
name = top;
pos = (536,1238);
}
);
layerId = "8A001557-9052-48C4-99E5-0FAF857062F1";
shapes = (
{
closed = 1;
nodes = (
(132,1238,ls),
(95,1238,o),
(75,1227,o),
(75,1208,cs),
(75,1189,o),
(95,1177,o),
(132,1177,cs),
(502,1177,l),
(502,48,ls),
(502,10,o),
(513,-10,o),
(533,-10,cs),
(553,-10,o),
(565,10,o),
(565,48,cs),
(565,1177,l),
(936,1177,ls),
(973,1177,o),
(993,1189,o),
(993,1208,cs),
(993,1227,o),
(973,1238,o),
(936,1238,cs)
);
}
);
width = 1068;
},
{
anchors = (
{
name = bottom;
pos = (658,15);
},
{
name = center;
pos = (567,667);
},
{
name = top;
pos = (567,1238);
}
);
layerId = "324E61BF-7061-45AA-9F81-5D4ECCAA9032";
shapes = (
{
closed = 1;
nodes = (
(228,1238,ls),
(102,1238,o),
(28,1191,o),
(28,1105,cs),
(28,1018,o),
(102,971,o),
(228,971,cs),
(374,971,l),
(374,190,ls),
(374,54,o),
(440,-19,o),
(564,-19,cs),
(688,-19,o),
(755,54,o),
(755,190,cs),
(755,971,l),
(923,971,ls),
(1023,971,o),
(1102,1018,o),
(1102,1105,cs),
(1102,1191,o),
(1038,1238,o),
(912,1238,cs)
);
}
);
width = 1130;
}
);
unicode = 84;
},
{
color = 3;
glyphname = Tbar;
kernLeft = T;
kernRight = T;
lastChange = "2022-07-21 12:26:04 +0000";
layers = (
{
layerId = "5521DC30-183F-421A-91F3-644B5E24AFE6";
shapes = (
{
ref = T;
},
{
closed = 1;
nodes = (
(239,592,o),
(324,552,o),
(479,552,cs),
(763,552,ls),
(919,552,o),
(1003,592,o),
(1003,666,cs),
(1003,741,o),
(919,781,o),
(763,781,cs),
(479,781,ls),
(324,781,o),
(239,741,o),
(239,666,cs)
);
}
);
width = 1238;
},
{
layerId = "BE68D89F-AB3F-4BDF-B332-ED50D7C47704";
shapes = (
{
ref = T;
},
{
closed = 1;
nodes = (
(296,647,o),
(319,637,o),
(361,637,cs),
(880,637,ls),
(924,637,o),
(947,648,o),
(947,667,cs),
(947,686,o),
(924,698,o),
(880,698,cs),
(361,698,ls),
(319,698,o),
(296,686,o),
(296,667,cs)
);
}
);
width = 1238;
},
{
layerId = "8A001557-9052-48C4-99E5-0FAF857062F1";
shapes = (
{
ref = T;
},
{
closed = 1;
nodes = (
(210,647,o),
(233,637,o),
(275,637,cs),
(794,637,ls),
(838,637,o),
(861,648,o),
(861,667,cs),
(861,686,o),
(838,698,o),
(794,698,cs),
(275,698,ls),
(233,698,o),
(210,686,o),
(210,667,cs)
);
}
);
width = 1068;
},
{
layerId = "324E61BF-7061-45AA-9F81-5D4ECCAA9032";
shapes = (
{
ref = T;
},
{
closed = 1;
nodes = (
(207,592,o),
(262,552,o),
(417,552,cs),
(701,552,ls),
(857,552,o),
(911,592,o),
(911,666,cs),
(911,741,o),
(857,781,o),
(701,781,cs),
(417,781,ls),
(262,781,o),
(207,741,o),
(207,666,cs)
);
}
);
width = 1130;
}
);
unicode = 358;
},
{
color = 6;
glyphname = U;
kernLeft = U;
kernRight = U;
lastChange = "2022-07-21 12:26:04 +0000";
layers = (
{
anchors = (
{
name = bottom;
pos = (618,0);
},
{
name = ogonek;
pos = (782,0);
},
{
name = top;
pos = (618,1238);
},
{
name = topright;
pos = (967,1238);
}
);
layerId = "5521DC30-183F-421A-91F3-644B5E24AFE6";
shapes = (
{
closed = 1;
nodes = (
(917,-21,o),
(1157,123,o),
(1157,508,cs),
(1157,1029,ls),
(1157,1165,o),
(1090,1238,o),
(967,1238,cs),
(843,1238,o),
(776,1165,o),
(776,1029,cs),
(776,529,ls),
(776,355,o),
(727,246,o),
(620,246,cs),
(513,246,o),
(462,355,o),
(462,529,cs),
(462,1029,ls),
(462,1165,o),
(395,1238,o),
(271,1238,cs),
(148,1238,o),
(81,1165,o),
(81,1029,cs),
(81,508,ls),
(81,123,o),
(325,-21,o),
(620,-21,cs)
);
}
);
width = 1238;
},
{
anchors = (
{
name = bottom;
pos = (618,0);
},
{
name = ogonek;
pos = (738,0);
},
{
name = top;
pos = (618,1238);
},
{
name = topright;
pos = (1034,1238);
}
);
layerId = "BE68D89F-AB3F-4BDF-B332-ED50D7C47704";
shapes = (
{
closed = 1;
nodes = (
(871,-21,o),
(1066,147,o),
(1066,541,cs),
(1066,1181,ls),
(1066,1218,o),
(1054,1238,o),
(1034,1238,cs),
(1014,1238,o),
(1003,1218,o),
(1003,1181,cs),
(1003,545,ls),
(1003,211,o),
(854,42,o),
(620,42,cs),
(388,42,o),
(235,211,o),
(235,545,cs),
(235,1181,ls),
(235,1218,o),
(224,1238,o),
(204,1238,cs),
(184,1238,o),
(172,1218,o),
(172,1181,cs),
(172,541,ls),
(172,147,o),
(370,-21,o),
(620,-21,cs)
);
}
);
width = 1238;
},
{
anchors = (
{
name = bottom;
pos = (621,0);
},
{
name = ogonek;
pos = (741,0);
},
{
name = top;
pos = (621,1238);
},
{
name = topright;
pos = (1037,1238);
}
);
layerId = "8A001557-9052-48C4-99E5-0FAF857062F1";
shapes = (
{
closed = 1;
nodes = (
(874,-21,o),
(1069,147,o),
(1069,541,cs),
(1069,1181,ls),
(1069,1218,o),
(1057,1238,o),
(1037,1238,cs),
(1017,1238,o),
(1006,1218,o),
(1006,1181,cs),
(1006,545,ls),
(1006,211,o),
(857,42,o),
(623,42,cs),
(391,42,o),
(238,211,o),
(238,545,cs),
(238,1181,ls),
(238,1218,o),
(227,1238,o),
(207,1238,cs),
(187,1238,o),
(175,1218,o),
(175,1181,cs),
(175,541,ls),
(175,147,o),
(373,-21,o),
(623,-21,cs)
);
}
);
width = 1244;
},
{
anchors = (
{
name = bottom;
pos = (615,0);
},
{
name = ogonek;
pos = (779,0);
},
{
name = top;
pos = (615,1238);
},
{
name = topright;
pos = (964,1238);
}
);
layerId = "324E61BF-7061-45AA-9F81-5D4ECCAA9032";
shapes = (
{
closed = 1;
nodes = (
(914,-21,o),
(1154,123,o),
(1154,508,cs),
(1154,1029,ls),
(1154,1165,o),
(1087,1238,o),
(964,1238,cs),
(840,1238,o),
(773,1165,o),
(773,1029,cs),
(773,529,ls),
(773,355,o),
(724,246,o),
(617,246,cs),
(510,246,o),
(459,355,o),
(459,529,cs),
(459,1029,ls),
(459,1165,o),
(392,1238,o),
(268,1238,cs),
(145,1238,o),
(78,1165,o),
(78,1029,cs),
(78,508,ls),
(78,123,o),
(322,-21,o),
(617,-21,cs)
);
}
);
width = 1232;
}
);
unicode = 85;
},
{
color = 6;
glyphname = Uhorn;
lastChange = "2022-07-21 12:26:04 +0000";
layers = (
{
anchors = (
{
name = bottom;
pos = (610,0);
},
{
name = ogonek;
pos = (730,0);
},
{
name = top;
pos = (610,1238);
},
{
name = topright;
pos = (1026,1238);
}
);
layerId = "BE68D89F-AB3F-4BDF-B332-ED50D7C47704";
shapes = (
{
closed = 1;
nodes = (
(874,-21,o),
(1068,147,o),
(1068,541,cs),
(1068,1175,l),
(1087,1175,ls),
(1256,1175,o),
(1360,1360,o),
(1360,1494,cs),
(1360,1526,o),
(1351,1550,o),
(1326,1550,cs),
(1302,1550,o),
(1293,1530,o),
(1287,1496,cs),
(1267,1373,o),
(1216,1238,o),
(1037,1238,cs),
(1017,1238,o),
(1005,1218,o),
(1005,1181,cs),
(1005,545,ls),
(1005,211,o),
(857,42,o),
(622,42,cs),
(390,42,o),
(238,211,o),
(238,545,cs),
(238,1181,ls),
(238,1218,o),
(226,1238,o),
(206,1238,cs),
(186,1238,o),
(175,1218,o),
(175,1181,cs),
(175,541,ls),
(175,147,o),
(373,-21,o),
(622,-21,cs)
);
}
);
width = 1238;
},
{
anchors = (
{
name = bottom;
pos = (610,0);
},
{
name = ogonek;
pos = (773,0);
},
{
name = top;
pos = (610,1238);
},
{
name = topright;
pos = (958,1238);
}
);
layerId = "5521DC30-183F-421A-91F3-644B5E24AFE6";
shapes = (
{
closed = 1;
nodes = (
(915,-21,o),
(1155,103,o),
(1155,488,cs),
(1155,1081,l),
(1170,1081,ls),
(1351,1081,o),
(1441,1247,o),
(1441,1408,cs),
(1441,1515,o),
(1393,1550,o),
(1304,1550,cs),
(1223,1550,o),
(1182,1493,o),
(1167,1418,cs),
(1139,1277,o),
(1096,1238,o),
(964,1238,cs),
(840,1238,o),
(774,1165,o),
(774,1029,cs),
(774,509,ls),
(774,335,o),
(724,246,o),
(617,246,cs),
(511,246,o),
(459,335,o),
(459,509,cs),
(459,1029,ls),
(459,1165,o),
(393,1238,o),
(269,1238,cs),
(145,1238,o),
(78,1165,o),
(78,1029,cs),
(78,488,ls),
(78,103,o),
(322,-21,o),
(617,-21,cs)
);
}
);
width = 1238;
},
{
anchors = (
{
name = bottom;
pos = (621,0);
},
{
name = ogonek;
pos = (741,0);
},
{
name = top;
pos = (621,1238);
},
{
name = topright;
pos = (1037,1238);
}
);
layerId = "8A001557-9052-48C4-99E5-0FAF857062F1";
shapes = (
{
closed = 1;
nodes = (
(874,-21,o),
(1068,147,o),
(1068,541,cs),
(1068,1175,l),
(1087,1175,ls),
(1256,1175,o),
(1360,1360,o),
(1360,1494,cs),
(1360,1526,o),
(1351,1550,o),
(1326,1550,cs),
(1302,1550,o),
(1293,1530,o),
(1287,1496,cs),
(1267,1373,o),
(1216,1238,o),
(1037,1238,cs),
(1017,1238,o),
(1005,1218,o),
(1005,1181,cs),
(1005,545,ls),
(1005,211,o),
(857,42,o),
(622,42,cs),
(390,42,o),
(238,211,o),
(238,545,cs),
(238,1181,ls),
(238,1218,o),
(226,1238,o),
(206,1238,cs),
(186,1238,o),
(175,1218,o),
(175,1181,cs),
(175,541,ls),
(175,147,o),
(373,-21,o),
(622,-21,cs)
);
}
);
width = 1274;
},
{
anchors = (
{
name = bottom;
pos = (616,0);
},
{
name = ogonek;
pos = (779,0);
},
{
name = top;
pos = (616,1238);
},
{
name = topright;
pos = (964,1238);
}
);
layerId = "324E61BF-7061-45AA-9F81-5D4ECCAA9032";
shapes = (
{
closed = 1;
nodes = (
(915,-21,o),
(1155,103,o),
(1155,488,cs),
(1155,1081,l),
(1170,1081,ls),
(1351,1081,o),
(1441,1247,o),
(1441,1408,cs),
(1441,1515,o),
(1393,1550,o),
(1304,1550,cs),
(1223,1550,o),
(1182,1493,o),
(1167,1418,cs),
(1139,1277,o),
(1096,1238,o),
(964,1238,cs),
(840,1238,o),
(774,1165,o),
(774,1029,cs),
(774,509,ls),
(774,335,o),
(724,246,o),
(617,246,cs),
(511,246,o),
(459,335,o),
(459,509,cs),
(459,1029,ls),
(459,1165,o),
(393,1238,o),
(269,1238,cs),
(145,1238,o),
(78,1165,o),
(78,1029,cs),
(78,488,ls),
(78,103,o),
(322,-21,o),
(617,-21,cs)
);
}
);
width = 1349;
}
);
unicode = 431;
},
{
color = 3;
glyphname = Uogonek;
kernLeft = U;
kernRight = U;
lastChange = "2022-07-21 12:26:04 +0000";
layers = (
{
layerId = "5521DC30-183F-421A-91F3-644B5E24AFE6";
shapes = (
{
closed = 1;
nodes = (
(1036,-428,o),
(1144,-384,o),
(1144,-290,cs),
(1144,-237,o),
(1123,-199,o),
(1064,-199,cs),
(1045,-199,o),
(1021,-201,o),
(995,-208,cs),
(977,-213,o),
(939,-218,o),
(922,-218,cs),
(871,-218,o),
(846,-194,o),
(846,-139,cs),
(846,-63,o),
(915,35,o),
(955,60,c),
(790,60,l),
(703,41,o),
(581,-74,o),
(581,-223,cs),
(581,-382,o),
(731,-428,o),
(890,-428,cs)
);
},
{
ref = U;
}
);
width = 1238;
},
{
layerId = "BE68D89F-AB3F-4BDF-B332-ED50D7C47704";
shapes = (
{
closed = 1;
nodes = (
(909,-392,o),
(974,-385,o),
(974,-351,cs),
(974,-335,o),
(959,-323,o),
(935,-323,cs),
(928,-323,o),
(919,-324,o),
(910,-326,cs),
(893,-329,o),
(874,-331,o),
(855,-331,cs),
(792,-331,o),
(733,-300,o),
(733,-223,cs),
(733,-119,o),
(814,15,o),
(862,47,c),
(828,47,l),
(774,47,o),
(662,-108,o),
(662,-221,cs),
(662,-337,o),
(756,-392,o),
(862,-392,cs)
);
},
{
ref = U;
}
);
width = 1238;
},
{
layerId = "8A001557-9052-48C4-99E5-0FAF857062F1";
shapes = (
{
closed = 1;
nodes = (
(934,-392,o),
(999,-385,o),
(999,-351,cs),
(999,-335,o),
(984,-323,o),
(960,-323,cs),
(953,-323,o),
(944,-324,o),
(935,-326,cs),
(918,-329,o),
(899,-331,o),
(880,-331,cs),
(817,-331,o),
(758,-300,o),
(758,-223,cs),
(758,-119,o),
(839,15,o),
(887,47,c),
(853,47,l),
(799,47,o),
(687,-108,o),
(687,-221,cs),
(687,-337,o),
(781,-392,o),
(887,-392,cs)
);
},
{
ref = U;
}
);
width = 1288;
},
{
layerId = "324E61BF-7061-45AA-9F81-5D4ECCAA9032";
shapes = (
{
closed = 1;
nodes = (
(1044,-428,o),
(1152,-384,o),
(1152,-290,cs),
(1152,-237,o),
(1131,-199,o),
(1072,-199,cs),
(1053,-199,o),
(1029,-201,o),
(1003,-208,cs),
(985,-213,o),
(947,-218,o),
(930,-218,cs),
(879,-218,o),
(854,-194,o),
(854,-139,cs),
(854,-63,o),
(923,35,o),
(963,60,c),
(798,60,l),
(711,41,o),
(589,-74,o),
(589,-223,cs),
(589,-382,o),
(739,-428,o),
(898,-428,cs)
);
},
{
ref = U;
}
);
width = 1254;
}
);
unicode = 370;
},
{
color = 6;
glyphname = V;
kernLeft = V;
kernRight = V;
lastChange = "2022-07-21 12:26:04 +0000";
layers = (
{
anchors = (
{
name = bottom;
pos = (610,0);
},
{
name = top;
pos = (612,1238);
}
);
layerId = "5521DC30-183F-421A-91F3-644B5E24AFE6";
shapes = (
{
closed = 1;
nodes = (
(790,0,o),
(874,62,o),
(912,185,cs),
(1169,1017,ls),
(1176,1039,o),
(1176,1059,o),
(1176,1078,cs),
(1176,1185,o),
(1098,1248,o),
(992,1248,cs),
(865,1248,o),
(825,1184,o),
(795,1058,cs),
(617,320,l),
(440,1058,ls),
(410,1184,o),
(370,1248,o),
(242,1248,cs),
(136,1248,o),
(58,1187,o),
(58,1079,cs),
(58,1060,o),
(59,1039,o),
(66,1017,cs),
(322,185,ls),
(360,62,o),
(444,0,o),
(590,0,cs),
(645,0,ls)
);
}
);
width = 1238;
},
{
anchors = (
{
name = bottom;
pos = (621,0);
},
{
name = top;
pos = (621,1238);
}
);
layerId = "BE68D89F-AB3F-4BDF-B332-ED50D7C47704";
shapes = (
{
closed = 1;
nodes = (
(655,-10,o),
(677,6,o),
(688,38,cs),
(1083,1183,ls),
(1087,1194,o),
(1090,1208,o),
(1090,1215,cs),
(1090,1238,o),
(1081,1248,o),
(1062,1248,cs),
(1042,1248,o),
(1031,1232,o),
(1020,1200,cs),
(623,54,l),
(228,1200,ls),
(217,1232,o),
(210,1248,o),
(190,1248,cs),
(174,1248,o),
(156,1239,o),
(156,1217,cs),
(156,1210,o),
(160,1194,o),
(164,1183,cs),
(558,38,ls),
(569,6,o),
(590,-10,o),
(622,-10,cs),
(623,-10,ls)
);
}
);
width = 1238;
},
{
anchors = (
{
name = bottom;
pos = (530,0);
},
{
name = top;
pos = (530,1238);
}
);
layerId = "8A001557-9052-48C4-99E5-0FAF857062F1";
shapes = (
{
closed = 1;
nodes = (
(564,-10,o),
(586,6,o),
(597,38,cs),
(992,1183,ls),
(996,1194,o),
(999,1208,o),
(999,1215,cs),
(999,1238,o),
(990,1248,o),
(971,1248,cs),
(951,1248,o),
(940,1232,o),
(929,1200,cs),
(532,54,l),
(137,1200,ls),
(126,1232,o),
(119,1248,o),
(99,1248,cs),
(83,1248,o),
(65,1239,o),
(65,1217,cs),
(65,1210,o),
(69,1194,o),
(73,1183,cs),
(467,38,ls),
(478,6,o),
(499,-10,o),
(531,-10,cs),
(532,-10,ls)
);
}
);
width = 1064;
},
{
anchors = (
{
name = bottom;
pos = (580,0);
},
{
name = top;
pos = (582,1238);
}
);
layerId = "324E61BF-7061-45AA-9F81-5D4ECCAA9032";
shapes = (
{
closed = 1;
nodes = (
(760,0,o),
(844,62,o),
(882,185,cs),
(1139,1017,ls),
(1146,1039,o),
(1146,1059,o),
(1146,1078,cs),
(1146,1185,o),
(1068,1248,o),
(962,1248,cs),
(835,1248,o),
(795,1184,o),
(765,1058,cs),
(587,320,l),
(410,1058,ls),
(380,1184,o),
(340,1248,o),
(212,1248,cs),
(106,1248,o),
(28,1187,o),
(28,1079,cs),
(28,1060,o),
(29,1039,o),
(36,1017,cs),
(292,185,ls),
(330,62,o),
(414,0,o),
(560,0,cs),
(615,0,ls)
);
}
);
width = 1174;
}
);
unicode = 86;
},
{
color = 6;
glyphname = W;
kernLeft = V;
kernRight = V;
lastChange = "2022-07-21 12:26:04 +0000";
layers = (
{
anchors = (
{
name = bottom;
pos = (621,0);
},
{
name = top;
pos = (621,1238);
}
);
layerId = "5521DC30-183F-421A-91F3-644B5E24AFE6";
shapes = (
{
closed = 1;
nodes = (
(342,-19,ls),
(472,-19,o),
(556,47,o),
(572,177,cs),
(617,548,l),
(664,177,ls),
(680,47,o),
(764,-19,o),
(894,-19,cs),
(905,-19,ls),
(1037,-19,o),
(1127,50,o),
(1140,183,cs),
(1151,297,o),
(1200,987,o),
(1200,1065,cs),
(1200,1183,o),
(1134,1248,o),
(1023,1248,cs),
(899,1248,o),
(835,1176,o),
(835,1040,cs),
(835,418,l),
(764,918,ls),
(745,1049,o),
(709,1105,o),
(617,1105,cs),
(526,1105,o),
(489,1049,o),
(470,918,cs),
(396,414,l),
(396,1040,ls),
(396,1176,o),
(344,1248,o),
(220,1248,cs),
(109,1248,o),
(34,1183,o),
(34,1065,cs),
(34,970,o),
(83,297,o),
(94,183,cs),
(107,50,o),
(197,-19,o),
(330,-19,cs)
);
}
);
width = 1238;
},
{
anchors = (
{
name = bottom;
pos = (619,0);
},
{
name = top;
pos = (621,1238);
}
);
layerId = "BE68D89F-AB3F-4BDF-B332-ED50D7C47704";
shapes = (
{
closed = 1;
nodes = (
(301,-19,ls),
(333,-19,o),
(356,-3,o),
(364,30,cs),
(621,1096,l),
(878,30,ls),
(886,-4,o),
(909,-19,o),
(942,-19,cs),
(943,-19,ls),
(975,-19,o),
(990,0,o),
(995,35,cs),
(1004,104,o),
(1133,1173,o),
(1133,1204,cs),
(1133,1234,o),
(1125,1248,o),
(1106,1248,cs),
(1084,1248,o),
(1074,1233,o),
(1070,1198,cs),
(938,84,l),
(676,1136,ls),
(668,1169,o),
(649,1185,o),
(621,1185,cs),
(593,1185,o),
(574,1169,o),
(566,1136,cs),
(308,72,l),
(172,1198,ls),
(168,1233,o),
(160,1248,o),
(139,1248,cs),
(120,1248,o),
(109,1234,o),
(109,1204,cs),
(109,1163,o),
(238,104,o),
(247,35,cs),
(252,-2,o),
(267,-19,o),
(300,-19,cs)
);
}
);
width = 1238;
},
{
anchors = (
{
name = bottom;
pos = (623,0);
},
{
name = top;
pos = (624,1238);
}
);
associatedMasterId = "BE68D89F-AB3F-4BDF-B332-ED50D7C47704";
attr = {
coordinates = (
500,
1
);
};
layerId = "6BEE0209-F5EC-481A-B8C9-A5FE6951E988";
name = "{500}";
shapes = (
{
closed = 1;
nodes = (
(326,-19,ls),
(408,-19,o),
(465,23,o),
(482,103,cs),
(619,764,l),
(756,103,ls),
(773,22,o),
(831,-19,o),
(913,-19,cs),
(919,-19,ls),
(1001,-19,o),
(1042,25,o),
(1053,109,cs),
(1065,200,o),
(1167,1056,o),
(1167,1134,cs),
(1167,1209,o),
(1130,1248,o),
(1064,1248,cs),
(991,1248,o),
(955,1205,o),
(948,1119,cs),
(892,391,l),
(749,1027,ls),
(731,1108,o),
(678,1145,o),
(619,1145,cs),
(559,1145,o),
(508,1108,o),
(490,1027,cs),
(346,388,l),
(289,1119,ls),
(282,1205,o),
(251,1248,o),
(179,1248,cs),
(114,1248,o),
(71,1209,o),
(71,1134,cs),
(71,1042,o),
(172,200,o),
(185,109,cs),
(197,24,o),
(236,-19,o),
(319,-19,cs)
);
}
);
width = 1238;
},
{
anchors = (
{
name = bottom;
pos = (705,0);
},
{
name = top;
pos = (707,1238);
}
);
layerId = "8A001557-9052-48C4-99E5-0FAF857062F1";
shapes = (
{
closed = 1;
nodes = (
(367,-19,ls),
(399,-19,o),
(421,-3,o),
(430,30,cs),
(707,1098,l),
(984,30,ls),
(993,-4,o),
(1015,-19,o),
(1048,-19,cs),
(1049,-19,ls),
(1081,-19,o),
(1093,1,o),
(1101,35,cs),
(1117,104,o),
(1345,1173,o),
(1349,1204,cs),
(1353,1234,o),
(1343,1248,o),
(1324,1248,cs),
(1302,1248,o),
(1293,1233,o),
(1286,1198,cs),
(1046,72,l),
(762,1136,ls),
(753,1169,o),
(735,1185,o),
(707,1185,cs),
(679,1185,o),
(661,1169,o),
(652,1136,cs),
(372,63,l),
(128,1198,ls),
(120,1233,o),
(114,1248,o),
(93,1248,cs),
(74,1248,o),
(62,1234,o),
(65,1204,cs),
(69,1163,o),
(298,104,o),
(313,35,cs),
(321,-1,o),
(333,-19,o),
(366,-19,cs)
);
}
);
width = 1415;
},
{
anchors = (
{
name = bottom;
pos = (664,0);
},
{
name = top;
pos = (665,1238);
}
);
associatedMasterId = "8A001557-9052-48C4-99E5-0FAF857062F1";
attr = {
coordinates = (
500,
0
);
};
layerId = "CEE7A96D-0514-47BC-AC2C-24C8A11C9B0D";
name = "{500}";
shapes = (
{
closed = 1;
nodes = (
(355,-19,ls),
(436,-19,o),
(490,33,o),
(512,129,cs),
(663,797,l),
(815,129,ls),
(837,33,o),
(890,-19,o),
(972,-19,cs),
(978,-19,ls),
(1060,-19,o),
(1117,25,o),
(1131,114,cs),
(1145,205,o),
(1305,1080,o),
(1305,1135,cs),
(1305,1209,o),
(1268,1248,o),
(1203,1248,cs),
(1130,1248,o),
(1104,1205,o),
(1091,1119,cs),
(966,290,l),
(784,1037,ls),
(764,1119,o),
(743,1165,o),
(663,1165,cs),
(583,1165,o),
(562,1118,o),
(542,1037,cs),
(360,286,l),
(233,1119,ls),
(220,1205,o),
(201,1248,o),
(128,1248,cs),
(63,1248,o),
(20,1209,o),
(20,1135,cs),
(20,1067,o),
(181,205,o),
(194,114,cs),
(208,24,o),
(266,-19,o),
(349,-19,cs)
);
}
);
width = 1325;
},
{
anchors = (
{
name = bottom;
pos = (755,0);
},
{
name = top;
pos = (755,1238);
}
);
layerId = "324E61BF-7061-45AA-9F81-5D4ECCAA9032";
shapes = (
{
closed = 1;
nodes = (
(456,-19,ls),
(586,-19,o),
(685,67,o),
(706,227,cs),
(751,565,l),
(798,227,ls),
(820,67,o),
(918,-19,o),
(1048,-19,cs),
(1059,-19,ls),
(1191,-19,o),
(1291,50,o),
(1314,193,cs),
(1332,306,o),
(1474,977,o),
(1474,1055,cs),
(1474,1173,o),
(1408,1248,o),
(1297,1248,cs),
(1173,1248,o),
(1115,1176,o),
(1099,1040,cs),
(1025,414,l),
(938,918,ls),
(915,1049,o),
(883,1125,o),
(751,1125,cs),
(620,1125,o),
(587,1049,o),
(564,918,cs),
(474,413,l),
(400,1040,ls),
(384,1176,o),
(338,1248,o),
(214,1248,cs),
(103,1248,o),
(28,1173,o),
(28,1055,cs),
(28,960,o),
(170,306,o),
(188,193,cs),
(211,50,o),
(311,-19,o),
(444,-19,cs)
);
}
);
width = 1502;
}
);
unicode = 87;
},
{
color = 6;
glyphname = X;
kernLeft = X;
kernRight = X;
lastChange = "2022-07-21 12:26:04 +0000";
layers = (
{
anchors = (
{
name = bottom;
pos = (619,0);
},
{
name = top;
pos = (619,1238);
}
);
layerId = "5521DC30-183F-421A-91F3-644B5E24AFE6";
shapes = (
{
closed = 1;
nodes = (
(389,-19,o),
(426,38,o),
(488,135,cs),
(619,342,l),
(748,135,ls),
(809,38,o),
(847,-19,o),
(952,-19,cs),
(1058,-19,o),
(1128,38,o),
(1128,116,cs),
(1128,154,o),
(1118,190,o),
(1083,243,cs),
(834,615,l),
(1105,998,ls),
(1131,1034,o),
(1142,1070,o),
(1142,1106,cs),
(1142,1204,o),
(1068,1250,o),
(975,1250,cs),
(878,1250,o),
(829,1209,o),
(755,1085,cs),
(624,865,l),
(488,1085,ls),
(412,1207,o),
(382,1251,o),
(278,1251,cs),
(185,1251,o),
(104,1199,o),
(104,1106,cs),
(104,1071,o),
(110,1039,o),
(137,999,cs),
(412,600,l),
(160,243,ls),
(125,194,o),
(115,161,o),
(115,123,cs),
(115,44,o),
(178,-19,o),
(286,-19,cs)
);
}
);
width = 1238;
},
{
anchors = (
{
name = bottom;
pos = (610,0);
},
{
name = top;
pos = (610,1238);
}
);
layerId = "BE68D89F-AB3F-4BDF-B332-ED50D7C47704";
shapes = (
{
closed = 1;
nodes = (
(232,-19,o),
(241,-8,o),
(259,20,cs),
(607,553,l),
(953,20,ls),
(971,-7,o),
(979,-19,o),
(998,-19,cs),
(1014,-19,o),
(1028,-11,o),
(1028,9,cs),
(1028,17,o),
(1023,29,o),
(1014,43,cs),
(644,610,l),
(1023,1198,ls),
(1027,1204,o),
(1030,1215,o),
(1030,1222,cs),
(1030,1239,o),
(1018,1248,o),
(1001,1248,cs),
(976,1248,o),
(970,1235,o),
(953,1209,cs),
(605,671,l),
(259,1209,ls),
(242,1235,o),
(233,1248,o),
(213,1248,cs),
(196,1248,o),
(182,1238,o),
(182,1222,cs),
(182,1213,o),
(184,1205,o),
(189,1197,cs),
(567,610,l),
(198,43,ls),
(189,29,o),
(185,17,o),
(185,9,cs),
(185,-10,o),
(197,-19,o),
(214,-19,cs)
);
}
);
width = 1238;
},
{
anchors = (
{
name = bottom;
pos = (485,0);
},
{
name = top;
pos = (485,1238);
}
);
layerId = "8A001557-9052-48C4-99E5-0FAF857062F1";
shapes = (
{
closed = 1;
nodes = (
(138,-19,o),
(148,-8,o),
(165,20,cs),
(483,553,l),
(799,20,ls),
(815,-8,o),
(825,-19,o),
(844,-19,cs),
(860,-19,o),
(874,-11,o),
(874,9,cs),
(874,17,o),
(868,29,o),
(860,43,cs),
(520,610,l),
(869,1198,ls),
(872,1204,o),
(876,1215,o),
(876,1222,cs),
(876,1239,o),
(864,1248,o),
(847,1248,cs),
(822,1248,o),
(814,1235,o),
(799,1209,cs),
(481,671,l),
(165,1209,ls),
(150,1235,o),
(139,1248,o),
(119,1248,cs),
(102,1248,o),
(88,1238,o),
(88,1222,cs),
(88,1213,o),
(90,1205,o),
(95,1197,cs),
(443,610,l),
(104,43,ls),
(95,29,o),
(91,17,o),
(91,9,cs),
(91,-10,o),
(103,-19,o),
(120,-19,cs)
);
}
);
width = 963;
},
{
anchors = (
{
name = bottom;
pos = (531,0);
},
{
name = top;
pos = (531,1238);
}
);
layerId = "324E61BF-7061-45AA-9F81-5D4ECCAA9032";
shapes = (
{
closed = 1;
nodes = (
(323,-19,o),
(364,36,o),
(422,135,cs),
(533,322,l),
(642,135,ls),
(700,36,o),
(741,-19,o),
(846,-19,cs),
(952,-19,o),
(1022,38,o),
(1022,116,cs),
(1022,154,o),
(1012,190,o),
(977,243,cs),
(728,615,l),
(999,998,ls),
(1025,1034,o),
(1036,1070,o),
(1036,1106,cs),
(1036,1204,o),
(962,1250,o),
(869,1250,cs),
(772,1250,o),
(719,1212,o),
(649,1085,cs),
(538,885,l),
(422,1085,ls),
(350,1210,o),
(316,1251,o),
(212,1251,cs),
(119,1251,o),
(38,1199,o),
(38,1106,cs),
(38,1071,o),
(44,1039,o),
(71,999,cs),
(346,600,l),
(94,243,ls),
(59,194,o),
(49,161,o),
(49,123,cs),
(49,44,o),
(112,-19,o),
(220,-19,cs)
);
}
);
width = 1079;
}
);
unicode = 88;
},
{
color = 6;
glyphname = Y;
kernLeft = Y;
kernRight = Y;
lastChange = "2022-07-21 12:26:04 +0000";
layers = (
{
anchors = (
{
name = bottom;
pos = (600,0);
},
{
name = top;
pos = (617,1238);
},
{
name = topleft;
pos = (67,1238);
}
);
layerId = "5521DC30-183F-421A-91F3-644B5E24AFE6";
shapes = (
{
closed = 1;
nodes = (
(743,-19,o),
(809,54,o),
(809,190,cs),
(809,494,l),
(829,518,o),
(847,545,o),
(866,577,cs),
(1095,965,ls),
(1116,1000,o),
(1131,1048,o),
(1131,1090,cs),
(1131,1170,o),
(1083,1250,o),
(969,1250,cs),
(880,1250,o),
(829,1203,o),
(775,1094,cs),
(619,781,l),
(466,1091,ls),
(411,1203,o),
(368,1250,o),
(278,1250,cs),
(161,1250,o),
(106,1168,o),
(106,1088,cs),
(106,1045,o),
(120,1000,o),
(141,965,cs),
(370,577,ls),
(389,544,o),
(408,516,o),
(429,492,c),
(429,190,ls),
(429,54,o),
(495,-19,o),
(619,-19,cs)
);
}
);
width = 1238;
},
{
anchors = (
{
name = bottom;
pos = (571,0);
},
{
name = top;
pos = (604,1238);
},
{
name = topleft;
pos = (106,1238);
}
);
layerId = "BE68D89F-AB3F-4BDF-B332-ED50D7C47704";
shapes = (
{
closed = 1;
nodes = (
(631,-19,o),
(643,-1,o),
(643,36,cs),
(643,482,l),
(657,489,o),
(666,502,o),
(677,522,cs),
(1036,1193,ls),
(1042,1204,o),
(1045,1214,o),
(1045,1225,cs),
(1045,1240,o),
(1036,1252,o),
(1017,1252,cs),
(995,1252,o),
(987,1238,o),
(971,1207,cs),
(612,532,l),
(251,1207,ls),
(235,1238,o),
(227,1252,o),
(206,1252,cs),
(188,1252,o),
(179,1239,o),
(179,1223,cs),
(179,1213,o),
(181,1203,o),
(187,1192,cs),
(546,522,ls),
(557,502,o),
(566,489,o),
(580,482,c),
(580,36,ls),
(580,-1,o),
(591,-19,o),
(611,-19,cs)
);
}
);
width = 1238;
},
{
anchors = (
{
name = bottom;
pos = (458,0);
},
{
name = top;
pos = (491,1238);
},
{
name = topleft;
pos = (-7,1238);
}
);
layerId = "8A001557-9052-48C4-99E5-0FAF857062F1";
shapes = (
{
closed = 1;
nodes = (
(517,-19,o),
(529,-1,o),
(529,36,cs),
(529,482,l),
(543,489,o),
(552,502,o),
(563,522,cs),
(922,1193,ls),
(928,1204,o),
(931,1214,o),
(931,1225,cs),
(931,1240,o),
(922,1252,o),
(903,1252,cs),
(881,1252,o),
(873,1238,o),
(857,1207,cs),
(498,532,l),
(137,1207,ls),
(121,1238,o),
(113,1252,o),
(92,1252,cs),
(74,1252,o),
(65,1239,o),
(65,1223,cs),
(65,1213,o),
(67,1203,o),
(73,1192,cs),
(432,522,ls),
(443,502,o),
(452,489,o),
(466,482,c),
(466,36,ls),
(466,-1,o),
(477,-19,o),
(497,-19,cs)
);
}
);
width = 996;
},
{
anchors = (
{
name = bottom;
pos = (521,0);
},
{
name = top;
pos = (538,1238);
},
{
name = topleft;
pos = (-12,1238);
}
);
layerId = "324E61BF-7061-45AA-9F81-5D4ECCAA9032";
shapes = (
{
closed = 1;
nodes = (
(665,-19,o),
(731,54,o),
(731,190,cs),
(731,494,l),
(751,518,o),
(769,545,o),
(788,577,cs),
(1017,965,ls),
(1038,1000,o),
(1053,1048,o),
(1053,1090,cs),
(1053,1170,o),
(1005,1250,o),
(891,1250,cs),
(802,1250,o),
(751,1203,o),
(697,1094,cs),
(541,781,l),
(388,1091,ls),
(333,1203,o),
(290,1250,o),
(200,1250,cs),
(83,1250,o),
(28,1168,o),
(28,1088,cs),
(28,1045,o),
(42,1000,o),
(63,965,cs),
(292,577,ls),
(311,544,o),
(330,516,o),
(351,492,c),
(351,190,ls),
(351,54,o),
(417,-19,o),
(541,-19,cs)
);
}
);
width = 1081;
}
);
unicode = 89;
},
{
color = 6;
glyphname = Z;
kernLeft = Z;
kernRight = Z;
lastChange = "2022-07-21 12:26:04 +0000";
layers = (
{
anchors = (
{
name = bottom;
pos = (600,0);
},
{
name = top;
pos = (600,1238);
}
);
layerId = "5521DC30-183F-421A-91F3-644B5E24AFE6";
shapes = (
{
closed = 1;
nodes = (
(950,854,ls),
(1008,939,o),
(1030,981,o),
(1030,1047,cs),
(1030,1165,o),
(957,1238,o),
(821,1238,cs),
(381,1238,ls),
(245,1238,o),
(171,1191,o),
(171,1105,cs),
(171,1018,o),
(245,971,o),
(381,971,cs),
(640,971,l),
(237,384,ls),
(179,299,o),
(156,265,o),
(156,185,cs),
(156,72,o),
(230,0,o),
(366,0,cs),
(840,0,ls),
(976,0,o),
(1050,47,o),
(1050,133,cs),
(1050,220,o),
(976,267,o),
(840,267,cs),
(543,267,l)
);
}
);
width = 1238;
},
{
anchors = (
{
name = bottom;
pos = (584,0);
},
{
name = top;
pos = (617,1238);
}
);
layerId = "BE68D89F-AB3F-4BDF-B332-ED50D7C47704";
shapes = (
{
closed = 1;
nodes = (
(986,1145,ls),
(1001,1168,o),
(1007,1178,o),
(1007,1195,cs),
(1007,1223,o),
(987,1238,o),
(950,1238,cs),
(279,1238,ls),
(242,1238,o),
(222,1227,o),
(222,1208,cs),
(222,1189,o),
(242,1177,o),
(279,1177,cs),
(934,1177,l),
(228,93,ls),
(213,70,o),
(207,60,o),
(207,45,cs),
(207,17,o),
(227,0,o),
(264,0,cs),
(972,0,ls),
(1010,0,o),
(1030,11,o),
(1030,30,cs),
(1030,50,o),
(1010,61,o),
(972,61,cs),
(281,61,l)
);
}
);
width = 1238;
},
{
anchors = (
{
name = bottom;
pos = (452,0);
},
{
name = top;
pos = (485,1238);
}
);
layerId = "8A001557-9052-48C4-99E5-0FAF857062F1";
shapes = (
{
closed = 1;
nodes = (
(854,1145,ls),
(869,1168,o),
(875,1178,o),
(875,1195,cs),
(875,1223,o),
(855,1238,o),
(818,1238,cs),
(147,1238,ls),
(110,1238,o),
(90,1227,o),
(90,1208,cs),
(90,1189,o),
(110,1177,o),
(147,1177,cs),
(802,1177,l),
(96,93,ls),
(81,70,o),
(75,60,o),
(75,45,cs),
(75,17,o),
(95,0,o),
(132,0,cs),
(840,0,ls),
(878,0,o),
(898,11,o),
(898,30,cs),
(898,50,o),
(878,61,o),
(840,61,cs),
(149,61,l)
);
}
);
width = 973;
},
{
anchors = (
{
name = bottom;
pos = (472,0);
},
{
name = top;
pos = (472,1238);
}
);
layerId = "324E61BF-7061-45AA-9F81-5D4ECCAA9032";
shapes = (
{
closed = 1;
nodes = (
(822,854,ls),
(881,939,o),
(902,981,o),
(902,1047,cs),
(902,1165,o),
(829,1238,o),
(693,1238,cs),
(253,1238,ls),
(137,1238,o),
(63,1191,o),
(63,1105,cs),
(63,1018,o),
(137,971,o),
(253,971,cs),
(512,971,l),
(109,384,ls),
(51,299,o),
(28,265,o),
(28,185,cs),
(28,72,o),
(102,0,o),
(238,0,cs),
(712,0,ls),
(828,0,o),
(902,47,o),
(902,133,cs),
(902,220,o),
(828,267,o),
(712,267,cs),
(415,267,l)
);
}
);
width = 930;
}
);
unicode = 90;
},
{
color = 6;
glyphname = a;
kernLeft = a;
kernRight = i;
lastChange = "2022-07-21 12:26:04 +0000";
layers = (
{
anchors = (
{
name = bottom;
pos = (600,0);
},
{
name = ogonek;
pos = (1034,0);
},
{
name = top;
pos = (600,952);
}
);
layerId = "5521DC30-183F-421A-91F3-644B5E24AFE6";
shapes = (
{
closed = 1;
nodes = (
(1034,0,ls),
(1166,0,o),
(1218,49,o),
(1218,129,cs),
(1218,209,o),
(1171,257,o),
(1085,257,cs),
(1082,257,l),
(1082,642,ls),
(1082,853,o),
(867,975,o),
(608,975,cs),
(472,975,o),
(346,955,o),
(279,933,cs),
(210,910,o),
(148,874,o),
(148,791,cs),
(148,703,o),
(200,664,o),
(286,664,cs),
(326,664,o),
(353,671,o),
(386,680,cs),
(436,694,o),
(498,707,o),
(572,707,cs),
(671,707,o),
(738,655,o),
(738,602,cs),
(738,547,l),
(720,570,o),
(638,615,o),
(510,615,cs),
(307,615,o),
(105,525,o),
(105,306,cs),
(105,100,o),
(261,-15,o),
(467,-15,cs),
(638,-15,o),
(731,69,o),
(758,139,c),
(758,134,ls),
(758,51,o),
(823,0,o),
(945,0,cs)
);
},
{
closed = 1;
nodes = (
(738,328,l),
(722,292,o),
(663,225,o),
(572,225,cs),
(507,225,o),
(452,248,o),
(452,317,cs),
(452,386,o),
(510,411,o),
(583,411,cs),
(653,411,o),
(723,377,o),
(738,349,c)
);
}
);
width = 1238;
},
{
anchors = (
{
name = bottom;
pos = (630,0);
},
{
name = ogonek;
pos = (1090,0);
},
{
name = top;
pos = (630,952);
}
);
layerId = "BE68D89F-AB3F-4BDF-B332-ED50D7C47704";
shapes = (
{
closed = 1;
nodes = (
(1090,0,ls),
(1127,0,o),
(1147,11,o),
(1147,30,cs),
(1147,50,o),
(1127,61,o),
(1090,61,cs),
(968,61,l),
(968,678,ls),
(968,927,o),
(745,975,o),
(575,975,cs),
(444,975,o),
(319,939,o),
(249,905,cs),
(223,892,o),
(210,877,o),
(210,863,cs),
(210,850,o),
(221,834,o),
(241,834,cs),
(252,834,o),
(267,839,o),
(283,847,cs),
(347,880,o),
(468,914,o),
(562,914,cs),
(710,914,o),
(905,889,o),
(905,662,cs),
(905,471,l),
(855,509,o),
(689,558,o),
(563,558,cs),
(310,558,o),
(154,448,o),
(154,267,cs),
(154,69,o),
(311,-13,o),
(523,-13,cs),
(710,-13,o),
(859,83,o),
(905,147,c),
(905,52,ls),
(905,19,o),
(925,0,o),
(962,0,cs)
);
},
{
closed = 1;
nodes = (
(905,225,l),
(859,162,o),
(713,48,o),
(527,48,cs),
(356,48,o),
(217,100,o),
(217,267,cs),
(217,418,o),
(350,497,o),
(565,497,cs),
(666,497,o),
(848,443,o),
(905,402,c)
);
}
);
width = 1238;
},
{
anchors = (
{
name = bottom;
pos = (590,0);
},
{
name = ogonek;
pos = (1029,19);
},
{
name = top;
pos = (590,952);
}
);
associatedMasterId = "BE68D89F-AB3F-4BDF-B332-ED50D7C47704";
attr = {
coordinates = (
500,
1
);
};
layerId = "DC2F800D-EB60-456D-B8B9-CA0D01C75DFB";
name = "{500}";
shapes = (
{
closed = 1;
nodes = (
(1037,-5,ls),
(1127,-5,o),
(1157,30,o),
(1157,80,cs),
(1157,130,o),
(1127,159,o),
(1070,159,cs),
(1000,159,l),
(1000,684,ls),
(1000,876,o),
(786,975,o),
(571,975,cs),
(438,975,o),
(322,949,o),
(253,919,cs),
(207,899,o),
(169,876,o),
(169,832,cs),
(169,782,o),
(210,757,o),
(263,757,cs),
(279,757,o),
(301,759,o),
(324,768,cs),
(381,790,o),
(463,810,o),
(547,810,cs),
(670,810,o),
(796,758,o),
(796,656,cs),
(796,537,l),
(763,559,o),
(658,606,o),
(531,606,cs),
(293,606,o),
(105,498,o),
(105,298,cs),
(105,96,o),
(272,-21,o),
(494,-21,cs),
(663,-21,o),
(768,67,o),
(799,119,c),
(804,87,ls),
(813,30,o),
(839,-5,o),
(919,-5,cs)
);
},
{
closed = 1;
nodes = (
(796,293,l),
(766,233,o),
(650,132,o),
(527,132,cs),
(397,132,o),
(310,180,o),
(310,303,cs),
(310,418,o),
(409,463,o),
(548,463,cs),
(654,463,o),
(761,416,o),
(796,382,c)
);
}
);
width = 1238;
},
{
anchors = (
{
name = bottom;
pos = (631,0);
},
{
name = ogonek;
pos = (1091,0);
},
{
name = top;
pos = (631,952);
}
);
layerId = "8A001557-9052-48C4-99E5-0FAF857062F1";
shapes = (
{
closed = 1;
nodes = (
(1081,0,ls),
(1118,0,o),
(1138,11,o),
(1138,30,cs),
(1138,50,o),
(1118,61,o),
(1081,61,cs),
(969,61,l),
(969,678,ls),
(969,927,o),
(746,975,o),
(576,975,cs),
(445,975,o),
(320,939,o),
(250,905,cs),
(224,892,o),
(211,877,o),
(211,863,cs),
(211,850,o),
(222,834,o),
(242,834,cs),
(253,834,o),
(268,839,o),
(284,847,cs),
(348,880,o),
(469,914,o),
(563,914,cs),
(711,914,o),
(906,889,o),
(906,662,cs),
(906,471,l),
(856,509,o),
(690,558,o),
(564,558,cs),
(311,558,o),
(155,448,o),
(155,267,cs),
(155,69,o),
(312,-13,o),
(524,-13,cs),
(711,-13,o),
(860,83,o),
(906,147,c),
(906,52,ls),
(906,19,o),
(926,0,o),
(963,0,cs)
);
},
{
closed = 1;
nodes = (
(906,225,l),
(860,162,o),
(714,48,o),
(528,48,cs),
(357,48,o),
(218,100,o),
(218,267,cs),
(218,418,o),
(351,497,o),
(566,497,cs),
(667,497,o),
(849,443,o),
(906,402,c)
);
}
);
width = 1273;
},
{
anchors = (
{
name = bottom;
pos = (563,0);
},
{
name = ogonek;
pos = (1002,19);
},
{
name = top;
pos = (563,952);
}
);
associatedMasterId = "8A001557-9052-48C4-99E5-0FAF857062F1";
attr = {
coordinates = (
500,
0
);
};
layerId = "6161A58C-E723-459F-A801-0BA9E6B76873";
name = "{500}";
shapes = (
{
closed = 1;
nodes = (
(1010,-5,ls),
(1090,-5,o),
(1120,30,o),
(1120,80,cs),
(1120,130,o),
(1090,159,o),
(1033,159,cs),
(973,159,l),
(973,684,ls),
(973,876,o),
(759,975,o),
(544,975,cs),
(411,975,o),
(295,949,o),
(226,919,cs),
(180,899,o),
(142,876,o),
(142,832,cs),
(142,782,o),
(183,757,o),
(236,757,cs),
(252,757,o),
(274,759,o),
(297,768,cs),
(354,790,o),
(436,810,o),
(520,810,cs),
(643,810,o),
(769,758,o),
(769,656,cs),
(769,537,l),
(736,559,o),
(631,606,o),
(504,606,cs),
(266,606,o),
(78,498,o),
(78,298,cs),
(78,96,o),
(245,-21,o),
(467,-21,cs),
(636,-21,o),
(741,67,o),
(772,119,c),
(772,97,ls),
(772,39,o),
(822,-5,o),
(902,-5,cs)
);
},
{
closed = 1;
nodes = (
(769,293,l),
(739,233,o),
(623,132,o),
(500,132,cs),
(370,132,o),
(283,180,o),
(283,303,cs),
(283,418,o),
(382,463,o),
(521,463,cs),
(627,463,o),
(734,416,o),
(769,382,c)
);
}
);
width = 1185;
},
{
anchors = (
{
name = bottom;
pos = (538,0);
},
{
name = ogonek;
pos = (972,0);
},
{
name = top;
pos = (538,952);
}
);
layerId = "324E61BF-7061-45AA-9F81-5D4ECCAA9032";
shapes = (
{
closed = 1;
nodes = (
(972,1,ls),
(1104,1,o),
(1156,49,o),
(1156,129,cs),
(1156,209,o),
(1109,257,o),
(1023,257,cs),
(1020,257,l),
(1020,642,ls),
(1020,853,o),
(805,975,o),
(546,975,cs),
(410,975,o),
(284,955,o),
(217,933,cs),
(148,910,o),
(86,874,o),
(86,791,cs),
(86,703,o),
(138,664,o),
(224,664,cs),
(264,664,o),
(291,671,o),
(324,680,cs),
(374,694,o),
(436,707,o),
(510,707,cs),
(609,707,o),
(676,655,o),
(676,602,cs),
(676,547,l),
(658,570,o),
(576,615,o),
(448,615,cs),
(245,615,o),
(43,525,o),
(43,306,cs),
(43,100,o),
(199,-15,o),
(405,-15,cs),
(576,-15,o),
(669,69,o),
(696,139,c),
(696,135,ls),
(696,52,o),
(761,1,o),
(883,1,cs)
);
},
{
closed = 1;
nodes = (
(676,328,l),
(660,292,o),
(601,225,o),
(510,225,cs),
(445,225,o),
(390,248,o),
(390,317,cs),
(390,386,o),
(448,411,o),
(521,411,cs),
(591,411,o),
(661,377,o),
(676,349,c)
);
}
);
width = 1174;
}
);
unicode = 97;
},
{
color = 6;
glyphname = a.ss03;
kernLeft = a;
kernRight = n;
lastChange = "2022-07-21 12:26:04 +0000";
layers = (
{
anchors = (
{
name = bottom;
pos = (619,0);
},
{
name = ogonek;
pos = (990,0);
},
{
name = top;
pos = (587,952);
}
);
layerId = "5521DC30-183F-421A-91F3-644B5E24AFE6";
shapes = (
{
closed = 1;
nodes = (
(1111,743,ls),
(1111,879,o),
(1045,952,o),
(921,952,cs),
(841,952,o),
(784,924,o),
(755,865,cs),
(752,859,l),
(700,933,o),
(618,973,o),
(507,973,cs),
(274,973,o),
(88,798,o),
(88,478,cs),
(88,158,o),
(274,-21,o),
(507,-21,cs),
(614,-21,o),
(695,19,o),
(749,91,c),
(753,83,ls),
(782,22,o),
(839,-10,o),
(921,-10,cs),
(1045,-10,o),
(1111,64,o),
(1111,196,cs)
);
},
{
closed = 1;
nodes = (
(472,613,o),
(534,697,o),
(614,697,cs),
(679,697,o),
(722,631,o),
(730,572,c),
(730,363,l),
(720,306,o),
(676,255,o),
(614,255,cs),
(534,255,o),
(472,343,o),
(472,478,cs)
);
}
);
width = 1238;
},
{
anchors = (
{
name = bottom;
pos = (696,0);
},
{
name = ogonek;
pos = (1012,0);
},
{
name = top;
pos = (605,952);
}
);
layerId = "BE68D89F-AB3F-4BDF-B332-ED50D7C47704";
shapes = (
{
closed = 1;
nodes = (
(1024,895,ls),
(1024,932,o),
(1012,952,o),
(992,952,cs),
(972,952,o),
(961,932,o),
(961,895,cs),
(961,791,l),
(888,900,o),
(754,973,o),
(610,973,cs),
(395,973,o),
(181,817,o),
(181,478,cs),
(181,139,o),
(395,-21,o),
(610,-21,cs),
(754,-21,o),
(888,48,o),
(961,155,c),
(961,48,ls),
(961,10,o),
(972,-10,o),
(992,-10,cs),
(1012,-10,o),
(1024,10,o),
(1024,48,cs)
);
},
{
closed = 1;
nodes = (
(248,783,o),
(420,910,o),
(613,910,cs),
(773,910,o),
(946,792,o),
(961,619,c),
(961,327,l),
(942,156,o),
(773,42,o),
(613,42,cs),
(420,42,o),
(248,179,o),
(248,478,cs)
);
}
);
width = 1238;
},
{
anchors = (
{
name = bottom;
pos = (655,0);
},
{
name = ogonek;
pos = (971,0);
},
{
name = top;
pos = (564,952);
}
);
layerId = "8A001557-9052-48C4-99E5-0FAF857062F1";
shapes = (
{
closed = 1;
nodes = (
(983,895,ls),
(983,932,o),
(971,952,o),
(951,952,cs),
(931,952,o),
(920,932,o),
(920,895,cs),
(920,791,l),
(847,900,o),
(713,973,o),
(569,973,cs),
(354,973,o),
(140,817,o),
(140,478,cs),
(140,139,o),
(354,-21,o),
(569,-21,cs),
(713,-21,o),
(847,48,o),
(920,155,c),
(920,48,ls),
(920,10,o),
(931,-10,o),
(951,-10,cs),
(971,-10,o),
(983,10,o),
(983,48,cs)
);
},
{
closed = 1;
nodes = (
(207,783,o),
(379,910,o),
(572,910,cs),
(732,910,o),
(905,792,o),
(920,619,c),
(920,327,l),
(901,156,o),
(732,42,o),
(572,42,cs),
(379,42,o),
(207,179,o),
(207,478,cs)
);
}
);
width = 1158;
},
{
anchors = (
{
name = bottom;
pos = (576,0);
},
{
name = ogonek;
pos = (947,0);
},
{
name = top;
pos = (544,952);
}
);
layerId = "324E61BF-7061-45AA-9F81-5D4ECCAA9032";
shapes = (
{
closed = 1;
nodes = (
(1071,743,ls),
(1071,879,o),
(1005,952,o),
(881,952,cs),
(801,952,o),
(744,924,o),
(715,865,cs),
(712,859,l),
(660,933,o),
(578,973,o),
(467,973,cs),
(234,973,o),
(48,798,o),
(48,478,cs),
(48,158,o),
(234,-21,o),
(467,-21,cs),
(574,-21,o),
(655,19,o),
(709,91,c),
(713,83,ls),
(742,22,o),
(799,-10,o),
(881,-10,cs),
(1005,-10,o),
(1071,64,o),
(1071,196,cs)
);
},
{
closed = 1;
nodes = (
(432,613,o),
(494,697,o),
(574,697,cs),
(639,697,o),
(682,631,o),
(690,572,c),
(690,363,l),
(680,306,o),
(636,255,o),
(574,255,cs),
(494,255,o),
(432,343,o),
(432,478,cs)
);
}
);
width = 1139;
}
);
},
{
color = 6;
glyphname = ae;
lastChange = "2022-07-21 12:26:04 +0000";
layers = (
{
anchors = (
{
name = bottom;
pos = (629,0);
},
{
name = top;
pos = (629,952);
}
);
layerId = "BE68D89F-AB3F-4BDF-B332-ED50D7C47704";
shapes = (
{
closed = 1;
nodes = (
(455,-21,o),
(583,35,o),
(628,208,c),
(690,55,o),
(806,-21,o),
(931,-21,cs),
(1058,-21,o),
(1162,55,o),
(1210,128,cs),
(1222,145,o),
(1228,161,o),
(1228,175,cs),
(1228,192,o),
(1216,207,o),
(1200,207,cs),
(1184,207,o),
(1169,190,o),
(1153,169,cs),
(1109,105,o),
(1034,42,o),
(931,42,cs),
(781,42,o),
(656,177,o),
(649,453,c),
(1176,453,ls),
(1212,453,o),
(1234,472,o),
(1234,510,cs),
(1234,777,o),
(1135,975,o),
(933,975,cs),
(825,975,o),
(709,913,o),
(642,774,c),
(621,913,o),
(507,975,o),
(354,975,cs),
(242,975,o),
(136,940,o),
(66,905,cs),
(40,892,o),
(28,877,o),
(28,863,cs),
(28,850,o),
(38,834,o),
(58,834,cs),
(70,834,o),
(83,838,o),
(99,847,cs),
(163,880,o),
(266,914,o),
(341,914,cs),
(490,914,o),
(579,861,o),
(579,710,cs),
(579,560,l),
(539,590,o),
(459,627,o),
(343,627,cs),
(128,627,o),
(0,488,o),
(0,307,cs),
(0,109,o),
(131,-21,o),
(312,-21,cs)
);
},
{
closed = 1;
nodes = (
(63,457,o),
(168,566,o),
(345,566,cs),
(446,566,o),
(531,529,o),
(579,494,c),
(579,424,ls),
(579,128,o),
(491,40,o),
(314,40,cs),
(168,40,o),
(63,139,o),
(63,307,cs)
);
},
{
closed = 1;
nodes = (
(661,787,o),
(796,912,o),
(930,912,cs),
(1099,912,o),
(1163,718,o),
(1163,516,c),
(650,516,l)
);
}
);
width = 1238;
},
{
anchors = (
{
name = bottom;
pos = (619,0);
},
{
name = top;
pos = (619,952);
}
);
layerId = "5521DC30-183F-421A-91F3-644B5E24AFE6";
shapes = (
{
closed = 1;
nodes = (
(450,-21,o),
(552,1,o),
(630,70,c),
(691,10,o),
(769,-21,o),
(863,-21,cs),
(950,-21,o),
(1010,-8,o),
(1076,17,cs),
(1143,42,o),
(1207,98,o),
(1207,176,cs),
(1207,244,o),
(1168,298,o),
(1094,298,cs),
(1071,298,o),
(1050,292,o),
(1030,284,cs),
(972,256,o),
(938,246,o),
(883,246,cs),
(805,246,o),
(774,293,o),
(763,373,c),
(1085,373,ls),
(1211,373,o),
(1228,448,o),
(1228,582,cs),
(1228,842,o),
(1043,975,o),
(858,975,cs),
(768,975,o),
(694,949,o),
(637,898,c),
(571,948,o),
(478,975,o),
(364,975,cs),
(291,975,o),
(245,971,o),
(179,959,cs),
(90,942,o),
(24,887,o),
(24,810,cs),
(24,735,o),
(68,690,o),
(150,690,cs),
(175,690,o),
(202,694,o),
(230,699,cs),
(261,705,o),
(294,707,o),
(330,707,cs),
(423,707,o),
(486,655,o),
(486,602,cs),
(486,573,l),
(470,589,o),
(405,625,o),
(307,625,cs),
(160,625,o),
(10,519,o),
(10,298,cs),
(10,92,o),
(179,-21,o),
(363,-21,cs)
);
},
{
closed = 1;
nodes = (
(307,379,o),
(351,421,o),
(404,421,cs),
(451,421,o),
(473,400,o),
(486,385,c),
(486,368,ls),
(486,299,o),
(466,225,o),
(400,225,cs),
(347,225,o),
(307,261,o),
(307,320,cs)
);
},
{
closed = 1;
nodes = (
(773,662,o),
(803,709,o),
(873,709,cs),
(945,709,o),
(974,627,o),
(974,575,c),
(762,575,l)
);
}
);
width = 1238;
},
{
anchors = (
{
name = bottom;
pos = (804,0);
},
{
name = top;
pos = (804,952);
}
);
layerId = "8A001557-9052-48C4-99E5-0FAF857062F1";
shapes = (
{
closed = 1;
nodes = (
(594,-21,o),
(753,38,o),
(804,224,c),
(872,60,o),
(1007,-21,o),
(1136,-21,cs),
(1293,-21,o),
(1397,55,o),
(1445,128,cs),
(1457,145,o),
(1463,161,o),
(1463,175,cs),
(1463,192,o),
(1451,207,o),
(1435,207,cs),
(1419,207,o),
(1404,190,o),
(1388,169,cs),
(1344,105,o),
(1269,42,o),
(1136,42,cs),
(986,42,o),
(833,177,o),
(824,453,c),
(1411,453,ls),
(1447,453,o),
(1469,472,o),
(1469,510,cs),
(1469,777,o),
(1340,975,o),
(1138,975,cs),
(1026,975,o),
(893,909,o),
(818,760,c),
(798,909,o),
(647,975,o),
(489,975,cs),
(377,975,o),
(271,940,o),
(201,905,cs),
(175,892,o),
(163,877,o),
(163,863,cs),
(163,850,o),
(173,834,o),
(193,834,cs),
(205,834,o),
(218,838,o),
(234,847,cs),
(298,880,o),
(401,914,o),
(476,914,cs),
(625,914,o),
(754,861,o),
(754,710,cs),
(754,560,l),
(714,590,o),
(594,627,o),
(478,627,cs),
(263,627,o),
(135,488,o),
(135,307,cs),
(135,109,o),
(266,-21,o),
(447,-21,cs)
);
},
{
closed = 1;
nodes = (
(198,457,o),
(303,566,o),
(480,566,cs),
(581,566,o),
(706,529,o),
(754,494,c),
(754,424,ls),
(754,128,o),
(626,40,o),
(449,40,cs),
(303,40,o),
(198,139,o),
(198,307,cs)
);
},
{
closed = 1;
nodes = (
(839,787,o),
(1001,912,o),
(1135,912,cs),
(1304,912,o),
(1398,718,o),
(1398,516,c),
(825,516,l)
);
}
);
width = 1604;
},
{
anchors = (
{
name = bottom;
pos = (737,0);
},
{
name = top;
pos = (778,952);
}
);
layerId = "324E61BF-7061-45AA-9F81-5D4ECCAA9032";
shapes = (
{
closed = 1;
nodes = (
(517,-21,o),
(649,5,o),
(746,90,c),
(815,18,o),
(907,-21,o),
(1011,-21,cs),
(1128,-21,o),
(1188,-8,o),
(1254,17,cs),
(1321,42,o),
(1385,98,o),
(1385,176,cs),
(1385,244,o),
(1346,298,o),
(1272,298,cs),
(1249,298,o),
(1228,292,o),
(1208,284,cs),
(1150,256,o),
(1116,246,o),
(1031,246,cs),
(953,246,o),
(906,293,o),
(886,373,c),
(1263,373,ls),
(1389,373,o),
(1406,448,o),
(1406,582,cs),
(1406,842,o),
(1231,975,o),
(1046,975,cs),
(940,975,o),
(843,938,o),
(767,869,c),
(686,938,o),
(566,975,o),
(432,975,cs),
(329,975,o),
(283,971,o),
(217,959,cs),
(128,942,o),
(62,887,o),
(62,810,cs),
(62,735,o),
(106,690,o),
(188,690,cs),
(213,690,o),
(240,694,o),
(268,699,cs),
(299,705,o),
(332,707,o),
(398,707,cs),
(491,707,o),
(604,655,o),
(604,602,cs),
(604,573,l),
(588,589,o),
(503,625,o),
(405,625,cs),
(228,625,o),
(48,529,o),
(48,298,cs),
(48,92,o),
(237,-21,o),
(421,-21,cs)
);
},
{
closed = 1;
nodes = (
(345,379,o),
(419,421,o),
(472,421,cs),
(519,421,o),
(591,400,o),
(604,385,c),
(604,368,ls),
(604,299,o),
(534,225,o),
(468,225,cs),
(415,225,o),
(345,261,o),
(345,320,cs)
);
},
{
closed = 1;
nodes = (
(908,662,o),
(961,709,o),
(1031,709,cs),
(1133,709,o),
(1152,627,o),
(1152,575,c),
(886,575,l)
);
}
);
width = 1454;
}
);
unicode = 230;
},
{
color = 6;
glyphname = b;
kernLeft = h;
kernRight = o;
lastChange = "2022-07-21 12:26:04 +0000";
layers = (
{
anchors = (
{
name = bottom;
pos = (579,0);
},
{
name = top;
pos = (320,1524);
}
);
layerId = "5521DC30-183F-421A-91F3-644B5E24AFE6";
shapes = (
{
closed = 1;
nodes = (
(401,-10,o),
(458,23,o),
(487,86,cs),
(490,92,l),
(544,20,o),
(626,-21,o),
(733,-21,cs),
(966,-21,o),
(1152,158,o),
(1152,478,cs),
(1152,798,o),
(966,973,o),
(733,973,cs),
(636,973,o),
(561,942,o),
(509,885,c),
(509,1314,ls),
(509,1450,o),
(442,1524,o),
(319,1524,cs),
(195,1524,o),
(128,1450,o),
(128,1314,cs),
(128,200,ls),
(128,64,o),
(195,-10,o),
(319,-10,cs)
);
},
{
closed = 1;
nodes = (
(509,563,l),
(514,624,o),
(558,697,o),
(626,697,cs),
(706,697,o),
(768,613,o),
(768,478,cs),
(768,343,o),
(706,255,o),
(626,255,cs),
(562,255,o),
(517,310,o),
(509,369,c)
);
}
);
width = 1238;
},
{
anchors = (
{
name = bottom;
pos = (541,0);
},
{
name = top;
pos = (281,1524);
}
);
layerId = "BE68D89F-AB3F-4BDF-B332-ED50D7C47704";
shapes = (
{
closed = 1;
nodes = (
(302,-10,o),
(313,10,o),
(313,48,cs),
(313,155,l),
(386,48,o),
(520,-21,o),
(664,-21,cs),
(879,-21,o),
(1093,139,o),
(1093,478,cs),
(1093,817,o),
(879,973,o),
(664,973,cs),
(520,973,o),
(386,900,o),
(313,791,c),
(313,1467,ls),
(313,1504,o),
(302,1524,o),
(282,1524,cs),
(262,1524,o),
(251,1504,o),
(251,1467,cs),
(251,48,ls),
(251,10,o),
(262,-10,o),
(282,-10,cs)
);
},
{
closed = 1;
nodes = (
(313,619,l),
(328,792,o),
(501,910,o),
(661,910,cs),
(854,910,o),
(1026,783,o),
(1026,478,cs),
(1026,179,o),
(854,42,o),
(661,42,cs),
(501,42,o),
(332,156,o),
(313,327,c)
);
}
);
width = 1238;
},
{
anchors = (
{
name = bottom;
pos = (476,0);
},
{
name = top;
pos = (216,1524);
}
);
layerId = "8A001557-9052-48C4-99E5-0FAF857062F1";
shapes = (
{
closed = 1;
nodes = (
(236,-10,o),
(247,10,o),
(247,48,cs),
(247,155,l),
(320,48,o),
(454,-21,o),
(598,-21,cs),
(813,-21,o),
(1027,139,o),
(1027,478,cs),
(1027,817,o),
(813,973,o),
(598,973,cs),
(454,973,o),
(320,900,o),
(247,791,c),
(247,1467,ls),
(247,1504,o),
(236,1524,o),
(216,1524,cs),
(196,1524,o),
(185,1504,o),
(185,1467,cs),
(185,48,ls),
(185,10,o),
(196,-10,o),
(216,-10,cs)
);
},
{
closed = 1;
nodes = (
(247,619,l),
(262,792,o),
(435,910,o),
(595,910,cs),
(788,910,o),
(960,783,o),
(960,478,cs),
(960,179,o),
(788,42,o),
(595,42,cs),
(435,42,o),
(266,156,o),
(247,327,c)
);
}
);
width = 1172;
},
{
anchors = (
{
name = bottom;
pos = (518,0);
},
{
name = top;
pos = (259,1524);
}
);
layerId = "324E61BF-7061-45AA-9F81-5D4ECCAA9032";
shapes = (
{
closed = 1;
nodes = (
(341,-10,o),
(398,23,o),
(427,86,cs),
(430,92,l),
(484,20,o),
(566,-21,o),
(673,-21,cs),
(906,-21,o),
(1092,158,o),
(1092,478,cs),
(1092,798,o),
(906,973,o),
(673,973,cs),
(576,973,o),
(501,942,o),
(449,885,c),
(449,1314,ls),
(449,1450,o),
(382,1524,o),
(259,1524,cs),
(135,1524,o),
(68,1450,o),
(68,1314,cs),
(68,200,ls),
(68,64,o),
(135,-10,o),
(259,-10,cs)
);
},
{
closed = 1;
nodes = (
(449,563,l),
(454,624,o),
(498,697,o),
(566,697,cs),
(646,697,o),
(708,613,o),
(708,478,cs),
(708,343,o),
(646,255,o),
(566,255,cs),
(502,255,o),
(457,310,o),
(449,369,c)
);
}
);
width = 1140;
}
);
unicode = 98;
},
{
color = 6;
glyphname = c;
kernLeft = o;
kernRight = c;
lastChange = "2022-07-21 12:26:04 +0000";
layers = (
{
anchors = (
{
name = bottom;
pos = (670,0);
},
{
name = top;
pos = (670,952);
}
);
layerId = "5521DC30-183F-421A-91F3-644B5E24AFE6";
shapes = (
{
closed = 1;
nodes = (
(773,-19,o),
(875,5,o),
(955,49,cs),
(1025,87,o),
(1058,144,o),
(1058,197,cs),
(1058,288,o),
(982,350,o),
(896,350,cs),
(830,350,o),
(791,329,o),
(761,297,cs),
(736,270,o),
(705,248,o),
(664,248,cs),
(571,248,o),
(501,320,o),
(501,478,cs),
(501,636,o),
(571,709,o),
(664,709,cs),
(705,709,o),
(736,687,o),
(761,659,cs),
(790,627,o),
(830,607,o),
(896,607,cs),
(982,607,o),
(1058,669,o),
(1058,759,cs),
(1058,812,o),
(1025,870,o),
(955,908,cs),
(875,951,o),
(773,975,o),
(665,975,cs),
(402,975,o),
(116,836,o),
(116,478,cs),
(116,120,o),
(402,-19,o),
(665,-19,cs)
);
}
);
width = 1238;
},
{
anchors = (
{
name = bottom;
pos = (651,0);
},
{
name = top;
pos = (651,952);
}
);
layerId = "BE68D89F-AB3F-4BDF-B332-ED50D7C47704";
shapes = (
{
closed = 1;
nodes = (
(803,-19,o),
(907,49,o),
(968,130,cs),
(979,145,o),
(984,158,o),
(984,170,cs),
(984,189,o),
(969,198,o),
(956,198,cs),
(943,198,o),
(929,185,o),
(912,162,cs),
(858,88,o),
(770,44,o),
(649,44,cs),
(483,44,o),
(267,179,o),
(267,478,cs),
(267,777,o),
(483,912,o),
(649,912,cs),
(770,912,o),
(858,869,o),
(912,794,cs),
(929,770,o),
(943,758,o),
(956,758,cs),
(969,758,o),
(984,768,o),
(984,787,cs),
(984,798,o),
(980,811,o),
(968,827,cs),
(907,908,o),
(803,975,o),
(649,975,cs),
(459,975,o),
(200,836,o),
(200,478,cs),
(200,120,o),
(459,-19,o),
(649,-19,cs)
);
}
);
width = 1238;
},
{
anchors = (
{
name = bottom;
pos = (596,0);
},
{
name = top;
pos = (596,952);
}
);
layerId = "8A001557-9052-48C4-99E5-0FAF857062F1";
shapes = (
{
closed = 1;
nodes = (
(748,-19,o),
(852,49,o),
(913,130,cs),
(924,145,o),
(929,158,o),
(929,170,cs),
(929,189,o),
(914,198,o),
(901,198,cs),
(888,198,o),
(874,185,o),
(857,162,cs),
(803,88,o),
(715,44,o),
(594,44,cs),
(428,44,o),
(212,179,o),
(212,478,cs),
(212,777,o),
(428,912,o),
(594,912,cs),
(715,912,o),
(803,869,o),
(857,794,cs),
(874,770,o),
(888,758,o),
(901,758,cs),
(914,758,o),
(929,768,o),
(929,787,cs),
(929,798,o),
(925,811,o),
(913,827,cs),
(852,908,o),
(748,975,o),
(594,975,cs),
(404,975,o),
(145,836,o),
(145,478,cs),
(145,120,o),
(404,-19,o),
(594,-19,cs)
);
}
);
width = 1074;
},
{
anchors = (
{
name = bottom;
pos = (602,0);
},
{
name = top;
pos = (602,952);
}
);
layerId = "324E61BF-7061-45AA-9F81-5D4ECCAA9032";
shapes = (
{
closed = 1;
nodes = (
(705,-19,o),
(807,5,o),
(887,49,cs),
(957,87,o),
(990,144,o),
(990,197,cs),
(990,288,o),
(914,350,o),
(828,350,cs),
(762,350,o),
(723,329,o),
(693,297,cs),
(668,270,o),
(637,248,o),
(596,248,cs),
(503,248,o),
(433,320,o),
(433,478,cs),
(433,636,o),
(503,709,o),
(596,709,cs),
(637,709,o),
(668,687,o),
(693,659,cs),
(722,627,o),
(762,607,o),
(828,607,cs),
(914,607,o),
(990,669,o),
(990,759,cs),
(990,812,o),
(957,870,o),
(887,908,cs),
(807,951,o),
(705,975,o),
(597,975,cs),
(334,975,o),
(48,836,o),
(48,478,cs),
(48,120,o),
(334,-19,o),
(597,-19,cs)
);
}
);
width = 1058;
}
);
unicode = 99;
},
{
color = 6;
glyphname = c.ss02;
kernLeft = o;
kernRight = c;
lastChange = "2022-07-21 12:26:04 +0000";
layers = (
{
anchors = (
{
name = bottom;
pos = (670,0);
},
{
name = top;
pos = (670,952);
}
);
layerId = "5521DC30-183F-421A-91F3-644B5E24AFE6";
shapes = (
{
closed = 1;
nodes = (
(782,-19,o),
(914,5,o),
(994,49,cs),
(1064,87,o),
(1097,144,o),
(1097,217,cs),
(1097,308,o),
(1031,350,o),
(945,350,cs),
(879,350,o),
(838,323,o),
(800,297,cs),
(757,267,o),
(714,248,o),
(673,248,cs),
(580,248,o),
(510,320,o),
(510,478,cs),
(510,636,o),
(560,709,o),
(653,709,cs),
(734,709,o),
(775,675,o),
(825,631,cs),
(852,607,o),
(898,570,o),
(950,570,cs),
(1047,570,o),
(1094,624,o),
(1094,751,cs),
(1094,799,ls),
(1094,925,o),
(1037,970,o),
(970,970,cs),
(928,970,o),
(879,955,o),
(859,908,cs),
(848,882,l),
(803,933,o),
(725,975,o),
(624,975,cs),
(361,975,o),
(125,836,o),
(125,478,cs),
(125,120,o),
(411,-19,o),
(674,-19,cs)
);
}
);
width = 1238;
},
{
anchors = (
{
name = bottom;
pos = (651,0);
},
{
name = top;
pos = (651,952);
}
);
layerId = "BE68D89F-AB3F-4BDF-B332-ED50D7C47704";
shapes = (
{
closed = 1;
nodes = (
(839,-19,o),
(943,69,o),
(1004,150,cs),
(1015,165,o),
(1020,178,o),
(1020,190,cs),
(1020,209,o),
(1005,218,o),
(992,218,cs),
(979,218,o),
(965,205,o),
(948,182,cs),
(894,108,o),
(806,44,o),
(665,44,cs),
(499,44,o),
(282,179,o),
(282,478,cs),
(282,777,o),
(489,912,o),
(655,912,cs),
(796,912,o),
(879,847,o),
(915,797,cs),
(934,771,o),
(939,764,o),
(960,764,cs),
(979,764,o),
(992,780,o),
(992,807,cs),
(992,927,ls),
(992,954,o),
(979,971,o),
(960,971,cs),
(940,971,o),
(927,954,o),
(927,927,cs),
(927,874,l),
(880,919,o),
(791,975,o),
(655,975,cs),
(465,975,o),
(215,836,o),
(215,478,cs),
(215,120,o),
(475,-19,o),
(665,-19,cs)
);
}
);
width = 1238;
},
{
anchors = (
{
name = bottom;
pos = (587,0);
},
{
name = top;
pos = (587,952);
}
);
layerId = "8A001557-9052-48C4-99E5-0FAF857062F1";
shapes = (
{
closed = 1;
nodes = (
(759,-19,o),
(863,69,o),
(924,150,cs),
(935,165,o),
(940,178,o),
(940,190,cs),
(940,209,o),
(925,218,o),
(912,218,cs),
(899,218,o),
(885,205,o),
(868,182,cs),
(814,108,o),
(726,44,o),
(585,44,cs),
(419,44,o),
(202,179,o),
(202,478,cs),
(202,777,o),
(409,912,o),
(575,912,cs),
(716,912,o),
(799,847,o),
(835,797,cs),
(854,771,o),
(859,764,o),
(880,764,cs),
(899,764,o),
(912,780,o),
(912,807,cs),
(912,927,ls),
(912,954,o),
(899,971,o),
(880,971,cs),
(860,971,o),
(847,954,o),
(847,927,cs),
(847,874,l),
(800,919,o),
(711,975,o),
(575,975,cs),
(385,975,o),
(135,836,o),
(135,478,cs),
(135,120,o),
(395,-19,o),
(585,-19,cs)
);
}
);
width = 1075;
},
{
anchors = (
{
name = bottom;
pos = (602,0);
},
{
name = top;
pos = (602,952);
}
);
layerId = "324E61BF-7061-45AA-9F81-5D4ECCAA9032";
shapes = (
{
closed = 1;
nodes = (
(705,-19,o),
(837,5,o),
(917,49,cs),
(987,87,o),
(1020,144,o),
(1020,217,cs),
(1020,308,o),
(954,350,o),
(868,350,cs),
(802,350,o),
(761,323,o),
(723,297,cs),
(680,267,o),
(637,248,o),
(596,248,cs),
(503,248,o),
(433,320,o),
(433,478,cs),
(433,636,o),
(483,709,o),
(576,709,cs),
(657,709,o),
(698,675,o),
(748,631,cs),
(775,607,o),
(821,570,o),
(873,570,cs),
(970,570,o),
(1017,624,o),
(1017,751,cs),
(1017,799,ls),
(1017,925,o),
(960,970,o),
(893,970,cs),
(851,970,o),
(802,955,o),
(782,908,cs),
(771,882,l),
(726,933,o),
(648,975,o),
(547,975,cs),
(284,975,o),
(48,836,o),
(48,478,cs),
(48,120,o),
(334,-19,o),
(597,-19,cs)
);
}
);
width = 1068;
}
);
},
{
color = 6;
glyphname = ccedilla;
kernLeft = o;
kernRight = c;
lastChange = "2022-07-21 12:26:04 +0000";
layers = (
{
layerId = "5521DC30-183F-421A-91F3-644B5E24AFE6";
shapes = (
{
closed = 1;
nodes = (
(793,-473,o),
(982,-404,o),
(982,-264,cs),
(982,-156,o),
(873,-110,o),
(782,-110,cs),
(730,-110,o),
(683,-120,o),
(645,-151,c),
(691,-19,l),
(790,-15,o),
(883,8,o),
(957,49,cs),
(1027,87,o),
(1060,144,o),
(1060,197,cs),
(1060,288,o),
(984,350,o),
(898,350,cs),
(832,350,o),
(793,329,o),
(763,297,cs),
(738,270,o),
(707,248,o),
(666,248,cs),
(573,248,o),
(503,320,o),
(503,478,cs),
(503,636,o),
(573,709,o),
(666,709,cs),
(707,709,o),
(738,687,o),
(763,659,cs),
(792,627,o),
(832,607,o),
(898,607,cs),
(984,607,o),
(1060,669,o),
(1060,759,cs),
(1060,812,o),
(1027,870,o),
(957,908,cs),
(877,951,o),
(775,975,o),
(667,975,cs),
(404,975,o),
(118,836,o),
(118,478,cs),
(118,194,o),
(299,47,o),
(505,-1,c),
(453,-139,ls),
(447,-154,o),
(443,-170,o),
(443,-185,cs),
(443,-228,o),
(469,-264,o),
(528,-264,cs),
(553,-264,o),
(578,-259,o),
(604,-251,cs),
(628,-244,o),
(654,-240,o),
(679,-240,cs),
(708,-240,o),
(725,-250,o),
(725,-270,cs),
(725,-300,o),
(683,-315,o),
(616,-315,cs),
(579,-315,o),
(550,-314,o),
(524,-307,cs),
(502,-301,o),
(481,-297,o),
(462,-297,cs),
(425,-297,o),
(389,-322,o),
(389,-369,cs),
(389,-403,o),
(410,-432,o),
(457,-453,cs),
(488,-467,o),
(532,-473,o),
(590,-473,cs)
);
}
);
width = 1238;
},
{
layerId = "BE68D89F-AB3F-4BDF-B332-ED50D7C47704";
shapes = (
{
closed = 1;
nodes = (
(758,-416,o),
(881,-353,o),
(881,-222,cs),
(881,-144,o),
(819,-112,o),
(752,-112,cs),
(706,-112,o),
(659,-128,o),
(629,-145,c),
(666,-19,l),
(810,-13,o),
(908,52,o),
(967,130,cs),
(978,145,o),
(983,158,o),
(983,170,cs),
(983,189,o),
(968,198,o),
(955,198,cs),
(942,198,o),
(928,185,o),
(911,162,cs),
(857,88,o),
(769,44,o),
(648,44,cs),
(482,44,o),
(266,179,o),
(266,478,cs),
(266,777,o),
(482,912,o),
(648,912,cs),
(769,912,o),
(857,869,o),
(911,794,cs),
(928,770,o),
(942,758,o),
(955,758,cs),
(968,758,o),
(983,768,o),
(983,787,cs),
(983,798,o),
(979,811,o),
(967,827,cs),
(906,908,o),
(802,975,o),
(648,975,cs),
(458,975,o),
(199,836,o),
(199,478,cs),
(199,145,o),
(423,2,o),
(607,-17,c),
(568,-140,ls),
(564,-152,o),
(560,-166,o),
(560,-174,cs),
(560,-193,o),
(571,-199,o),
(587,-199,cs),
(605,-199,o),
(621,-194,o),
(639,-187,cs),
(663,-177,o),
(692,-169,o),
(737,-169,cs),
(778,-169,o),
(811,-188,o),
(811,-236,cs),
(811,-314,o),
(722,-355,o),
(616,-355,cs),
(595,-355,o),
(564,-353,o),
(550,-350,cs),
(540,-348,o),
(532,-347,o),
(523,-347,cs),
(499,-347,o),
(487,-356,o),
(487,-375,cs),
(487,-390,o),
(504,-403,o),
(538,-410,cs),
(563,-415,o),
(589,-416,o),
(613,-416,cs)
);
}
);
width = 1238;
},
{
layerId = "8A001557-9052-48C4-99E5-0FAF857062F1";
shapes = (
{
closed = 1;
nodes = (
(704,-416,o),
(827,-353,o),
(827,-222,cs),
(827,-144,o),
(765,-112,o),
(698,-112,cs),
(652,-112,o),
(605,-128,o),
(575,-145,c),
(612,-19,l),
(756,-13,o),
(854,52,o),
(913,130,cs),
(924,145,o),
(929,158,o),
(929,170,cs),
(929,189,o),
(914,198,o),
(901,198,cs),
(888,198,o),
(874,185,o),
(857,162,cs),
(803,88,o),
(715,44,o),
(594,44,cs),
(428,44,o),
(212,179,o),
(212,478,cs),
(212,777,o),
(428,912,o),
(594,912,cs),
(715,912,o),
(803,869,o),
(857,794,cs),
(874,770,o),
(888,758,o),
(901,758,cs),
(914,758,o),
(929,768,o),
(929,787,cs),
(929,798,o),
(925,811,o),
(913,827,cs),
(852,908,o),
(748,975,o),
(594,975,cs),
(404,975,o),
(145,836,o),
(145,478,cs),
(145,145,o),
(369,2,o),
(553,-17,c),
(514,-140,ls),
(510,-152,o),
(506,-166,o),
(506,-174,cs),
(506,-193,o),
(517,-199,o),
(533,-199,cs),
(551,-199,o),
(567,-194,o),
(585,-187,cs),
(609,-177,o),
(638,-169,o),
(683,-169,cs),
(724,-169,o),
(757,-188,o),
(757,-236,cs),
(757,-314,o),
(668,-355,o),
(562,-355,cs),
(541,-355,o),
(510,-353,o),
(496,-350,cs),
(486,-348,o),
(478,-347,o),
(469,-347,cs),
(445,-347,o),
(433,-356,o),
(433,-375,cs),
(433,-390,o),
(450,-403,o),
(484,-410,cs),
(509,-415,o),
(535,-416,o),
(559,-416,cs)
);
}
);
width = 1074;
},
{
layerId = "324E61BF-7061-45AA-9F81-5D4ECCAA9032";
shapes = (
{
closed = 1;
nodes = (
(723,-473,o),
(912,-404,o),
(912,-264,cs),
(912,-156,o),
(803,-110,o),
(712,-110,cs),
(660,-110,o),
(613,-120,o),
(575,-151,c),
(621,-19,l),
(720,-15,o),
(813,8,o),
(887,49,cs),
(957,87,o),
(990,144,o),
(990,197,cs),
(990,288,o),
(914,350,o),
(828,350,cs),
(762,350,o),
(723,329,o),
(693,297,cs),
(668,270,o),
(637,248,o),
(596,248,cs),
(503,248,o),
(433,320,o),
(433,478,cs),
(433,636,o),
(503,709,o),
(596,709,cs),
(637,709,o),
(668,687,o),
(693,659,cs),
(722,627,o),
(762,607,o),
(828,607,cs),
(914,607,o),
(990,669,o),
(990,759,cs),
(990,812,o),
(957,870,o),
(887,908,cs),
(807,951,o),
(705,975,o),
(597,975,cs),
(334,975,o),
(48,836,o),
(48,478,cs),
(48,194,o),
(229,47,o),
(435,-1,c),
(383,-139,ls),
(377,-154,o),
(373,-170,o),
(373,-185,cs),
(373,-228,o),
(399,-264,o),
(458,-264,cs),
(483,-264,o),
(508,-259,o),
(534,-251,cs),
(558,-244,o),
(584,-240,o),
(609,-240,cs),
(638,-240,o),
(655,-250,o),
(655,-270,cs),
(655,-300,o),
(613,-315,o),
(546,-315,cs),
(509,-315,o),
(480,-314,o),
(454,-307,cs),
(432,-301,o),
(411,-297,o),
(392,-297,cs),
(355,-297,o),
(319,-322,o),
(319,-369,cs),
(319,-403,o),
(340,-432,o),
(387,-453,cs),
(418,-467,o),
(462,-473,o),
(520,-473,cs)
);
}
);
width = 1042;
}
);
unicode = 231;
},
{
color = 6;
glyphname = d;
kernLeft = o;
kernRight = l;
lastChange = "2022-07-21 12:26:04 +0000";
layers = (
{
anchors = (
{
name = bottom;
pos = (642,0);
},
{
name = center;
pos = (947,1236);
},
{
name = top;
pos = (642,952);
},
{
name = topright;
pos = (1127,1238);
}
);
layerId = "5521DC30-183F-421A-91F3-644B5E24AFE6";
shapes = (
{
closed = 1;
nodes = (
(1043,-10,o),
(1110,64,o),
(1110,200,cs),
(1110,1314,ls),
(1110,1450,o),
(1043,1524,o),
(919,1524,cs),
(796,1524,o),
(729,1450,o),
(729,1314,cs),
(729,885,l),
(677,942,o),
(602,973,o),
(505,973,cs),
(272,973,o),
(86,798,o),
(86,478,cs),
(86,158,o),
(272,-21,o),
(505,-21,cs),
(612,-21,o),
(694,20,o),
(748,92,c),
(751,86,ls),
(780,23,o),
(837,-10,o),
(919,-10,cs)
);
},
{
closed = 1;
nodes = (
(721,310,o),
(676,255,o),
(612,255,cs),
(532,255,o),
(470,343,o),
(470,478,cs),
(470,613,o),
(532,697,o),
(612,697,cs),
(680,697,o),
(724,624,o),
(729,563,c),
(729,369,l)
);
}
);
width = 1238;
},
{
anchors = (
{
name = bottom;
pos = (610,0);
},
{
name = center;
pos = (981,1238);
},
{
name = top;
pos = (610,952);
},
{
name = topright;
pos = (1040,1238);
}
);
layerId = "BE68D89F-AB3F-4BDF-B332-ED50D7C47704";
shapes = (
{
closed = 1;
nodes = (
(976,-10,o),
(987,10,o),
(987,48,cs),
(987,1467,ls),
(987,1504,o),
(976,1524,o),
(956,1524,cs),
(936,1524,o),
(925,1504,o),
(925,1467,cs),
(925,791,l),
(852,900,o),
(718,973,o),
(574,973,cs),
(359,973,o),
(145,817,o),
(145,478,cs),
(145,139,o),
(359,-21,o),
(574,-21,cs),
(718,-21,o),
(852,48,o),
(925,155,c),
(925,48,ls),
(925,10,o),
(936,-10,o),
(956,-10,cs)
);
},
{
closed = 1;
nodes = (
(906,156,o),
(737,42,o),
(577,42,cs),
(384,42,o),
(212,179,o),
(212,478,cs),
(212,783,o),
(384,910,o),
(577,910,cs),
(737,910,o),
(910,792,o),
(925,619,c),
(925,327,l)
);
}
);
width = 1238;
},
{
anchors = (
{
name = bottom;
pos = (610,0);
},
{
name = center;
pos = (981,1238);
},
{
name = top;
pos = (610,952);
},
{
name = topright;
pos = (1040,1238);
}
);
layerId = "8A001557-9052-48C4-99E5-0FAF857062F1";
shapes = (
{
closed = 1;
nodes = (
(976,-10,o),
(987,10,o),
(987,48,cs),
(987,1467,ls),
(987,1504,o),
(976,1524,o),
(956,1524,cs),
(936,1524,o),
(925,1504,o),
(925,1467,cs),
(925,791,l),
(852,900,o),
(718,973,o),
(574,973,cs),
(359,973,o),
(145,817,o),
(145,478,cs),
(145,139,o),
(359,-21,o),
(574,-21,cs),
(718,-21,o),
(852,48,o),
(925,155,c),
(925,48,ls),
(925,10,o),
(936,-10,o),
(956,-10,cs)
);
},
{
closed = 1;
nodes = (
(906,156,o),
(737,42,o),
(577,42,cs),
(384,42,o),
(212,179,o),
(212,478,cs),
(212,783,o),
(384,910,o),
(577,910,cs),
(737,910,o),
(910,792,o),
(925,619,c),
(925,327,l)
);
}
);
width = 1172;
},
{
anchors = (
{
name = bottom;
pos = (642,0);
},
{
name = center;
pos = (947,1236);
},
{
name = top;
pos = (642,952);
},
{
name = topright;
pos = (1127,1238);
}
);
layerId = "324E61BF-7061-45AA-9F81-5D4ECCAA9032";
shapes = (
{
closed = 1;
nodes = (
(1005,-10,o),
(1072,64,o),
(1072,200,cs),
(1072,1314,ls),
(1072,1450,o),
(1005,1524,o),
(881,1524,cs),
(758,1524,o),
(691,1450,o),
(691,1314,cs),
(691,885,l),
(639,942,o),
(564,973,o),
(467,973,cs),
(234,973,o),
(48,798,o),
(48,478,cs),
(48,158,o),
(234,-21,o),
(467,-21,cs),
(574,-21,o),
(656,20,o),
(710,92,c),
(713,86,ls),
(742,23,o),
(799,-10,o),
(881,-10,cs)
);
},
{
closed = 1;
nodes = (
(683,310,o),
(638,255,o),
(574,255,cs),
(494,255,o),
(432,343,o),
(432,478,cs),
(432,613,o),
(494,697,o),
(574,697,cs),
(642,697,o),
(686,624,o),
(691,563,c),
(691,369,l)
);
}
);
width = 1140;
}
);
unicode = 100;
},
{
color = 6;
glyphname = eth;
kernLeft = eth;
kernRight = eth;
lastChange = "2022-07-21 12:26:04 +0000";
layers = (
{
anchors = (
{
name = bottom;
pos = (619,0);
},
{
name = top;
pos = (619,1524);
}
);
layerId = "5521DC30-183F-421A-91F3-644B5E24AFE6";
shapes = (
{
closed = 1;
nodes = (
(884,-21,o),
(1176,120,o),
(1176,478,cs),
(1176,819,o),
(982,1144,o),
(760,1339,c),
(768,1347,ls),
(785,1365,o),
(808,1390,o),
(808,1431,cs),
(808,1480,o),
(769,1524,o),
(714,1524,cs),
(672,1524,o),
(653,1509,o),
(613,1469,cs),
(598,1454,l),
(577,1466,o),
(557,1476,o),
(536,1485,cs),
(480,1509,o),
(458,1512,o),
(415,1512,cs),
(337,1512,o),
(264,1464,o),
(264,1392,cs),
(264,1305,o),
(324,1270,o),
(372,1242,cs),
(375,1240,o),
(378,1239,o),
(381,1237,c),
(358,1214,ls),
(347,1203,o),
(320,1172,o),
(320,1127,cs),
(320,1064,o),
(368,1031,o),
(413,1031,cs),
(458,1031,o),
(488,1053,o),
(524,1090,cs),
(552,1120,l),
(603,1077,o),
(649,1030,o),
(687,973,c),
(669,974,o),
(651,975,o),
(633,975,cs),
(380,975,o),
(88,834,o),
(88,478,cs),
(88,120,o),
(380,-21,o),
(633,-21,cs)
);
},
{
closed = 1;
nodes = (
(471,635,o),
(536,710,o),
(633,710,cs),
(728,710,o),
(793,635,o),
(793,478,cs),
(793,321,o),
(728,245,o),
(633,245,cs),
(536,245,o),
(471,321,o),
(471,478,cs)
);
}
);
width = 1238;
},
{
anchors = (
{
name = bottom;
pos = (619,0);
},
{
name = top;
pos = (619,1524);
}
);
layerId = "BE68D89F-AB3F-4BDF-B332-ED50D7C47704";
shapes = (
{
closed = 1;
nodes = (
(861,-21,o),
(1103,130,o),
(1103,478,cs),
(1103,887,o),
(882,1205,o),
(652,1377,c),
(689,1400,ls),
(711,1414,o),
(721,1431,o),
(721,1446,cs),
(721,1462,o),
(711,1476,o),
(690,1476,cs),
(677,1476,o),
(663,1472,o),
(649,1463,cs),
(586,1423,l),
(527,1460,o),
(469,1487,o),
(415,1503,cs),
(400,1508,o),
(387,1510,o),
(374,1510,cs),
(357,1510,o),
(341,1501,o),
(341,1485,cs),
(341,1468,o),
(354,1453,o),
(387,1444,cs),
(429,1433,o),
(476,1412,o),
(524,1384,c),
(474,1352,ls),
(450,1337,o),
(439,1322,o),
(439,1309,cs),
(439,1294,o),
(453,1278,o),
(473,1278,cs),
(486,1278,o),
(500,1283,o),
(515,1292,cs),
(592,1340,l),
(739,1234,o),
(891,1059,o),
(974,837,c),
(884,932,o),
(759,975,o),
(640,975,cs),
(417,975,o),
(175,825,o),
(175,478,cs),
(175,130,o),
(417,-21,o),
(640,-21,cs)
);
},
{
closed = 1;
nodes = (
(242,794,o),
(463,912,o),
(640,912,cs),
(815,912,o),
(1036,794,o),
(1036,478,cs),
(1036,156,o),
(815,42,o),
(640,42,cs),
(463,42,o),
(242,156,o),
(242,478,cs)
);
}
);
width = 1238;
},
{
anchors = (
{
name = bottom;
pos = (609,0);
},
{
name = top;
pos = (609,1524);
}
);
layerId = "8A001557-9052-48C4-99E5-0FAF857062F1";
shapes = (
{
closed = 1;
nodes = (
(831,-21,o),
(1073,130,o),
(1073,478,cs),
(1073,887,o),
(852,1205,o),
(622,1377,c),
(659,1400,ls),
(681,1414,o),
(691,1431,o),
(691,1446,cs),
(691,1462,o),
(681,1476,o),
(660,1476,cs),
(647,1476,o),
(633,1472,o),
(619,1463,cs),
(556,1423,l),
(497,1460,o),
(439,1487,o),
(385,1503,cs),
(370,1508,o),
(357,1510,o),
(344,1510,cs),
(327,1510,o),
(311,1501,o),
(311,1485,cs),
(311,1468,o),
(324,1453,o),
(357,1444,cs),
(399,1433,o),
(446,1412,o),
(494,1384,c),
(444,1352,ls),
(420,1337,o),
(409,1322,o),
(409,1309,cs),
(409,1294,o),
(423,1278,o),
(443,1278,cs),
(456,1278,o),
(470,1283,o),
(485,1292,cs),
(562,1340,l),
(709,1234,o),
(861,1059,o),
(944,837,c),
(854,932,o),
(729,975,o),
(610,975,cs),
(387,975,o),
(145,825,o),
(145,478,cs),
(145,130,o),
(387,-21,o),
(610,-21,cs)
);
},
{
closed = 1;
nodes = (
(212,794,o),
(433,912,o),
(610,912,cs),
(785,912,o),
(1006,794,o),
(1006,478,cs),
(1006,156,o),
(785,42,o),
(610,42,cs),
(433,42,o),
(212,156,o),
(212,478,cs)
);
}
);
width = 1218;
},
{
anchors = (
{
name = bottom;
pos = (592,0);
},
{
name = top;
pos = (592,1524);
}
);
layerId = "324E61BF-7061-45AA-9F81-5D4ECCAA9032";
shapes = (
{
closed = 1;
nodes = (
(844,-21,o),
(1136,120,o),
(1136,478,cs),
(1136,819,o),
(942,1144,o),
(720,1339,c),
(728,1347,ls),
(745,1365,o),
(768,1390,o),
(768,1431,cs),
(768,1480,o),
(729,1524,o),
(674,1524,cs),
(632,1524,o),
(613,1509,o),
(573,1469,cs),
(558,1454,l),
(537,1466,o),
(517,1476,o),
(496,1485,cs),
(440,1509,o),
(418,1512,o),
(375,1512,cs),
(297,1512,o),
(224,1464,o),
(224,1392,cs),
(224,1305,o),
(284,1270,o),
(332,1242,cs),
(335,1240,o),
(338,1239,o),
(341,1237,c),
(318,1214,ls),
(307,1203,o),
(280,1172,o),
(280,1127,cs),
(280,1064,o),
(328,1031,o),
(373,1031,cs),
(418,1031,o),
(448,1053,o),
(484,1090,cs),
(512,1120,l),
(563,1077,o),
(609,1030,o),
(647,973,c),
(629,974,o),
(611,975,o),
(593,975,cs),
(340,975,o),
(48,834,o),
(48,478,cs),
(48,120,o),
(340,-21,o),
(593,-21,cs)
);
},
{
closed = 1;
nodes = (
(431,635,o),
(496,710,o),
(593,710,cs),
(688,710,o),
(753,635,o),
(753,478,cs),
(753,321,o),
(688,245,o),
(593,245,cs),
(496,245,o),
(431,321,o),
(431,478,cs)
);
}
);
width = 1184;
}
);
unicode = 240;
},
{
color = 3;
glyphname = dcroat;
kernLeft = o;
kernRight = l;
lastChange = "2022-07-21 12:26:04 +0000";
layers = (
{
layerId = "5521DC30-183F-421A-91F3-644B5E24AFE6";
shapes = (
{
ref = d;
},
{
closed = 1;
nodes = (
(413,1162,o),
(457,1122,o),
(593,1122,cs),
(1081,1122,ls),
(1197,1122,o),
(1240,1162,o),
(1240,1236,cs),
(1240,1311,o),
(1197,1351,o),
(1081,1351,cs),
(593,1351,ls),
(457,1351,o),
(413,1311,o),
(413,1236,cs)
);
}
);
width = 1238;
},
{
layerId = "BE68D89F-AB3F-4BDF-B332-ED50D7C47704";
shapes = (
{
ref = d;
},
{
closed = 1;
nodes = (
(558,1218,o),
(578,1208,o),
(615,1208,cs),
(1068,1208,ls),
(1106,1208,o),
(1126,1219,o),
(1126,1238,cs),
(1126,1257,o),
(1106,1269,o),
(1068,1269,cs),
(615,1269,ls),
(578,1269,o),
(558,1257,o),
(558,1238,cs)
);
}
);
width = 1238;
},
{
layerId = "8A001557-9052-48C4-99E5-0FAF857062F1";
shapes = (
{
ref = d;
},
{
closed = 1;
nodes = (
(523,1218,o),
(543,1208,o),
(580,1208,cs),
(1033,1208,ls),
(1071,1208,o),
(1091,1219,o),
(1091,1238,cs),
(1091,1257,o),
(1071,1269,o),
(1033,1269,cs),
(580,1269,ls),
(543,1269,o),
(523,1257,o),
(523,1238,cs)
);
}
);
width = 1092;
},
{
layerId = "324E61BF-7061-45AA-9F81-5D4ECCAA9032";
shapes = (
{
ref = d;
},
{
closed = 1;
nodes = (
(401,1162,o),
(445,1122,o),
(581,1122,cs),
(1069,1122,ls),
(1185,1122,o),
(1228,1162,o),
(1228,1236,cs),
(1228,1311,o),
(1185,1351,o),
(1069,1351,cs),
(581,1351,ls),
(445,1351,o),
(401,1311,o),
(401,1236,cs)
);
}
);
width = 1140;
}
);
unicode = 273;
},
{
color = 6;
glyphname = e;
kernLeft = o;
kernRight = o;
lastChange = "2022-07-21 12:26:04 +0000";
layers = (
{
anchors = (
{
name = bottom;
pos = (649,0);
},
{
name = ogonek;
pos = (904,29);
},
{
name = top;
pos = (628,952);
}
);
layerId = "5521DC30-183F-421A-91F3-644B5E24AFE6";
shapes = (
{
closed = 1;
nodes = (
(775,-21,o),
(917,9,o),
(1001,65,cs),
(1061,105,o),
(1108,143,o),
(1108,225,cs),
(1108,307,o),
(1050,349,o),
(974,349,cs),
(915,349,o),
(864,324,o),
(810,293,cs),
(767,268,o),
(725,246,o),
(646,246,cs),
(553,246,o),
(497,305,o),
(479,403,c),
(929,403,ls),
(1054,403,o),
(1110,447,o),
(1110,567,cs),
(1110,804,o),
(904,975,o),
(620,975,cs),
(330,975,o),
(111,794,o),
(111,478,cs),
(111,160,o),
(337,-21,o),
(615,-21,cs)
);
},
{
closed = 1;
nodes = (
(507,674,o),
(558,729,o),
(631,729,cs),
(716,729,o),
(767,666,o),
(779,585,c),
(485,585,l)
);
}
);
width = 1238;
},
{
anchors = (
{
name = bottom;
pos = (639,0);
},
{
name = ogonek;
pos = (848,29);
},
{
name = top;
pos = (639,952);
}
);
layerId = "BE68D89F-AB3F-4BDF-B332-ED50D7C47704";
shapes = (
{
closed = 1;
nodes = (
(820,-21,o),
(935,66,o),
(1001,138,cs),
(1015,153,o),
(1022,167,o),
(1022,180,cs),
(1022,197,o),
(1006,208,o),
(990,208,cs),
(974,208,o),
(961,198,o),
(944,179,cs),
(888,117,o),
(796,42,o),
(626,42,cs),
(435,42,o),
(250,183,o),
(248,473,c),
(990,473,ls),
(1026,473,o),
(1048,492,o),
(1048,530,cs),
(1048,777,o),
(878,975,o),
(628,975,cs),
(422,975,o),
(181,827,o),
(181,478,cs),
(181,133,o),
(403,-21,o),
(626,-21,cs)
);
},
{
closed = 1;
nodes = (
(275,793,o),
(459,912,o),
(624,912,cs),
(837,912,o),
(970,764,o),
(979,536,c),
(251,536,l)
);
}
);
width = 1238;
},
{
anchors = (
{
name = bottom;
pos = (639,0);
},
{
name = ogonek;
pos = (860,26);
},
{
name = top;
pos = (629,952);
}
);
associatedMasterId = "BE68D89F-AB3F-4BDF-B332-ED50D7C47704";
attr = {
coordinates = (
500,
1
);
};
layerId = "91C3C780-A428-448E-9FFB-C711A7622D08";
name = "{500}";
shapes = (
{
closed = 1;
nodes = (
(798,-21,o),
(921,35,o),
(996,97,cs),
(1032,126,o),
(1055,155,o),
(1055,193,cs),
(1055,242,o),
(1023,275,o),
(974,275,cs),
(936,275,o),
(906,259,o),
(878,236,cs),
(826,192,o),
(756,144,o),
(631,144,cs),
(488,144,o),
(363,246,o),
(348,438,c),
(955,438,ls),
(1035,438,o),
(1064,470,o),
(1064,549,cs),
(1064,806,o),
(886,975,o),
(619,975,cs),
(371,975,o),
(131,811,o),
(131,478,cs),
(131,147,o),
(370,-21,o),
(621,-21,cs)
);
},
{
closed = 1;
nodes = (
(396,755,o),
(506,821,o),
(618,821,cs),
(756,821,o),
(840,744,o),
(860,600,c),
(359,600,l)
);
}
);
width = 1238;
},
{
anchors = (
{
name = bottom;
pos = (603,0);
},
{
name = ogonek;
pos = (814,29);
},
{
name = top;
pos = (603,952);
}
);
layerId = "8A001557-9052-48C4-99E5-0FAF857062F1";
shapes = (
{
closed = 1;
nodes = (
(784,-21,o),
(899,66,o),
(965,138,cs),
(979,153,o),
(986,167,o),
(986,180,cs),
(986,197,o),
(970,208,o),
(954,208,cs),
(938,208,o),
(925,198,o),
(908,179,cs),
(852,117,o),
(760,42,o),
(590,42,cs),
(399,42,o),
(214,183,o),
(212,473,c),
(954,473,ls),
(990,473,o),
(1012,492,o),
(1012,530,cs),
(1012,777,o),
(842,975,o),
(592,975,cs),
(386,975,o),
(145,827,o),
(145,478,cs),
(145,133,o),
(367,-21,o),
(590,-21,cs)
);
},
{
closed = 1;
nodes = (
(239,793,o),
(423,912,o),
(588,912,cs),
(801,912,o),
(934,764,o),
(943,536,c),
(215,536,l)
);
}
);
width = 1157;
},
{
anchors = (
{
name = bottom;
pos = (583,0);
},
{
name = ogonek;
pos = (817,29);
},
{
name = top;
pos = (573,952);
}
);
associatedMasterId = "8A001557-9052-48C4-99E5-0FAF857062F1";
attr = {
coordinates = (
500,
0
);
};
layerId = "180F3452-0CE4-4D0D-9671-F0A443F62E44";
name = "{500}";
shapes = (
{
closed = 1;
nodes = (
(742,-21,o),
(865,35,o),
(940,97,cs),
(976,126,o),
(999,155,o),
(999,193,cs),
(999,242,o),
(967,275,o),
(918,275,cs),
(880,275,o),
(850,259,o),
(822,236,cs),
(770,192,o),
(700,144,o),
(575,144,cs),
(432,144,o),
(307,246,o),
(292,438,c),
(899,438,ls),
(979,438,o),
(1008,470,o),
(1008,549,cs),
(1008,806,o),
(830,975,o),
(563,975,cs),
(315,975,o),
(75,811,o),
(75,478,cs),
(75,147,o),
(314,-21,o),
(565,-21,cs)
);
},
{
closed = 1;
nodes = (
(340,755,o),
(450,821,o),
(562,821,cs),
(700,821,o),
(784,744,o),
(804,600,c),
(303,600,l)
);
}
);
width = 1093;
},
{
anchors = (
{
name = bottom;
pos = (586,0);
},
{
name = ogonek;
pos = (855,29);
},
{
name = top;
pos = (565,952);
}
);
layerId = "324E61BF-7061-45AA-9F81-5D4ECCAA9032";
shapes = (
{
closed = 1;
nodes = (
(712,-21,o),
(854,9,o),
(938,65,cs),
(998,105,o),
(1045,143,o),
(1045,225,cs),
(1045,307,o),
(987,349,o),
(911,349,cs),
(852,349,o),
(801,324,o),
(747,293,cs),
(704,268,o),
(662,246,o),
(583,246,cs),
(490,246,o),
(434,305,o),
(416,403,c),
(866,403,ls),
(991,403,o),
(1047,447,o),
(1047,567,cs),
(1047,804,o),
(841,975,o),
(557,975,cs),
(267,975,o),
(48,794,o),
(48,478,cs),
(48,160,o),
(274,-21,o),
(552,-21,cs)
);
},
{
closed = 1;
nodes = (
(444,674,o),
(495,729,o),
(568,729,cs),
(653,729,o),
(704,666,o),
(716,585,c),
(422,585,l)
);
}
);
width = 1115;
}
);
unicode = 101;
},
{
color = 6;
glyphname = schwa;
lastChange = "2022-07-21 12:26:04 +0000";
layers = (
{
layerId = "BE68D89F-AB3F-4BDF-B332-ED50D7C47704";
shapes = (
{
closed = 1;
nodes = (
(807,-21,o),
(1038,127,o),
(1038,476,cs),
(1038,821,o),
(826,975,o),
(603,975,cs),
(419,975,o),
(304,898,o),
(238,826,cs),
(224,811,o),
(217,797,o),
(217,784,cs),
(217,767,o),
(233,756,o),
(249,756,cs),
(265,756,o),
(278,766,o),
(295,785,cs),
(351,847,o),
(443,912,o),
(603,912,cs),
(795,912,o),
(971,769,o),
(971,476,cs),
(971,179,o),
(782,42,o),
(605,42,cs),
(385,42,o),
(250,200,o),
(250,462,c),
(222,438,l),
(992,438,l),
(992,501,l),
(239,501,ls),
(203,501,o),
(181,482,o),
(181,444,cs),
(181,177,o),
(351,-21,o),
(601,-21,cs)
);
}
);
width = 1238;
},
{
layerId = "5521DC30-183F-421A-91F3-644B5E24AFE6";
shapes = (
{
closed = 1;
nodes = (
(901,-21,o),
(1120,160,o),
(1120,476,cs),
(1120,794,o),
(884,975,o),
(606,975,cs),
(446,975,o),
(314,949,o),
(230,899,cs),
(168,862,o),
(133,811,o),
(133,749,cs),
(133,667,o),
(182,621,o),
(264,621,cs),
(323,621,o),
(366,641,o),
(409,662,cs),
(457,685,o),
(506,708,o),
(585,708,cs),
(700,708,o),
(758,619,o),
(758,476,cs),
(758,327,o),
(699,245,o),
(600,245,cs),
(502,245,o),
(459,330,o),
(459,428,c),
(421,379,l),
(771,379,l),
(771,571,l),
(302,571,ls),
(177,571,o),
(111,517,o),
(111,397,cs),
(111,130,o),
(327,-21,o),
(611,-21,cs)
);
}
);
width = 1238;
},
{
layerId = "8A001557-9052-48C4-99E5-0FAF857062F1";
shapes = (
{
closed = 1;
nodes = (
(681,-21,o),
(912,127,o),
(912,476,cs),
(912,821,o),
(700,975,o),
(477,975,cs),
(293,975,o),
(178,898,o),
(112,826,cs),
(98,811,o),
(91,797,o),
(91,784,cs),
(91,767,o),
(107,756,o),
(123,756,cs),
(139,756,o),
(152,766,o),
(169,785,cs),
(225,847,o),
(317,912,o),
(477,912,cs),
(669,912,o),
(845,769,o),
(845,476,cs),
(845,179,o),
(656,42,o),
(479,42,cs),
(259,42,o),
(124,200,o),
(124,462,c),
(96,438,l),
(866,438,l),
(866,501,l),
(113,501,ls),
(77,501,o),
(55,482,o),
(55,444,cs),
(55,177,o),
(225,-21,o),
(475,-21,cs)
);
}
);
width = 967;
},
{
layerId = "324E61BF-7061-45AA-9F81-5D4ECCAA9032";
shapes = (
{
closed = 1;
nodes = (
(798,-21,o),
(1017,160,o),
(1017,476,cs),
(1017,794,o),
(781,975,o),
(503,975,cs),
(343,975,o),
(211,949,o),
(127,899,cs),
(65,862,o),
(30,811,o),
(30,749,cs),
(30,667,o),
(79,621,o),
(161,621,cs),
(220,621,o),
(263,641,o),
(306,662,cs),
(354,685,o),
(403,708,o),
(482,708,cs),
(597,708,o),
(655,619,o),
(655,476,cs),
(655,327,o),
(596,245,o),
(497,245,cs),
(399,245,o),
(356,330,o),
(356,428,c),
(318,379,l),
(668,379,l),
(668,571,l),
(199,571,ls),
(74,571,o),
(8,517,o),
(8,397,cs),
(8,130,o),
(224,-21,o),
(508,-21,cs)
);
}
);
width = 1025;
}
);
unicode = 601;
},
{
color = 6;
glyphname = f;
kernLeft = f;
kernRight = f;
lastChange = "2022-07-21 12:26:04 +0000";
layers = (
{
anchors = (
{
name = bottom;
pos = (552,0);
},
{
name = top;
pos = (616,1524);
}
);
layerId = "5521DC30-183F-421A-91F3-644B5E24AFE6";
shapes = (
{
closed = 1;
nodes = (
(319,686,l),
(319,190,ls),
(319,54,o),
(386,-19,o),
(510,-19,cs),
(633,-19,o),
(700,54,o),
(700,190,cs),
(700,686,l),
(893,686,ls),
(1020,686,o),
(1084,732,o),
(1084,819,cs),
(1084,906,o),
(1020,952,o),
(893,952,cs),
(700,952,l),
(700,1068,ls),
(700,1226,o),
(730,1289,o),
(782,1289,cs),
(821,1289,o),
(851,1263,o),
(857,1219,cs),
(864,1170,o),
(892,1113,o),
(1000,1113,cs),
(1093,1113,o),
(1151,1163,o),
(1151,1264,cs),
(1151,1435,o),
(985,1551,o),
(771,1551,cs),
(562,1551,o),
(319,1437,o),
(319,1087,cs),
(319,952,l),
(269,952,ls),
(142,952,o),
(78,906,o),
(78,819,cs),
(78,732,o),
(142,686,o),
(269,686,cs)
);
}
);
width = 1238;
},
{
anchors = (
{
name = bottom;
pos = (495,0);
},
{
name = top;
pos = (543,1524);
}
);
layerId = "BE68D89F-AB3F-4BDF-B332-ED50D7C47704";
shapes = (
{
closed = 1;
nodes = (
(457,891,l),
(457,44,ls),
(457,7,o),
(469,-13,o),
(489,-13,cs),
(509,-13,o),
(520,7,o),
(520,44,cs),
(520,891,l),
(880,891,ls),
(918,891,o),
(938,903,o),
(938,922,cs),
(938,941,o),
(918,952,o),
(880,952,cs),
(520,952,l),
(520,1179,ls),
(520,1413,o),
(623,1494,o),
(744,1494,cs),
(876,1494,o),
(954,1401,o),
(961,1240,cs),
(962,1217,o),
(970,1191,o),
(994,1191,cs),
(1019,1191,o),
(1024,1214,o),
(1024,1240,cs),
(1024,1422,o),
(914,1550,o),
(745,1550,cs),
(587,1550,o),
(457,1452,o),
(457,1189,cs),
(457,952,l),
(194,952,ls),
(157,952,o),
(137,941,o),
(137,922,cs),
(137,902,o),
(157,891,o),
(194,891,cs)
);
}
);
width = 1238;
},
{
anchors = (
{
name = bottom;
pos = (393,0);
},
{
name = top;
pos = (441,1524);
}
);
layerId = "8A001557-9052-48C4-99E5-0FAF857062F1";
shapes = (
{
closed = 1;
nodes = (
(355,891,l),
(355,44,ls),
(355,7,o),
(367,-13,o),
(387,-13,cs),
(407,-13,o),
(418,7,o),
(418,44,cs),
(418,891,l),
(686,891,ls),
(724,891,o),
(744,903,o),
(744,922,cs),
(744,941,o),
(724,952,o),
(686,952,cs),
(418,952,l),
(418,1159,ls),
(418,1413,o),
(531,1494,o),
(632,1494,cs),
(744,1494,o),
(832,1401,o),
(839,1240,cs),
(840,1217,o),
(848,1191,o),
(872,1191,cs),
(897,1191,o),
(902,1214,o),
(902,1240,cs),
(902,1422,o),
(782,1550,o),
(633,1550,cs),
(495,1550,o),
(355,1452,o),
(355,1169,cs),
(355,952,l),
(152,952,ls),
(115,952,o),
(95,941,o),
(95,922,cs),
(95,902,o),
(115,891,o),
(152,891,cs)
);
}
);
width = 957;
},
{
anchors = (
{
name = bottom;
pos = (492,0);
},
{
name = top;
pos = (556,1524);
}
);
layerId = "324E61BF-7061-45AA-9F81-5D4ECCAA9032";
shapes = (
{
closed = 1;
nodes = (
(259,686,l),
(259,190,ls),
(259,54,o),
(326,-19,o),
(450,-19,cs),
(573,-19,o),
(640,54,o),
(640,190,cs),
(640,686,l),
(773,686,ls),
(880,686,o),
(944,732,o),
(944,819,cs),
(944,906,o),
(880,952,o),
(773,952,cs),
(640,952,l),
(640,1068,ls),
(640,1226,o),
(670,1289,o),
(712,1289,cs),
(751,1289,o),
(771,1263,o),
(777,1219,cs),
(784,1170,o),
(812,1113,o),
(920,1113,cs),
(1013,1113,o),
(1071,1163,o),
(1071,1264,cs),
(1071,1435,o),
(905,1551,o),
(701,1551,cs),
(502,1551,o),
(259,1437,o),
(259,1087,cs),
(259,952,l),
(209,952,ls),
(92,952,o),
(28,906,o),
(28,819,cs),
(28,732,o),
(92,686,o),
(209,686,cs)
);
}
);
width = 1089;
}
);
unicode = 102;
},
{
color = 6;
glyphname = g;
kernLeft = o;
kernRight = n;
lastChange = "2022-07-21 12:26:04 +0000";
layers = (
{
anchors = (
{
name = bottom;
pos = (629,0);
},
{
name = top;
pos = (629,952);
}
);
layerId = "5521DC30-183F-421A-91F3-644B5E24AFE6";
shapes = (
{
closed = 1;
nodes = (
(827,-497,o),
(1103,-404,o),
(1103,0,cs),
(1103,762,ls),
(1103,898,o),
(1036,971,o),
(912,971,cs),
(826,971,o),
(769,936,o),
(741,870,cs),
(739,865,l),
(686,935,o),
(606,973,o),
(498,973,cs),
(265,973,o),
(79,798,o),
(79,478,cs),
(79,158,o),
(265,-21,o),
(498,-21,cs),
(593,-21,o),
(669,11,o),
(722,69,c),
(722,-103,ls),
(722,-192,o),
(658,-227,o),
(599,-227,cs),
(541,-227,o),
(507,-210,o),
(482,-182,cs),
(447,-142,o),
(401,-90,o),
(304,-90,cs),
(199,-90,o),
(125,-142,o),
(125,-252,cs),
(125,-427,o),
(368,-497,o),
(589,-497,cs)
);
},
{
closed = 1;
nodes = (
(525,255,o),
(463,343,o),
(463,478,cs),
(463,613,o),
(525,697,o),
(605,697,cs),
(673,697,o),
(717,624,o),
(722,563,c),
(722,369,l),
(714,310,o),
(669,255,o),
(605,255,cs)
);
}
);
width = 1238;
},
{
anchors = (
{
name = bottom;
pos = (705,0);
},
{
name = top;
pos = (705,952);
}
);
layerId = "BE68D89F-AB3F-4BDF-B332-ED50D7C47704";
shapes = (
{
closed = 1;
nodes = (
(849,-495,o),
(1016,-350,o),
(1016,-46,cs),
(1016,909,ls),
(1016,944,o),
(1005,962,o),
(985,962,cs),
(965,962,o),
(953,944,o),
(953,909,cs),
(953,791,l),
(880,900,o),
(746,973,o),
(602,973,cs),
(387,973,o),
(173,817,o),
(173,478,cs),
(173,139,o),
(387,-21,o),
(602,-21,cs),
(746,-21,o),
(880,48,o),
(953,155,c),
(953,-46,ls),
(953,-333,o),
(805,-432,o),
(624,-432,cs),
(467,-432,o),
(337,-367,o),
(309,-213,cs),
(303,-182,o),
(294,-159,o),
(271,-159,cs),
(252,-159,o),
(240,-172,o),
(240,-194,cs),
(240,-375,o),
(417,-495,o),
(622,-495,cs)
);
},
{
closed = 1;
nodes = (
(412,42,o),
(240,179,o),
(240,478,cs),
(240,783,o),
(412,910,o),
(605,910,cs),
(765,910,o),
(938,792,o),
(953,619,c),
(953,327,l),
(934,156,o),
(765,42,o),
(605,42,cs)
);
}
);
width = 1238;
},
{
anchors = (
{
name = bottom;
pos = (678,0);
},
{
name = top;
pos = (678,952);
}
);
layerId = "8A001557-9052-48C4-99E5-0FAF857062F1";
shapes = (
{
closed = 1;
nodes = (
(821,-495,o),
(988,-350,o),
(988,-46,cs),
(988,909,ls),
(988,944,o),
(977,962,o),
(957,962,cs),
(937,962,o),
(925,944,o),
(925,909,cs),
(925,791,l),
(852,900,o),
(718,973,o),
(574,973,cs),
(359,973,o),
(145,817,o),
(145,478,cs),
(145,139,o),
(359,-21,o),
(574,-21,cs),
(718,-21,o),
(852,48,o),
(925,155,c),
(925,-46,ls),
(925,-333,o),
(777,-432,o),
(596,-432,cs),
(439,-432,o),
(309,-367,o),
(281,-213,cs),
(275,-182,o),
(266,-159,o),
(243,-159,cs),
(224,-159,o),
(212,-172,o),
(212,-194,cs),
(212,-375,o),
(389,-495,o),
(594,-495,cs)
);
},
{
closed = 1;
nodes = (
(384,42,o),
(212,179,o),
(212,478,cs),
(212,783,o),
(384,910,o),
(577,910,cs),
(737,910,o),
(910,792,o),
(925,619,c),
(925,327,l),
(906,156,o),
(737,42,o),
(577,42,cs)
);
}
);
width = 1173;
},
{
anchors = (
{
name = bottom;
pos = (594,0);
},
{
name = top;
pos = (594,952);
}
);
layerId = "324E61BF-7061-45AA-9F81-5D4ECCAA9032";
shapes = (
{
closed = 1;
nodes = (
(796,-497,o),
(1072,-404,o),
(1072,0,cs),
(1072,762,ls),
(1072,898,o),
(1005,971,o),
(881,971,cs),
(795,971,o),
(738,936,o),
(710,870,cs),
(708,865,l),
(655,935,o),
(575,973,o),
(467,973,cs),
(234,973,o),
(48,798,o),
(48,478,cs),
(48,158,o),
(234,-21,o),
(467,-21,cs),
(562,-21,o),
(638,11,o),
(691,69,c),
(691,-103,ls),
(691,-192,o),
(627,-227,o),
(568,-227,cs),
(510,-227,o),
(476,-210,o),
(451,-182,cs),
(416,-142,o),
(370,-90,o),
(273,-90,cs),
(168,-90,o),
(94,-142,o),
(94,-252,cs),
(94,-427,o),
(337,-497,o),
(558,-497,cs)
);
},
{
closed = 1;
nodes = (
(494,255,o),
(432,343,o),
(432,478,cs),
(432,613,o),
(494,697,o),
(574,697,cs),
(642,697,o),
(686,624,o),
(691,563,c),
(691,369,l),
(683,310,o),
(638,255,o),
(574,255,cs)
);
}
);
width = 1140;
}
);
unicode = 103;
},
